<?xml version="1.0" encoding="utf-8"?>
<!-- Generator: Adobe Illustrator 16.0.0, SVG Export Plug-In . SVG Version: 6.00 Build 0)  -->
<!DOCTYPE svg PUBLIC "-//W3C//DTD SVG 1.1//EN" "http://www.w3.org/Graphics/SVG/1.1/DTD/svg11.dtd">
<svg version="1.1" id="Layer_1" xmlns="http://www.w3.org/2000/svg" xmlns:xlink="http://www.w3.org/1999/xlink" x="0px" y="0px"
	 width="841.89px" height="486.947px" viewBox="0 0 841.89 486.947" enable-background="new 0 0 841.89 486.947"
	 xml:space="preserve">
<g>
	<path fill="none" d="M7.269,450.667c-0.024,1.439,0.856,2.709,2.102,3.257v-7.212C8.139,447.551,7.296,449.01,7.269,450.667z"/>
	<linearGradient id="SVGID_1_" gradientUnits="userSpaceOnUse" x1="425.1436" y1="465.9927" x2="425.1435" y2="9.1675">
		<stop  offset="0" style="stop-color:#FFFFFF"/>
		<stop  offset="0.3042" style="stop-color:#F2F1F8"/>
		<stop  offset="0.8791" style="stop-color:#D1CCE5"/>
		<stop  offset="1" style="stop-color:#C9C3E1"/>
	</linearGradient>
	<path fill="url(#SVGID_1_)" d="M830.587,17.656c0.807,2.828,1.301,5.934-1.625,7.937c-2.669,1.828-5.683,2.013-8.813-0.371
		c-3.235,3.603-6.313,7.243-9.629,10.653c-2.53,2.604-5.299,4.99-8.072,7.341c-7.528,6.382-14.197,13.334-18.616,22.424
		c-2.794,5.746-6.822,10.889-10.28,16.313c-3.294,5.168-6.718,10.263-9.805,15.553c-2.65,4.541-6.499,7.713-10.623,10.751
		c-13.357,9.835-26.572,19.867-39.992,29.615c-8.412,6.109-17.097,11.839-25.652,17.748c-6.595,4.552-12.822,9.538-18.513,15.208
		c-2.183,2.174-4.735,3.976-7.122,5.948c-2.336,1.929-4.673,3.858-6.958,5.744c1.534,3.388,1.474,6.784-1.088,8.684
		c-1.967,1.456-5.911,2.288-9.016-0.508c-5.228,4.711-10.484,9.441-15.73,14.181c-7.737,6.994-15.474,13.989-23.2,20.998
		c-7.034,6.383-14.064,12.771-21.08,19.179c-10.091,9.213-20.162,18.449-30.247,27.668c-5.868,5.363-11.801,10.657-17.6,16.092
		c-2.522,2.362-4.793,4.992-7.161,7.516c-0.704,0.745-0.789,1.436-0.192,2.447c1.587,2.693,1.128,6.183-0.832,7.876
		c-2.257,1.953-5.934,2.077-8.5,0.396c-0.437-0.285-1.263-0.356-1.742-0.147c-18.002,7.897-35.909,16.008-53.992,23.716
		c-12.101,5.16-24.438,9.768-36.679,14.6c-9.158,3.611-18.326,7.189-27.585,10.82c0.076,4.209-0.942,5.993-4.135,6.944
		c-3.683,1.095-5.888,0.149-8.258-3.643c-3.993,1.137-8.01,2.373-12.074,3.428c-20.213,5.245-40.433,10.459-60.661,15.646
		c-10.863,2.785-21.764,5.427-32.614,8.267c-3.531,0.924-6.943,2.297-10.429,3.401c-1.013,0.321-1.487,0.74-1.479,1.925
		c0.024,3.08-1.026,4.509-3.608,5.334c-3.394,1.085-5.83,0.566-7.469-1.884c-0.803-1.202-1.575-0.823-2.522-0.509
		c-21.206,7.074-42.396,14.189-63.625,21.187c-10.14,3.342-20.402,6.312-30.516,9.727c-6.581,2.223-13.001,4.922-19.465,7.48
		c-0.458,0.182-0.911,0.935-0.972,1.466c-0.362,3.241-1.329,4.66-3.918,5.456c-3.06,0.942-5.4,0.422-7.155-1.978
		c-0.866-1.185-1.66-0.696-2.565-0.467c-7.461,1.887-14.84,4.214-22.394,5.582c-13.068,2.369-26.197,4.562-39.39,6.028
		c-9.98,1.112-20.097,1.001-30.156,1.385c-5.962,0.226-11.927,0.367-17.891,0.521c-1.12,0.029-1.848,0.212-2.339,1.502
		c-0.901,2.369-4.428,3.66-7.238,2.987v10.169h831.545V9.167C837.513,11.964,834.108,14.761,830.587,17.656z"/>
	<linearGradient id="SVGID_2_" gradientUnits="userSpaceOnUse" x1="12.4468" y1="465.9927" x2="12.4468" y2="9.1845">
		<stop  offset="0" style="stop-color:#FFFFFF"/>
		<stop  offset="1" style="stop-color:#26246A"/>
	</linearGradient>
	<path fill="url(#SVGID_2_)" d="M15.522,450.185c0.002-2.476-1.503-4.179-3.725-4.218c-0.886-0.015-1.719,0.266-2.426,0.745v7.212
		c0.382,0.168,0.794,0.273,1.229,0.288C12.84,454.288,15.519,452.095,15.522,450.185z"/>
	<path fill="#514EA1" d="M16.609,452.836c0.491-1.29,1.219-1.473,2.339-1.502c5.964-0.154,11.929-0.296,17.891-0.521
		c10.059-0.384,20.176-0.272,30.156-1.385c13.193-1.466,26.322-3.659,39.39-6.028c7.554-1.368,14.933-3.695,22.394-5.582
		c0.905-0.229,1.699-0.718,2.565,0.467c1.755,2.399,4.095,2.92,7.155,1.978c2.589-0.796,3.556-2.215,3.918-5.456
		c0.061-0.531,0.514-1.284,0.972-1.466c6.463-2.559,12.884-5.258,19.465-7.48c10.114-3.415,20.375-6.385,30.516-9.727
		c21.229-6.997,42.419-14.112,63.625-21.187c0.948-0.314,1.719-0.693,2.522,0.509c1.639,2.45,4.075,2.969,7.469,1.884
		c2.582-0.825,3.632-2.254,3.608-5.334c-0.008-1.185,0.465-1.604,1.479-1.925c3.486-1.104,6.897-2.478,10.429-3.401
		c10.85-2.84,21.75-5.481,32.614-8.267c20.229-5.188,40.448-10.401,60.661-15.646c4.064-1.055,8.082-2.291,12.074-3.428
		c2.37,3.792,4.575,4.737,8.258,3.643c3.193-0.951,4.211-2.735,4.135-6.944c9.259-3.631,18.427-7.209,27.585-10.82
		c12.24-4.832,24.578-9.439,36.679-14.6c18.083-7.708,35.99-15.818,53.992-23.716c0.479-0.209,1.306-0.138,1.742,0.147
		c2.566,1.681,6.243,1.557,8.5-0.396c1.96-1.693,2.419-5.183,0.832-7.876c-0.597-1.012-0.512-1.702,0.192-2.447
		c2.368-2.523,4.639-5.153,7.161-7.516c5.799-5.435,11.731-10.729,17.6-16.092c10.085-9.219,20.156-18.455,30.247-27.668
		c7.016-6.407,14.046-12.796,21.08-19.179c7.727-7.009,15.463-14.004,23.2-20.998c5.246-4.739,10.503-9.47,15.73-14.181
		c3.104,2.796,7.049,1.964,9.016,0.508c2.562-1.9,2.622-5.295,1.088-8.684c2.285-1.886,4.622-3.815,6.958-5.744
		c2.387-1.972,4.939-3.774,7.122-5.948c5.69-5.67,11.918-10.655,18.513-15.208c8.556-5.909,17.24-11.639,25.652-17.748
		c13.42-9.749,26.635-19.78,39.992-29.615c4.124-3.038,7.973-6.21,10.623-10.751c3.087-5.291,6.511-10.385,9.805-15.553
		c3.458-5.425,7.486-10.568,10.28-16.313c4.419-9.09,11.088-16.042,18.616-22.424c2.773-2.351,5.542-4.737,8.072-7.341
		c3.315-3.41,6.394-7.05,9.629-10.653c3.131,2.383,6.145,2.199,8.813,0.371c2.926-2.003,2.432-5.108,1.625-7.937
		c3.521-2.895,6.926-5.691,10.329-8.489c-0.166-0.216-0.332-0.433-0.498-0.648c-0.432,0.175-0.831,0.4-1.214,0.648
		c-1.418,0.915-2.573,2.222-3.932,3.219c-1.886,1.385-3.698,2.873-5.489,4.275c-3.187-2.333-5.502-2.731-7.512-1.393
		c-2.486,1.656-3.582,5.07-2.815,8.414c0.104,0.456-0.188,1.174-0.54,1.536c-1.556,1.6-3.344,2.993-4.79,4.682
		c-4.037,4.711-8.222,9.2-13.142,13.072c-5.913,4.659-11.219,10.025-15.132,16.559c-1.716,2.867-3.026,5.98-4.813,8.798
		c-6.343,10.002-12.752,19.962-19.276,29.847c-1.447,2.194-3.195,4.368-5.269,5.942c-10.818,8.224-21.75,16.3-32.715,24.33
		c-9.161,6.709-18.413,13.293-27.637,19.915c-6.552,4.704-13.426,9.014-19.605,14.161c-7.236,6.025-14.123,12.48-21.497,18.356
		c-0.446,0.356-1.404,0.62-1.809,0.386c-2.239-1.299-4.501-1.769-6.596-0.022c-2.231,1.86-3.342,4.389-2.646,7.303
		c0.284,1.193-0.132,1.657-0.889,2.304c-3.489,2.99-7.007,5.952-10.386,9.064c-6.721,6.189-13.274,12.559-20.042,18.694
		c-12.701,11.518-25.533,22.887-38.251,34.382c-11.108,10.043-22.171,20.135-33.182,30.283c-4.415,4.071-9.361,7.64-12.69,12.786
		c-0.647,1-1.289,0.583-2.055,0.281c-2.793-1.101-4.938-0.418-6.595,2.086c-1.362,2.057-1.988,4.262-1.078,6.917
		c-0.987,0.471-1.814,0.896-2.664,1.269c-15.271,6.746-30.47,13.657-45.84,20.172c-13.191,5.593-26.554,10.786-39.882,16.055
		c-9.638,3.809-19.352,7.442-29.015,11.181c-1.184,0.458-1.893,0.385-2.788-0.774c-2.665-3.447-7.319-2.926-9.355,0.925
		c-0.43,0.812-0.573,1.784-1.038,2.57c-0.385,0.648-0.956,1.453-1.604,1.642c-8.34,2.444-16.661,4.978-25.08,7.125
		c-21.241,5.416-42.553,10.56-63.791,15.993c-8.654,2.214-17.187,4.9-25.777,7.371c-0.843,0.241-1.644,0.858-2.409-0.34
		c-1.427-2.231-3.555-3.389-6.189-2.769c-2.894,0.684-4.224,3.015-4.607,5.727c-0.209,1.484-0.773,2.065-2.122,2.514
		c-18.212,6.025-36.451,11.981-54.592,18.218c-18.016,6.193-36.6,10.698-54.163,18.232c-1.856,0.797-3.788,1.419-5.626,2.102
		c-2.105-3.264-4.471-4.722-6.947-4.011c-3.782,1.088-4.634,4.293-5.077,7.704c-18.127,6.093-37.033,8.485-55.798,11.252
		c-18.879,2.783-38.029,1.88-57.05,2.857c-0.099-0.535-0.137-0.778-0.188-1.018c-0.741-3.486-2.975-5.574-5.983-5.6
		c-0.657-0.006-1.281,0.117-1.865,0.344c-1.844,0.716-3.263,2.531-3.87,5.092c-0.708,2.987,0.531,5.467,3.227,6.457
		c0.208,0.077,0.424,0.139,0.643,0.19C12.181,456.497,15.708,455.206,16.609,452.836z M825.525,16.708
		c2.189-0.021,3.749,1.728,3.75,4.209c0,2.021-2.502,4.126-4.848,4.079c-1.938-0.04-3.353-1.519-3.331-3.484
		C821.124,18.833,823.061,16.734,825.525,16.708z M650.123,182.366c2.254-0.089,3.964,1.733,3.967,4.226
		c0.004,1.964-2.374,3.966-4.778,4.027c-1.927,0.05-3.47-1.413-3.501-3.322C645.763,184.646,647.674,182.462,650.123,182.366z
		 M524.849,298.117c2.322-0.025,3.884,1.731,3.823,4.3c-0.046,1.813-2.775,4.049-4.868,3.987c-1.832-0.055-3.375-1.669-3.368-3.527
		C520.444,300.179,522.332,298.142,524.849,298.117z M394.686,353.175c2.179,0.029,3.712,1.802,3.693,4.269
		c-0.015,1.983-2.406,4.001-4.762,4.021c-1.841,0.016-3.536-1.604-3.53-3.377C390.093,355.467,392.27,353.142,394.686,353.175z
		 M265.128,387.841c2.224,0.032,3.721,1.729,3.713,4.209c-0.005,1.931-2.417,3.969-4.738,4.001c-1.929,0.028-3.6-1.633-3.543-3.521
		C260.64,389.959,262.735,387.807,265.128,387.841z M136.929,430.636c2.31,0.016,3.907,1.823,3.83,4.335
		c-0.056,1.771-2.859,4.008-4.939,3.941c-1.81-0.059-3.354-1.697-3.345-3.551C132.486,432.65,134.399,430.621,136.929,430.636z
		 M9.371,453.924c-1.246-0.548-2.126-1.817-2.102-3.257c0.027-1.657,0.87-3.116,2.102-3.955c0.707-0.479,1.541-0.76,2.426-0.745
		c2.221,0.039,3.727,1.742,3.725,4.218c-0.003,1.91-2.682,4.103-4.921,4.027C10.166,454.198,9.753,454.092,9.371,453.924z"/>
	<ellipse fill-rule="evenodd" clip-rule="evenodd" fill="#514EA1" cx="11.219" cy="450.62" rx="1.848" ry="1.506"/>
	<ellipse fill-rule="evenodd" clip-rule="evenodd" fill="#514EA1" cx="136.367" cy="435.225" rx="1.642" ry="1.573"/>
	<ellipse fill-rule="evenodd" clip-rule="evenodd" fill="#514EA1" cx="265.211" cy="392.186" rx="1.848" ry="1.642"/>
	<ellipse fill-rule="evenodd" clip-rule="evenodd" fill="#514EA1" cx="394.533" cy="357.22" rx="1.779" ry="1.848"/>
	<ellipse fill-rule="evenodd" clip-rule="evenodd" fill="#514EA1" cx="524.887" cy="302.871" rx="2.182" ry="2.189"/>
	<ellipse fill-rule="evenodd" clip-rule="evenodd" fill="#514EA1" cx="649.929" cy="186.501" rx="1.87" ry="1.916"/>
	<ellipse fill-rule="evenodd" clip-rule="evenodd" fill="#514EA1" cx="825.21" cy="20.914" rx="2.076" ry="1.871"/>
	<g>
		<path fill="#312F81" d="M5.939,467.61c0.195-0.465,0.657-0.957,1.385-1.478c0.632-0.452,1.041-0.775,1.227-0.972
			c0.286-0.305,0.428-0.638,0.428-1c0-0.296-0.082-0.541-0.246-0.736s-0.397-0.294-0.702-0.294c-0.417,0-0.701,0.156-0.852,0.467
			c-0.086,0.18-0.138,0.465-0.154,0.856H5.693c0.022-0.593,0.13-1.073,0.323-1.438c0.366-0.696,1.016-1.044,1.951-1.044
			c0.738,0,1.326,0.204,1.763,0.613c0.437,0.409,0.655,0.95,0.655,1.624c0,0.517-0.154,0.975-0.463,1.376
			c-0.202,0.266-0.535,0.562-0.998,0.89l-0.55,0.39c-0.344,0.244-0.579,0.421-0.706,0.529c-0.127,0.109-0.233,0.236-0.32,0.38h3.045
			v1.208H5.617C5.629,468.481,5.737,468.024,5.939,467.61z"/>
		<path fill="#312F81" d="M15.371,462.895c0.357,0.625,0.537,1.514,0.537,2.665s-0.179,2.038-0.537,2.661
			c-0.357,0.622-0.98,0.933-1.869,0.933c-0.888,0-1.511-0.311-1.869-0.933c-0.357-0.623-0.536-1.51-0.536-2.661
			s0.179-2.04,0.536-2.665c0.358-0.626,0.981-0.938,1.869-0.938C14.391,461.957,15.014,462.269,15.371,462.895z M12.694,467.401
			c0.131,0.425,0.401,0.637,0.808,0.637s0.674-0.212,0.801-0.637c0.126-0.426,0.19-1.039,0.19-1.841c0-0.84-0.063-1.462-0.19-1.866
			c-0.127-0.404-0.394-0.606-0.801-0.606s-0.677,0.202-0.808,0.606c-0.132,0.404-0.197,1.026-0.197,1.866
			C12.497,466.362,12.562,466.975,12.694,467.401z"/>
		<path fill="#312F81" d="M16.951,464.169v-0.933c0.432-0.02,0.734-0.049,0.907-0.087c0.275-0.061,0.499-0.183,0.672-0.365
			c0.118-0.126,0.208-0.292,0.269-0.501c0.035-0.125,0.053-0.218,0.053-0.279h1.145v6.977h-1.405v-4.812H16.951z"/>
		<path fill="#312F81" d="M22.378,467.61c0.195-0.465,0.657-0.957,1.385-1.478c0.632-0.452,1.041-0.775,1.227-0.972
			c0.286-0.305,0.428-0.638,0.428-1c0-0.296-0.082-0.541-0.246-0.736s-0.397-0.294-0.702-0.294c-0.417,0-0.701,0.156-0.852,0.467
			c-0.086,0.18-0.138,0.465-0.154,0.856h-1.333c0.022-0.593,0.13-1.073,0.323-1.438c0.366-0.696,1.016-1.044,1.951-1.044
			c0.738,0,1.326,0.204,1.763,0.613c0.437,0.409,0.655,0.95,0.655,1.624c0,0.517-0.154,0.975-0.463,1.376
			c-0.202,0.266-0.535,0.562-0.998,0.89l-0.55,0.39c-0.344,0.244-0.579,0.421-0.706,0.529c-0.127,0.109-0.233,0.236-0.32,0.38h3.045
			v1.208h-4.777C22.069,468.481,22.176,468.024,22.378,467.61z"/>
		<path fill="#312F81" d="M28.344,463.939h1.458v1.438h-1.458V463.939z M28.344,467.542h1.458v1.438h-1.458V467.542z"/>
		<path fill="#312F81" d="M34.623,466.701c0.021,0.4,0.113,0.727,0.273,0.977c0.306,0.468,0.845,0.702,1.617,0.702
			c0.346,0,0.661-0.051,0.946-0.153c0.55-0.199,0.825-0.556,0.825-1.068c0-0.385-0.116-0.659-0.35-0.823
			c-0.236-0.16-0.606-0.3-1.109-0.418l-0.928-0.217c-0.606-0.141-1.035-0.297-1.286-0.467c-0.435-0.295-0.653-0.736-0.653-1.323
			c0-0.635,0.214-1.156,0.642-1.563s1.033-0.61,1.816-0.61c0.721,0,1.333,0.179,1.838,0.536c0.504,0.357,0.756,0.93,0.756,1.715
			h-0.899c-0.046-0.378-0.145-0.669-0.295-0.87c-0.28-0.369-0.755-0.554-1.425-0.554c-0.542,0-0.93,0.119-1.167,0.356
			s-0.355,0.513-0.355,0.827c0,0.347,0.14,0.6,0.419,0.76c0.183,0.103,0.598,0.231,1.245,0.385l0.96,0.227
			c0.463,0.109,0.821,0.258,1.072,0.447c0.435,0.33,0.653,0.81,0.653,1.438c0,0.783-0.278,1.343-0.833,1.68
			c-0.555,0.336-1.2,0.505-1.936,0.505c-0.857,0-1.528-0.225-2.013-0.674c-0.485-0.445-0.723-1.05-0.713-1.813H34.623z"/>
		<path fill="#312F81" d="M45.707,461.914v0.842h-2.381v6.226h-0.967v-6.226h-2.381v-0.842H45.707z"/>
		<path fill="#312F81" d="M47.924,461.914h1.081l2.565,7.067h-1.049l-0.738-2.117H47.01l-0.767,2.117h-0.981L47.924,461.914z
			 M49.511,466.084l-1.088-3.122l-1.131,3.122H49.511z"/>
		<path fill="#312F81" d="M52.549,461.914h3.212c0.529,0,0.965,0.078,1.309,0.235c0.652,0.302,0.978,0.858,0.978,1.67
			c0,0.423-0.087,0.77-0.262,1.039s-0.419,0.486-0.734,0.649c0.276,0.112,0.483,0.26,0.623,0.442s0.217,0.479,0.233,0.891
			l0.034,0.947c0.01,0.27,0.032,0.47,0.067,0.602c0.058,0.225,0.16,0.369,0.308,0.433v0.159h-1.174
			c-0.032-0.061-0.058-0.14-0.077-0.235c-0.02-0.097-0.036-0.282-0.048-0.559l-0.058-1.179c-0.022-0.462-0.188-0.771-0.5-0.929
			c-0.178-0.086-0.457-0.13-0.837-0.13h-2.118v3.031h-0.957V461.914z M55.658,465.151c0.437,0,0.782-0.089,1.036-0.269
			c0.254-0.18,0.381-0.504,0.381-0.973c0-0.503-0.178-0.847-0.533-1.029c-0.19-0.096-0.444-0.145-0.763-0.145h-2.274v2.415H55.658z"
			/>
		<path fill="#312F81" d="M64.514,461.914v0.842h-2.381v6.226h-0.967v-6.226h-2.381v-0.842H64.514z"/>
		<path fill="#312F81" d="M65.784,461.914h0.977v2.323l-0.235,3.061h-0.491l-0.25-3.061V461.914z M65.784,467.98h0.958v1.001h-0.958
			V467.98z"/>
		<path fill="#312F81" d="M34.06,478.525c0.021,0.4,0.113,0.727,0.273,0.977c0.306,0.468,0.845,0.702,1.617,0.702
			c0.346,0,0.661-0.051,0.946-0.153c0.55-0.199,0.825-0.556,0.825-1.068c0-0.385-0.116-0.659-0.35-0.823
			c-0.236-0.16-0.606-0.3-1.109-0.418l-0.928-0.217c-0.606-0.141-1.035-0.297-1.286-0.467c-0.435-0.295-0.653-0.736-0.653-1.323
			c0-0.635,0.214-1.156,0.642-1.563s1.033-0.61,1.816-0.61c0.721,0,1.333,0.179,1.838,0.536c0.504,0.357,0.756,0.93,0.756,1.715
			h-0.899c-0.046-0.378-0.145-0.669-0.295-0.87c-0.28-0.369-0.755-0.554-1.425-0.554c-0.542,0-0.93,0.119-1.167,0.356
			s-0.355,0.513-0.355,0.827c0,0.347,0.14,0.6,0.419,0.76c0.183,0.103,0.598,0.231,1.245,0.385l0.96,0.227
			c0.463,0.109,0.821,0.258,1.072,0.447c0.435,0.33,0.653,0.81,0.653,1.438c0,0.783-0.278,1.343-0.833,1.68
			c-0.555,0.336-1.2,0.505-1.936,0.505c-0.857,0-1.528-0.225-2.013-0.674c-0.485-0.445-0.723-1.05-0.713-1.813H34.06z"/>
		<path fill="#312F81" d="M42.652,477.687c0.199-0.025,0.332-0.109,0.399-0.25c0.039-0.077,0.058-0.188,0.058-0.333
			c0-0.296-0.104-0.512-0.314-0.645c-0.209-0.134-0.51-0.201-0.9-0.201c-0.452,0-0.771,0.123-0.96,0.368
			c-0.105,0.135-0.174,0.337-0.207,0.604h-0.808c0.016-0.638,0.222-1.08,0.617-1.33c0.396-0.249,0.854-0.373,1.377-0.373
			c0.605,0,1.097,0.115,1.475,0.346c0.375,0.231,0.562,0.591,0.562,1.078v2.969c0,0.09,0.018,0.162,0.055,0.216
			c0.037,0.055,0.115,0.082,0.233,0.082c0.039,0,0.082-0.003,0.13-0.007c0.048-0.005,0.099-0.013,0.154-0.022v0.641
			c-0.135,0.038-0.237,0.062-0.308,0.072c-0.071,0.009-0.167,0.014-0.289,0.014c-0.298,0-0.515-0.105-0.649-0.317
			c-0.07-0.112-0.12-0.271-0.149-0.476c-0.177,0.23-0.43,0.431-0.76,0.601c-0.331,0.17-0.694,0.255-1.092,0.255
			c-0.478,0-0.868-0.145-1.171-0.435s-0.455-0.652-0.455-1.088c0-0.478,0.149-0.848,0.447-1.11s0.69-0.425,1.174-0.485
			L42.652,477.687z M40.829,480.026c0.183,0.145,0.399,0.217,0.649,0.217c0.305,0,0.6-0.071,0.885-0.212
			c0.481-0.233,0.722-0.616,0.722-1.147v-0.697c-0.105,0.068-0.242,0.124-0.408,0.169c-0.167,0.046-0.33,0.077-0.49,0.097
			l-0.523,0.067c-0.313,0.042-0.549,0.107-0.708,0.197c-0.268,0.15-0.402,0.39-0.402,0.72
			C40.554,479.685,40.646,479.882,40.829,480.026z"/>
		<path fill="#312F81" d="M45.395,473.738h0.866v7.067h-0.866V473.738z"/>
		<path fill="#312F81" d="M50.742,475.794c0.341,0.172,0.601,0.394,0.779,0.666c0.172,0.26,0.287,0.563,0.344,0.909
			c0.051,0.238,0.077,0.616,0.077,1.136h-3.748c0.016,0.524,0.139,0.945,0.368,1.262s0.584,0.476,1.064,0.476
			c0.449,0,0.807-0.15,1.074-0.45c0.149-0.174,0.255-0.375,0.318-0.604h0.852c-0.022,0.189-0.097,0.399-0.224,0.633
			c-0.127,0.232-0.268,0.422-0.424,0.569c-0.261,0.257-0.584,0.43-0.97,0.52c-0.207,0.052-0.441,0.077-0.702,0.077
			c-0.638,0-1.178-0.233-1.621-0.7c-0.443-0.466-0.665-1.12-0.665-1.96c0-0.828,0.223-1.5,0.669-2.016
			c0.446-0.517,1.029-0.775,1.75-0.775C50.049,475.537,50.401,475.623,50.742,475.794z M51.052,477.818
			c-0.035-0.376-0.116-0.676-0.243-0.9c-0.235-0.417-0.628-0.625-1.179-0.625c-0.394,0-0.725,0.144-0.992,0.431
			s-0.409,0.651-0.424,1.095H51.052z"/>
		<path fill="#312F81" d="M53.554,479.189c0.026,0.288,0.1,0.51,0.221,0.664c0.223,0.278,0.609,0.418,1.159,0.418
			c0.327,0,0.615-0.069,0.864-0.209c0.249-0.14,0.373-0.355,0.373-0.647c0-0.221-0.1-0.39-0.298-0.505
			c-0.127-0.07-0.378-0.152-0.753-0.245l-0.699-0.174c-0.446-0.108-0.776-0.23-0.988-0.365c-0.378-0.234-0.567-0.559-0.567-0.972
			c0-0.487,0.178-0.882,0.534-1.184s0.834-0.452,1.436-0.452c0.787,0,1.354,0.228,1.702,0.683c0.218,0.289,0.323,0.6,0.317,0.934
			h-0.818c-0.017-0.194-0.087-0.371-0.212-0.531c-0.203-0.227-0.556-0.34-1.059-0.34c-0.335,0-0.589,0.062-0.761,0.188
			c-0.172,0.124-0.258,0.289-0.258,0.493c0,0.224,0.113,0.403,0.34,0.537c0.13,0.08,0.323,0.15,0.578,0.212l0.583,0.139
			c0.634,0.151,1.059,0.297,1.274,0.438c0.337,0.221,0.505,0.569,0.505,1.044c0,0.458-0.176,0.854-0.529,1.188
			c-0.352,0.333-0.889,0.5-1.61,0.5c-0.776,0-1.326-0.174-1.648-0.522c-0.323-0.348-0.496-0.778-0.519-1.291H53.554z"/>
		<path fill="#312F81" d="M64.437,476.167c0.455,0.442,0.683,1.093,0.683,1.952c0,0.83-0.201,1.516-0.602,2.057
			c-0.401,0.542-1.024,0.812-1.868,0.812c-0.704,0-1.263-0.239-1.677-0.719c-0.414-0.479-0.621-1.122-0.621-1.93
			c0-0.865,0.218-1.554,0.655-2.067c0.436-0.513,1.022-0.769,1.758-0.769C63.424,475.503,63.981,475.724,64.437,476.167z
			 M63.899,479.591c0.211-0.435,0.316-0.917,0.316-1.449c0-0.48-0.076-0.871-0.228-1.172c-0.241-0.475-0.657-0.712-1.247-0.712
			c-0.523,0-0.904,0.202-1.142,0.605c-0.238,0.404-0.357,0.891-0.357,1.461c0,0.548,0.119,1.005,0.357,1.37s0.615,0.548,1.132,0.548
			C63.299,480.243,63.688,480.025,63.899,479.591z"/>
		<path fill="#312F81" d="M66.184,475.653h0.823v0.73c0.244-0.301,0.501-0.518,0.774-0.649c0.272-0.131,0.576-0.197,0.909-0.197
			c0.731,0,1.225,0.256,1.482,0.766c0.141,0.278,0.211,0.678,0.211,1.197v3.306h-0.88v-3.247c0-0.314-0.046-0.568-0.139-0.761
			c-0.154-0.32-0.433-0.48-0.837-0.48c-0.205,0-0.374,0.021-0.505,0.062c-0.238,0.07-0.446,0.211-0.625,0.423
			c-0.145,0.17-0.238,0.346-0.282,0.527c-0.043,0.181-0.065,0.439-0.065,0.776v2.699h-0.866V475.653z"/>
		<path fill="#312F81" d="M77.231,475.811c0.153,0.097,0.328,0.265,0.522,0.506v-2.604h0.833v7.092h-0.779v-0.717
			c-0.202,0.317-0.439,0.547-0.714,0.688c-0.275,0.142-0.589,0.212-0.944,0.212c-0.572,0-1.067-0.241-1.485-0.724
			c-0.419-0.483-0.628-1.125-0.628-1.927c0-0.751,0.191-1.401,0.573-1.951s0.927-0.825,1.637-0.825
			C76.637,475.561,76.966,475.644,77.231,475.811z M75.298,479.674c0.233,0.372,0.606,0.559,1.121,0.559
			c0.398,0,0.727-0.173,0.983-0.518s0.385-0.84,0.385-1.484c0-0.65-0.132-1.133-0.397-1.445c-0.265-0.312-0.592-0.469-0.981-0.469
			c-0.434,0-0.786,0.166-1.056,0.5s-0.404,0.824-0.404,1.472C74.949,478.84,75.065,479.302,75.298,479.674z"/>
		<path fill="#312F81" d="M82.642,477.687c0.199-0.025,0.332-0.109,0.399-0.25c0.039-0.077,0.058-0.188,0.058-0.333
			c0-0.296-0.104-0.512-0.314-0.645c-0.209-0.134-0.51-0.201-0.9-0.201c-0.452,0-0.771,0.123-0.96,0.368
			c-0.105,0.135-0.174,0.337-0.207,0.604H79.91c0.016-0.638,0.222-1.08,0.617-1.33c0.396-0.249,0.854-0.373,1.377-0.373
			c0.605,0,1.097,0.115,1.475,0.346c0.375,0.231,0.562,0.591,0.562,1.078v2.969c0,0.09,0.018,0.162,0.055,0.216
			c0.037,0.055,0.115,0.082,0.233,0.082c0.039,0,0.082-0.003,0.13-0.007c0.048-0.005,0.099-0.013,0.154-0.022v0.641
			c-0.135,0.038-0.237,0.062-0.308,0.072c-0.071,0.009-0.167,0.014-0.289,0.014c-0.298,0-0.515-0.105-0.649-0.317
			c-0.07-0.112-0.12-0.271-0.149-0.476c-0.177,0.23-0.43,0.431-0.76,0.601c-0.331,0.17-0.694,0.255-1.092,0.255
			c-0.478,0-0.868-0.145-1.171-0.435s-0.455-0.652-0.455-1.088c0-0.478,0.149-0.848,0.447-1.11s0.69-0.425,1.174-0.485
			L82.642,477.687z M80.819,480.026c0.183,0.145,0.399,0.217,0.649,0.217c0.305,0,0.6-0.071,0.885-0.212
			c0.481-0.233,0.722-0.616,0.722-1.147v-0.697c-0.105,0.068-0.242,0.124-0.408,0.169c-0.167,0.046-0.33,0.077-0.49,0.097
			l-0.523,0.067c-0.313,0.042-0.549,0.107-0.708,0.197c-0.268,0.15-0.402,0.39-0.402,0.72
			C80.544,479.685,80.636,479.882,80.819,480.026z"/>
		<path fill="#312F81" d="M88.581,475.653h0.958c-0.122,0.33-0.393,1.084-0.813,2.262c-0.314,0.886-0.577,1.607-0.789,2.166
			c-0.5,1.314-0.853,2.115-1.058,2.404c-0.205,0.288-0.558,0.433-1.057,0.433c-0.122,0-0.216-0.005-0.281-0.015
			c-0.066-0.01-0.147-0.027-0.243-0.053v-0.789c0.15,0.041,0.259,0.067,0.326,0.077c0.067,0.01,0.126,0.014,0.178,0.014
			c0.16,0,0.278-0.026,0.353-0.079s0.139-0.117,0.19-0.194c0.016-0.025,0.074-0.156,0.173-0.394s0.171-0.413,0.216-0.528
			l-1.905-5.304h0.981l1.381,4.197L88.581,475.653z"/>
		<path fill="#312F81" d="M93.332,475.926v-0.663c0.625-0.062,1.062-0.163,1.309-0.306s0.432-0.48,0.553-1.013h0.684v6.86h-0.924
			v-4.879H93.332z"/>
	</g>
	<g>
		<path fill="#312F81" d="M132.935,448.72c0.195-0.465,0.657-0.957,1.385-1.478c0.632-0.452,1.041-0.775,1.227-0.972
			c0.286-0.305,0.428-0.638,0.428-1c0-0.296-0.082-0.541-0.246-0.736s-0.397-0.294-0.702-0.294c-0.417,0-0.701,0.156-0.852,0.467
			c-0.086,0.18-0.138,0.465-0.154,0.856h-1.333c0.022-0.593,0.13-1.073,0.323-1.438c0.366-0.696,1.016-1.044,1.951-1.044
			c0.738,0,1.326,0.204,1.763,0.613c0.437,0.409,0.655,0.95,0.655,1.624c0,0.517-0.154,0.975-0.463,1.376
			c-0.202,0.266-0.535,0.562-0.998,0.89l-0.55,0.39c-0.344,0.244-0.579,0.421-0.706,0.529c-0.127,0.109-0.233,0.236-0.32,0.38h3.045
			v1.208h-4.777C132.625,449.591,132.732,449.134,132.935,448.72z"/>
		<path fill="#312F81" d="M142.367,444.005c0.357,0.625,0.537,1.514,0.537,2.665s-0.179,2.038-0.537,2.661
			c-0.357,0.622-0.98,0.933-1.869,0.933c-0.888,0-1.511-0.311-1.869-0.933c-0.357-0.623-0.536-1.51-0.536-2.661
			s0.179-2.04,0.536-2.665c0.358-0.626,0.981-0.938,1.869-0.938C141.386,443.067,142.009,443.379,142.367,444.005z M139.689,448.511
			c0.131,0.425,0.401,0.637,0.808,0.637s0.674-0.212,0.801-0.637c0.126-0.426,0.19-1.039,0.19-1.841c0-0.84-0.063-1.462-0.19-1.866
			c-0.127-0.404-0.394-0.606-0.801-0.606s-0.677,0.202-0.808,0.606c-0.132,0.404-0.197,1.026-0.197,1.866
			C139.492,447.472,139.558,448.085,139.689,448.511z"/>
		<path fill="#312F81" d="M143.947,445.28v-0.933c0.432-0.02,0.734-0.049,0.907-0.087c0.275-0.061,0.499-0.183,0.672-0.365
			c0.118-0.126,0.208-0.292,0.269-0.501c0.035-0.125,0.053-0.218,0.053-0.279h1.145v6.977h-1.405v-4.812H143.947z"/>
		<path fill="#312F81" d="M150.351,447.951c0,0.278,0.045,0.51,0.134,0.692c0.167,0.337,0.469,0.505,0.907,0.505
			c0.269,0,0.503-0.092,0.703-0.276c0.2-0.185,0.3-0.45,0.3-0.796c0-0.459-0.186-0.766-0.557-0.919
			c-0.211-0.087-0.543-0.13-0.998-0.13v-0.981c0.444-0.007,0.754-0.05,0.93-0.13c0.304-0.135,0.456-0.407,0.456-0.818
			c0-0.266-0.078-0.482-0.233-0.649s-0.374-0.25-0.655-0.25c-0.323,0-0.561,0.103-0.713,0.308s-0.225,0.479-0.218,0.823h-1.28
			c0.013-0.347,0.072-0.676,0.178-0.986c0.112-0.272,0.289-0.524,0.529-0.756c0.179-0.163,0.393-0.288,0.639-0.375
			s0.549-0.13,0.908-0.13c0.667,0,1.204,0.173,1.613,0.518c0.408,0.345,0.613,0.807,0.613,1.388c0,0.41-0.122,0.757-0.366,1.039
			c-0.154,0.177-0.314,0.297-0.481,0.361c0.125,0,0.305,0.107,0.539,0.322c0.35,0.323,0.524,0.767,0.524,1.327
			c0,0.591-0.205,1.109-0.613,1.557c-0.409,0.447-1.013,0.671-1.814,0.671c-0.987,0-1.673-0.322-2.057-0.967
			c-0.202-0.343-0.314-0.792-0.336-1.347H150.351z"/>
		<path fill="#312F81" d="M155.34,445.049h1.458v1.438h-1.458V445.049z M155.34,448.653h1.458v1.438h-1.458V448.653z"/>
		<path fill="#312F81" d="M161.185,445.212v-0.663c0.625-0.062,1.062-0.163,1.309-0.306s0.432-0.48,0.553-1.013h0.684v6.86h-0.924
			v-4.879H161.185z"/>
		<path fill="#312F81" d="M166.872,448.475c0.026,0.288,0.1,0.51,0.221,0.664c0.223,0.278,0.609,0.418,1.159,0.418
			c0.327,0,0.615-0.069,0.864-0.209c0.249-0.14,0.373-0.355,0.373-0.647c0-0.221-0.1-0.39-0.298-0.505
			c-0.127-0.07-0.378-0.152-0.753-0.245l-0.699-0.174c-0.446-0.108-0.776-0.23-0.988-0.365c-0.378-0.234-0.567-0.559-0.567-0.972
			c0-0.487,0.178-0.882,0.534-1.184s0.834-0.452,1.436-0.452c0.787,0,1.354,0.228,1.702,0.683c0.218,0.289,0.323,0.6,0.317,0.934
			h-0.818c-0.017-0.194-0.087-0.371-0.212-0.531c-0.203-0.227-0.556-0.34-1.059-0.34c-0.335,0-0.589,0.062-0.761,0.188
			c-0.172,0.124-0.258,0.289-0.258,0.493c0,0.224,0.113,0.403,0.34,0.537c0.13,0.08,0.323,0.15,0.578,0.212l0.583,0.139
			c0.634,0.151,1.059,0.297,1.274,0.438c0.337,0.221,0.505,0.569,0.505,1.044c0,0.458-0.176,0.854-0.529,1.188
			c-0.352,0.333-0.889,0.5-1.61,0.5c-0.776,0-1.326-0.174-1.648-0.522c-0.323-0.348-0.496-0.778-0.519-1.291H166.872z"/>
		<path fill="#312F81" d="M171.457,443.5h0.876v1.438h0.822v0.707h-0.822v3.363c0,0.179,0.061,0.3,0.183,0.36
			c0.067,0.035,0.18,0.053,0.337,0.053c0.042,0,0.086-0.001,0.135-0.003c0.048-0.002,0.104-0.008,0.168-0.016v0.688
			c-0.099,0.029-0.203,0.05-0.31,0.062s-0.224,0.02-0.349,0.02c-0.404,0-0.679-0.104-0.823-0.311
			c-0.145-0.207-0.217-0.476-0.217-0.806v-3.411h-0.697v-0.707h0.697V443.5z"/>
		<path fill="#312F81" d="M176.759,443.024h0.88v0.981h-0.88V443.024z M176.759,444.962h0.88v5.129h-0.88V444.962z"/>
		<path fill="#312F81" d="M178.948,444.939h0.823v0.73c0.244-0.301,0.501-0.518,0.774-0.649c0.272-0.131,0.576-0.197,0.909-0.197
			c0.731,0,1.225,0.256,1.482,0.766c0.141,0.278,0.211,0.678,0.211,1.197v3.306h-0.88v-3.247c0-0.314-0.046-0.568-0.139-0.761
			c-0.154-0.32-0.433-0.48-0.837-0.48c-0.205,0-0.374,0.021-0.505,0.062c-0.238,0.07-0.446,0.211-0.625,0.423
			c-0.145,0.17-0.238,0.346-0.282,0.527c-0.043,0.181-0.065,0.439-0.065,0.776v2.699h-0.866V444.939z"/>
		<path fill="#312F81" d="M184.854,444.939l1.376,4.195l1.434-4.195h0.948l-1.94,5.152h-0.923l-1.9-5.152H184.854z"/>
		<path fill="#312F81" d="M192.537,445.081c0.341,0.172,0.601,0.394,0.779,0.666c0.172,0.26,0.287,0.563,0.344,0.909
			c0.051,0.238,0.077,0.616,0.077,1.136h-3.748c0.016,0.524,0.139,0.945,0.368,1.262s0.584,0.476,1.064,0.476
			c0.449,0,0.807-0.15,1.074-0.45c0.149-0.174,0.255-0.375,0.318-0.604h0.852c-0.022,0.189-0.097,0.399-0.224,0.633
			c-0.127,0.232-0.268,0.422-0.424,0.569c-0.261,0.257-0.584,0.43-0.97,0.52c-0.207,0.052-0.441,0.077-0.702,0.077
			c-0.638,0-1.178-0.233-1.621-0.7c-0.443-0.466-0.665-1.12-0.665-1.96c0-0.828,0.223-1.5,0.669-2.016
			c0.446-0.517,1.029-0.775,1.75-0.775C191.844,444.823,192.196,444.909,192.537,445.081z M192.847,447.104
			c-0.035-0.376-0.116-0.676-0.243-0.9c-0.235-0.417-0.628-0.625-1.179-0.625c-0.394,0-0.725,0.144-0.992,0.431
			s-0.409,0.651-0.424,1.095H192.847z"/>
		<path fill="#312F81" d="M195.349,448.475c0.026,0.288,0.1,0.51,0.221,0.664c0.223,0.278,0.609,0.418,1.159,0.418
			c0.327,0,0.615-0.069,0.864-0.209c0.249-0.14,0.373-0.355,0.373-0.647c0-0.221-0.1-0.39-0.298-0.505
			c-0.127-0.07-0.378-0.152-0.753-0.245l-0.699-0.174c-0.446-0.108-0.776-0.23-0.988-0.365c-0.378-0.234-0.567-0.559-0.567-0.972
			c0-0.487,0.178-0.882,0.534-1.184s0.834-0.452,1.436-0.452c0.787,0,1.354,0.228,1.702,0.683c0.218,0.289,0.323,0.6,0.317,0.934
			h-0.818c-0.017-0.194-0.087-0.371-0.212-0.531c-0.203-0.227-0.556-0.34-1.059-0.34c-0.335,0-0.589,0.062-0.761,0.188
			c-0.172,0.124-0.258,0.289-0.258,0.493c0,0.224,0.113,0.403,0.34,0.537c0.13,0.08,0.323,0.15,0.578,0.212l0.583,0.139
			c0.634,0.151,1.059,0.297,1.274,0.438c0.337,0.221,0.505,0.569,0.505,1.044c0,0.458-0.176,0.854-0.529,1.188
			c-0.352,0.333-0.889,0.5-1.61,0.5c-0.776,0-1.326-0.174-1.648-0.522c-0.323-0.348-0.496-0.778-0.519-1.291H195.349z"/>
		<path fill="#312F81" d="M199.934,443.5h0.876v1.438h0.822v0.707h-0.822v3.363c0,0.179,0.061,0.3,0.183,0.36
			c0.067,0.035,0.18,0.053,0.337,0.053c0.042,0,0.086-0.001,0.135-0.003c0.048-0.002,0.104-0.008,0.168-0.016v0.688
			c-0.099,0.029-0.203,0.05-0.31,0.062s-0.224,0.02-0.349,0.02c-0.404,0-0.679-0.104-0.823-0.311
			c-0.145-0.207-0.217-0.476-0.217-0.806v-3.411h-0.697v-0.707h0.697V443.5z"/>
		<path fill="#312F81" d="M202.498,444.939h0.856v0.73c0.206-0.253,0.392-0.438,0.558-0.553c0.286-0.195,0.609-0.294,0.972-0.294
			c0.411,0,0.741,0.102,0.991,0.304c0.141,0.115,0.269,0.285,0.385,0.51c0.192-0.275,0.418-0.48,0.678-0.613s0.552-0.2,0.875-0.2
			c0.693,0,1.165,0.251,1.415,0.751c0.135,0.27,0.202,0.632,0.202,1.087v3.431h-0.9v-3.579c0-0.344-0.085-0.579-0.257-0.708
			c-0.171-0.128-0.381-0.192-0.628-0.192c-0.34,0-0.632,0.114-0.878,0.342c-0.245,0.228-0.368,0.608-0.368,1.141v2.997h-0.881
			v-3.363c0-0.35-0.042-0.604-0.125-0.765c-0.131-0.24-0.377-0.36-0.736-0.36c-0.327,0-0.625,0.126-0.893,0.38
			c-0.268,0.253-0.402,0.712-0.402,1.376v2.732h-0.866V444.939z"/>
		<path fill="#312F81" d="M213.889,445.081c0.341,0.172,0.601,0.394,0.779,0.666c0.172,0.26,0.287,0.563,0.344,0.909
			c0.051,0.238,0.077,0.616,0.077,1.136h-3.748c0.016,0.524,0.139,0.945,0.368,1.262s0.584,0.476,1.064,0.476
			c0.449,0,0.807-0.15,1.074-0.45c0.149-0.174,0.255-0.375,0.318-0.604h0.852c-0.022,0.189-0.097,0.399-0.224,0.633
			c-0.127,0.232-0.268,0.422-0.424,0.569c-0.261,0.257-0.584,0.43-0.97,0.52c-0.207,0.052-0.441,0.077-0.702,0.077
			c-0.638,0-1.178-0.233-1.621-0.7c-0.443-0.466-0.665-1.12-0.665-1.96c0-0.828,0.223-1.5,0.669-2.016
			c0.446-0.517,1.029-0.775,1.75-0.775C213.195,444.823,213.547,444.909,213.889,445.081z M214.199,447.104
			c-0.035-0.376-0.116-0.676-0.243-0.9c-0.235-0.417-0.628-0.625-1.179-0.625c-0.394,0-0.725,0.144-0.992,0.431
			s-0.409,0.651-0.424,1.095H214.199z"/>
		<path fill="#312F81" d="M216.186,444.939h0.823v0.73c0.244-0.301,0.501-0.518,0.774-0.649c0.272-0.131,0.576-0.197,0.909-0.197
			c0.731,0,1.225,0.256,1.482,0.766c0.141,0.278,0.211,0.678,0.211,1.197v3.306h-0.88v-3.247c0-0.314-0.046-0.568-0.139-0.761
			c-0.154-0.32-0.433-0.48-0.837-0.48c-0.205,0-0.374,0.021-0.505,0.062c-0.238,0.07-0.446,0.211-0.625,0.423
			c-0.145,0.17-0.238,0.346-0.282,0.527c-0.043,0.181-0.065,0.439-0.065,0.776v2.699h-0.866V444.939z"/>
		<path fill="#312F81" d="M221.838,443.5h0.876v1.438h0.822v0.707h-0.822v3.363c0,0.179,0.061,0.3,0.183,0.36
			c0.067,0.035,0.18,0.053,0.337,0.053c0.042,0,0.086-0.001,0.135-0.003c0.048-0.002,0.104-0.008,0.168-0.016v0.688
			c-0.099,0.029-0.203,0.05-0.31,0.062s-0.224,0.02-0.349,0.02c-0.404,0-0.679-0.104-0.823-0.311
			c-0.145-0.207-0.217-0.476-0.217-0.806v-3.411h-0.697v-0.707h0.697V443.5z"/>
	</g>
	<g>
		<path fill="#312F81" d="M263.997,410.266c0.195-0.465,0.657-0.957,1.385-1.478c0.632-0.452,1.041-0.775,1.227-0.972
			c0.286-0.305,0.428-0.638,0.428-1c0-0.296-0.082-0.541-0.246-0.736s-0.397-0.294-0.702-0.294c-0.417,0-0.701,0.156-0.852,0.467
			c-0.086,0.18-0.138,0.465-0.154,0.856h-1.333c0.022-0.593,0.13-1.073,0.323-1.438c0.366-0.696,1.016-1.044,1.951-1.044
			c0.738,0,1.326,0.204,1.763,0.613c0.437,0.409,0.655,0.95,0.655,1.624c0,0.517-0.154,0.975-0.463,1.376
			c-0.202,0.266-0.535,0.562-0.998,0.89l-0.55,0.39c-0.344,0.244-0.579,0.421-0.706,0.529c-0.127,0.109-0.233,0.236-0.32,0.38h3.045
			v1.208h-4.777C263.688,411.137,263.795,410.68,263.997,410.266z"/>
		<path fill="#312F81" d="M273.429,405.551c0.357,0.625,0.537,1.514,0.537,2.665s-0.179,2.038-0.537,2.661
			c-0.357,0.622-0.98,0.933-1.869,0.933c-0.888,0-1.511-0.311-1.869-0.933c-0.357-0.623-0.536-1.51-0.536-2.661
			s0.179-2.04,0.536-2.665c0.358-0.626,0.981-0.938,1.869-0.938C272.449,404.613,273.072,404.925,273.429,405.551z M270.752,410.057
			c0.131,0.425,0.401,0.637,0.808,0.637s0.674-0.212,0.801-0.637c0.126-0.426,0.19-1.039,0.19-1.841c0-0.84-0.063-1.462-0.19-1.866
			c-0.127-0.404-0.394-0.606-0.801-0.606s-0.677,0.202-0.808,0.606c-0.132,0.404-0.197,1.026-0.197,1.866
			C270.555,409.018,270.62,409.631,270.752,410.057z"/>
		<path fill="#312F81" d="M275.009,406.826v-0.933c0.432-0.02,0.734-0.049,0.907-0.087c0.275-0.061,0.499-0.183,0.672-0.365
			c0.118-0.126,0.208-0.292,0.269-0.501c0.035-0.125,0.053-0.218,0.053-0.279h1.145v6.977h-1.405v-4.812H275.009z"/>
		<path fill="#312F81" d="M284.959,410.136h-0.789v1.501h-1.342v-1.501h-2.762v-1.198l2.564-4.233h1.54v4.358h0.789V410.136z
			 M282.828,409.063v-3.005l-1.741,3.005H282.828z"/>
		<path fill="#312F81" d="M286.402,406.595h1.458v1.438h-1.458V406.595z M286.402,410.199h1.458v1.438h-1.458V410.199z"/>
		<path fill="#312F81" d="M292.055,404.57h0.958v6.226h3.546v0.842h-4.503V404.57z"/>
		<path fill="#312F81" d="M300.181,408.519c0.199-0.025,0.332-0.109,0.399-0.25c0.039-0.077,0.058-0.188,0.058-0.333
			c0-0.296-0.104-0.512-0.314-0.645c-0.209-0.134-0.51-0.201-0.9-0.201c-0.452,0-0.771,0.123-0.96,0.368
			c-0.105,0.135-0.174,0.337-0.207,0.604h-0.808c0.016-0.638,0.222-1.08,0.617-1.33c0.396-0.249,0.854-0.373,1.377-0.373
			c0.605,0,1.097,0.115,1.475,0.346c0.375,0.231,0.562,0.591,0.562,1.078v2.969c0,0.09,0.018,0.162,0.055,0.216
			c0.037,0.055,0.115,0.082,0.233,0.082c0.039,0,0.082-0.003,0.13-0.007c0.048-0.005,0.099-0.013,0.154-0.022v0.641
			c-0.135,0.038-0.237,0.062-0.308,0.072c-0.071,0.009-0.167,0.014-0.289,0.014c-0.298,0-0.515-0.105-0.649-0.317
			c-0.07-0.112-0.12-0.271-0.149-0.476c-0.177,0.23-0.43,0.431-0.76,0.601c-0.331,0.17-0.694,0.255-1.092,0.255
			c-0.478,0-0.868-0.145-1.171-0.435s-0.455-0.652-0.455-1.088c0-0.478,0.149-0.848,0.447-1.11s0.69-0.425,1.174-0.485
			L300.181,408.519z M298.358,410.858c0.183,0.145,0.399,0.217,0.649,0.217c0.305,0,0.6-0.071,0.885-0.212
			c0.481-0.233,0.722-0.616,0.722-1.147v-0.697c-0.105,0.068-0.242,0.124-0.408,0.169c-0.167,0.046-0.33,0.077-0.49,0.097
			l-0.523,0.067c-0.313,0.042-0.549,0.107-0.708,0.197c-0.268,0.15-0.402,0.39-0.402,0.72
			C298.083,410.517,298.175,410.714,298.358,410.858z"/>
		<path fill="#312F81" d="M303.766,406.485v3.42c0,0.264,0.041,0.479,0.122,0.646c0.15,0.308,0.429,0.462,0.838,0.462
			c0.587,0,0.987-0.27,1.2-0.809c0.116-0.289,0.173-0.685,0.173-1.188v-2.53h0.866v5.152h-0.818l0.01-0.76
			c-0.11,0.195-0.247,0.36-0.411,0.495c-0.324,0.27-0.718,0.404-1.18,0.404c-0.721,0-1.212-0.245-1.473-0.736
			c-0.142-0.263-0.212-0.614-0.212-1.054v-3.502H303.766z"/>
		<path fill="#312F81" d="M308.379,406.485h0.823v0.73c0.244-0.301,0.501-0.518,0.774-0.649c0.272-0.131,0.576-0.197,0.909-0.197
			c0.731,0,1.225,0.256,1.482,0.766c0.141,0.278,0.211,0.678,0.211,1.197v3.306h-0.88v-3.247c0-0.314-0.046-0.568-0.139-0.761
			c-0.154-0.32-0.433-0.48-0.837-0.48c-0.205,0-0.374,0.021-0.505,0.062c-0.238,0.07-0.446,0.211-0.625,0.423
			c-0.145,0.17-0.238,0.346-0.282,0.527c-0.043,0.181-0.065,0.439-0.065,0.776v2.699h-0.866V406.485z"/>
		<path fill="#312F81" d="M317.263,406.758c0.364,0.283,0.583,0.769,0.657,1.458h-0.842c-0.051-0.317-0.168-0.581-0.351-0.791
			c-0.183-0.21-0.476-0.315-0.88-0.315c-0.552,0-0.946,0.27-1.184,0.808c-0.154,0.349-0.231,0.78-0.231,1.292
			c0,0.517,0.109,0.95,0.327,1.303s0.562,0.528,1.03,0.528c0.359,0,0.644-0.109,0.854-0.328c0.21-0.219,0.355-0.519,0.435-0.898
			h0.842c-0.096,0.683-0.337,1.183-0.722,1.498c-0.385,0.316-0.877,0.475-1.477,0.475c-0.674,0-1.211-0.246-1.612-0.739
			c-0.401-0.492-0.602-1.106-0.602-1.845c0-0.904,0.22-1.608,0.659-2.112c0.439-0.503,0.999-0.755,1.679-0.755
			C316.427,406.335,316.899,406.476,317.263,406.758z"/>
		<path fill="#312F81" d="M318.786,404.545h0.866v2.637c0.205-0.26,0.39-0.442,0.553-0.549c0.279-0.183,0.627-0.273,1.044-0.273
			c0.748,0,1.254,0.261,1.521,0.784c0.145,0.285,0.216,0.682,0.216,1.188v3.306h-0.89v-3.247c0-0.379-0.048-0.656-0.145-0.833
			c-0.157-0.282-0.452-0.423-0.885-0.423c-0.359,0-0.685,0.123-0.977,0.37c-0.292,0.247-0.438,0.714-0.438,1.4v2.732h-0.866V404.545
			z"/>
		<path fill="#312F81" d="M330.737,406.999c0.455,0.442,0.683,1.093,0.683,1.952c0,0.83-0.201,1.516-0.602,2.057
			c-0.401,0.542-1.024,0.812-1.868,0.812c-0.704,0-1.263-0.239-1.677-0.719c-0.414-0.479-0.621-1.122-0.621-1.93
			c0-0.865,0.218-1.554,0.655-2.067c0.436-0.513,1.022-0.769,1.758-0.769C329.724,406.335,330.281,406.556,330.737,406.999z
			 M330.199,410.423c0.211-0.435,0.316-0.917,0.316-1.449c0-0.48-0.076-0.871-0.228-1.172c-0.241-0.475-0.657-0.712-1.247-0.712
			c-0.523,0-0.904,0.202-1.142,0.605c-0.238,0.404-0.357,0.891-0.357,1.461c0,0.548,0.119,1.005,0.357,1.37s0.615,0.548,1.132,0.548
			C329.599,411.075,329.988,410.857,330.199,410.423z"/>
		<path fill="#312F81" d="M333.349,406.485v3.42c0,0.264,0.041,0.479,0.122,0.646c0.15,0.308,0.429,0.462,0.838,0.462
			c0.587,0,0.987-0.27,1.2-0.809c0.116-0.289,0.173-0.685,0.173-1.188v-2.53h0.866v5.152h-0.818l0.01-0.76
			c-0.11,0.195-0.247,0.36-0.411,0.495c-0.324,0.27-0.718,0.404-1.18,0.404c-0.721,0-1.212-0.245-1.473-0.736
			c-0.142-0.263-0.212-0.614-0.212-1.054v-3.502H333.349z"/>
		<path fill="#312F81" d="M337.987,406.485h0.823v0.89c0.067-0.173,0.232-0.384,0.496-0.633c0.263-0.248,0.566-0.373,0.909-0.373
			c0.016,0,0.043,0.002,0.082,0.005c0.039,0.004,0.104,0.01,0.197,0.02v0.914c-0.051-0.01-0.099-0.016-0.142-0.02
			c-0.043-0.003-0.091-0.005-0.142-0.005c-0.436,0-0.771,0.141-1.005,0.422c-0.234,0.28-0.352,0.604-0.352,0.969v2.964h-0.866
			V406.485z"/>
		<path fill="#312F81" d="M344.385,404.912c0.202-0.295,0.592-0.443,1.169-0.443c0.054,0,0.11,0.002,0.168,0.005
			c0.058,0.004,0.124,0.009,0.197,0.015v0.789c-0.091-0.006-0.156-0.011-0.197-0.012c-0.041-0.002-0.079-0.003-0.114-0.003
			c-0.266,0-0.425,0.068-0.477,0.205c-0.052,0.136-0.078,0.483-0.078,1.041h0.866v0.684h-0.866v4.445h-0.856v-4.445h-0.717v-0.684
			h0.717v-0.808C344.21,405.341,344.273,405.078,344.385,404.912z"/>
		<path fill="#312F81" d="M346.719,404.57h0.88v0.981h-0.88V404.57z M346.719,406.508h0.88v5.129h-0.88V406.508z"/>
		<path fill="#312F81" d="M348.932,406.485h0.823v0.89c0.067-0.173,0.232-0.384,0.496-0.633c0.263-0.248,0.566-0.373,0.909-0.373
			c0.016,0,0.043,0.002,0.082,0.005c0.039,0.004,0.104,0.01,0.197,0.02v0.914c-0.051-0.01-0.099-0.016-0.142-0.02
			c-0.043-0.003-0.091-0.005-0.142-0.005c-0.436,0-0.771,0.141-1.005,0.422c-0.234,0.28-0.352,0.604-0.352,0.969v2.964h-0.866
			V406.485z"/>
		<path fill="#312F81" d="M352.704,410.021c0.026,0.288,0.1,0.51,0.221,0.664c0.223,0.278,0.609,0.418,1.159,0.418
			c0.327,0,0.615-0.069,0.864-0.209c0.249-0.14,0.373-0.355,0.373-0.647c0-0.221-0.1-0.39-0.298-0.505
			c-0.127-0.07-0.378-0.152-0.753-0.245l-0.699-0.174c-0.446-0.108-0.776-0.23-0.988-0.365c-0.378-0.234-0.567-0.559-0.567-0.972
			c0-0.487,0.178-0.882,0.534-1.184s0.834-0.452,1.436-0.452c0.787,0,1.354,0.228,1.702,0.683c0.218,0.289,0.323,0.6,0.317,0.934
			h-0.818c-0.017-0.194-0.087-0.371-0.212-0.531c-0.203-0.227-0.556-0.34-1.059-0.34c-0.335,0-0.589,0.062-0.761,0.188
			c-0.172,0.124-0.258,0.289-0.258,0.493c0,0.224,0.113,0.403,0.34,0.537c0.13,0.08,0.323,0.15,0.578,0.212l0.583,0.139
			c0.634,0.151,1.059,0.297,1.274,0.438c0.337,0.221,0.505,0.569,0.505,1.044c0,0.458-0.176,0.854-0.529,1.188
			c-0.352,0.333-0.889,0.5-1.61,0.5c-0.776,0-1.326-0.174-1.648-0.522c-0.323-0.348-0.496-0.778-0.519-1.291H352.704z"/>
		<path fill="#312F81" d="M357.289,405.046h0.876v1.438h0.822v0.707h-0.822v3.363c0,0.179,0.061,0.3,0.183,0.36
			c0.067,0.035,0.18,0.053,0.337,0.053c0.042,0,0.086-0.001,0.135-0.003c0.048-0.002,0.104-0.008,0.168-0.016v0.688
			c-0.099,0.029-0.203,0.05-0.31,0.062s-0.224,0.02-0.349,0.02c-0.404,0-0.679-0.104-0.823-0.311
			c-0.145-0.207-0.217-0.476-0.217-0.806v-3.411h-0.697v-0.707h0.697V405.046z"/>
		<path fill="#312F81" d="M362.519,406.508h0.847v0.684c0.174-0.234,0.363-0.415,0.569-0.544c0.292-0.192,0.637-0.288,1.032-0.288
			c0.585,0,1.082,0.224,1.49,0.671c0.409,0.447,0.613,1.086,0.613,1.917c0,1.123-0.295,1.925-0.884,2.405
			c-0.374,0.305-0.809,0.457-1.304,0.457c-0.39,0-0.716-0.085-0.98-0.255c-0.155-0.096-0.327-0.261-0.517-0.495v2.632h-0.866
			V406.508z M365.777,410.547c0.269-0.338,0.403-0.844,0.403-1.518c0-0.411-0.06-0.764-0.179-1.059
			c-0.225-0.567-0.637-0.852-1.236-0.852c-0.602,0-1.014,0.3-1.236,0.899c-0.119,0.321-0.179,0.729-0.179,1.223
			c0,0.397,0.06,0.735,0.179,1.015c0.225,0.532,0.637,0.799,1.236,0.799C365.171,411.055,365.508,410.886,365.777,410.547z"/>
		<path fill="#312F81" d="M368.095,406.485h0.823v0.89c0.067-0.173,0.232-0.384,0.496-0.633c0.263-0.248,0.566-0.373,0.909-0.373
			c0.016,0,0.043,0.002,0.082,0.005c0.039,0.004,0.104,0.01,0.197,0.02v0.914c-0.051-0.01-0.099-0.016-0.142-0.02
			c-0.043-0.003-0.091-0.005-0.142-0.005c-0.436,0-0.771,0.141-1.005,0.422c-0.234,0.28-0.352,0.604-0.352,0.969v2.964h-0.866
			V406.485z"/>
		<path fill="#312F81" d="M375.085,406.999c0.455,0.442,0.683,1.093,0.683,1.952c0,0.83-0.201,1.516-0.602,2.057
			c-0.401,0.542-1.024,0.812-1.868,0.812c-0.704,0-1.263-0.239-1.677-0.719c-0.414-0.479-0.621-1.122-0.621-1.93
			c0-0.865,0.218-1.554,0.655-2.067c0.436-0.513,1.022-0.769,1.758-0.769C374.072,406.335,374.63,406.556,375.085,406.999z
			 M374.547,410.423c0.211-0.435,0.316-0.917,0.316-1.449c0-0.48-0.076-0.871-0.228-1.172c-0.241-0.475-0.657-0.712-1.247-0.712
			c-0.523,0-0.904,0.202-1.142,0.605c-0.238,0.404-0.357,0.891-0.357,1.461c0,0.548,0.119,1.005,0.357,1.37s0.615,0.548,1.132,0.548
			C373.947,411.075,374.336,410.857,374.547,410.423z"/>
		<path fill="#312F81" d="M379.662,406.643c0.153,0.097,0.328,0.265,0.522,0.506v-2.604h0.833v7.092h-0.779v-0.717
			c-0.202,0.317-0.439,0.547-0.714,0.688c-0.275,0.142-0.589,0.212-0.944,0.212c-0.572,0-1.067-0.241-1.485-0.724
			c-0.419-0.483-0.628-1.125-0.628-1.927c0-0.751,0.191-1.401,0.573-1.951s0.927-0.825,1.637-0.825
			C379.068,406.393,379.397,406.476,379.662,406.643z M377.729,410.506c0.233,0.372,0.606,0.559,1.121,0.559
			c0.398,0,0.727-0.173,0.983-0.518s0.385-0.84,0.385-1.484c0-0.65-0.132-1.133-0.397-1.445c-0.265-0.312-0.592-0.469-0.981-0.469
			c-0.434,0-0.786,0.166-1.056,0.5s-0.404,0.824-0.404,1.472C377.38,409.672,377.496,410.134,377.729,410.506z"/>
		<path fill="#312F81" d="M383.177,406.485v3.42c0,0.264,0.041,0.479,0.122,0.646c0.15,0.308,0.429,0.462,0.838,0.462
			c0.587,0,0.987-0.27,1.2-0.809c0.116-0.289,0.173-0.685,0.173-1.188v-2.53h0.866v5.152h-0.818l0.01-0.76
			c-0.11,0.195-0.247,0.36-0.411,0.495c-0.324,0.27-0.718,0.404-1.18,0.404c-0.721,0-1.212-0.245-1.473-0.736
			c-0.142-0.263-0.212-0.614-0.212-1.054v-3.502H383.177z"/>
		<path fill="#312F81" d="M391.195,406.758c0.364,0.283,0.583,0.769,0.657,1.458h-0.842c-0.051-0.317-0.168-0.581-0.351-0.791
			c-0.183-0.21-0.476-0.315-0.88-0.315c-0.552,0-0.946,0.27-1.184,0.808c-0.154,0.349-0.231,0.78-0.231,1.292
			c0,0.517,0.109,0.95,0.327,1.303s0.562,0.528,1.03,0.528c0.359,0,0.644-0.109,0.854-0.328c0.21-0.219,0.355-0.519,0.435-0.898
			h0.842c-0.096,0.683-0.337,1.183-0.722,1.498c-0.385,0.316-0.877,0.475-1.477,0.475c-0.674,0-1.211-0.246-1.612-0.739
			c-0.401-0.492-0.602-1.106-0.602-1.845c0-0.904,0.22-1.608,0.659-2.112c0.439-0.503,0.999-0.755,1.679-0.755
			C390.359,406.335,390.831,406.476,391.195,406.758z"/>
		<path fill="#312F81" d="M392.891,405.046h0.876v1.438h0.822v0.707h-0.822v3.363c0,0.179,0.061,0.3,0.183,0.36
			c0.067,0.035,0.18,0.053,0.337,0.053c0.042,0,0.086-0.001,0.135-0.003c0.048-0.002,0.104-0.008,0.168-0.016v0.688
			c-0.099,0.029-0.203,0.05-0.31,0.062s-0.224,0.02-0.349,0.02c-0.404,0-0.679-0.104-0.823-0.311
			c-0.145-0.207-0.217-0.476-0.217-0.806v-3.411h-0.697v-0.707h0.697V405.046z"/>
		<path fill="#312F81" d="M291.468,416.394h1.372l2.032,5.976l2.018-5.976h1.362v7.067h-0.914v-4.171
			c0-0.145,0.003-0.384,0.009-0.717c0.006-0.334,0.01-0.691,0.01-1.073l-2.018,5.961h-0.949l-2.037-5.961v0.217
			c0,0.173,0.005,0.437,0.014,0.791c0.01,0.354,0.015,0.615,0.015,0.782v4.171h-0.914V416.394z"/>
		<path fill="#312F81" d="M301.762,416.394h1.081l2.565,7.067h-1.049l-0.738-2.117h-2.773l-0.767,2.117h-0.981L301.762,416.394z
			 M303.35,420.565l-1.088-3.122l-1.131,3.122H303.35z"/>
		<path fill="#312F81" d="M306.897,421.181c0.021,0.4,0.113,0.727,0.273,0.977c0.306,0.468,0.845,0.702,1.617,0.702
			c0.346,0,0.661-0.051,0.946-0.153c0.55-0.199,0.825-0.556,0.825-1.068c0-0.385-0.116-0.659-0.35-0.823
			c-0.236-0.16-0.606-0.3-1.109-0.418l-0.928-0.217c-0.606-0.141-1.035-0.297-1.286-0.467c-0.435-0.295-0.653-0.736-0.653-1.323
			c0-0.635,0.214-1.156,0.642-1.563s1.033-0.61,1.816-0.61c0.721,0,1.333,0.179,1.838,0.536c0.504,0.357,0.756,0.93,0.756,1.715
			h-0.899c-0.046-0.378-0.145-0.669-0.295-0.87c-0.28-0.369-0.755-0.554-1.425-0.554c-0.542,0-0.93,0.119-1.167,0.356
			s-0.355,0.513-0.355,0.827c0,0.347,0.14,0.6,0.419,0.76c0.183,0.103,0.598,0.231,1.245,0.385l0.96,0.227
			c0.463,0.109,0.821,0.258,1.072,0.447c0.435,0.33,0.653,0.81,0.653,1.438c0,0.783-0.278,1.343-0.833,1.68
			c-0.555,0.336-1.2,0.505-1.936,0.505c-0.857,0-1.528-0.225-2.013-0.674c-0.485-0.445-0.723-1.05-0.713-1.813H306.897z"/>
		<path fill="#312F81" d="M312.844,416.394h0.934v3.459l3.536-3.459h1.338l-3.02,2.853l3.082,4.215h-1.253l-2.532-3.552
			l-1.152,1.089v2.463h-0.934V416.394z"/>
		<path fill="#312F81" d="M325.237,417.404c0.468,0.626,0.703,1.426,0.703,2.401c0,1.055-0.268,1.933-0.804,2.632
			c-0.628,0.82-1.525,1.231-2.689,1.231c-1.087,0-1.942-0.359-2.564-1.078c-0.555-0.692-0.833-1.568-0.833-2.627
			c0-0.955,0.237-1.773,0.712-2.453c0.609-0.872,1.51-1.309,2.704-1.309C323.714,416.202,324.638,416.602,325.237,417.404z
			 M324.393,421.909c0.377-0.604,0.565-1.301,0.565-2.087c0-0.831-0.217-1.501-0.652-2.008s-1.029-0.761-1.783-0.761
			c-0.731,0-1.328,0.251-1.79,0.754c-0.462,0.502-0.693,1.242-0.693,2.222c0,0.783,0.198,1.443,0.594,1.981s1.038,0.807,1.927,0.807
			C323.406,422.817,324.016,422.514,324.393,421.909z"/>
		<path fill="#312F81" d="M332.901,417.404c0.468,0.626,0.703,1.426,0.703,2.401c0,1.055-0.268,1.933-0.804,2.632
			c-0.628,0.82-1.525,1.231-2.689,1.231c-1.087,0-1.942-0.359-2.564-1.078c-0.555-0.692-0.833-1.568-0.833-2.627
			c0-0.955,0.237-1.773,0.712-2.453c0.609-0.872,1.51-1.309,2.704-1.309C331.378,416.202,332.302,416.602,332.901,417.404z
			 M332.057,421.909c0.377-0.604,0.565-1.301,0.565-2.087c0-0.831-0.217-1.501-0.652-2.008s-1.029-0.761-1.783-0.761
			c-0.731,0-1.328,0.251-1.79,0.754c-0.462,0.502-0.693,1.242-0.693,2.222c0,0.783,0.198,1.443,0.594,1.981s1.038,0.807,1.927,0.807
			C331.07,422.817,331.68,422.514,332.057,421.909z"/>
		<path fill="#312F81" d="M334.744,416.394h0.958v6.226h3.546v0.842h-4.503V416.394z"/>
		<path fill="#312F81" d="M340.44,416.394h0.967v7.067h-0.967V416.394z"/>
		<path fill="#312F81" d="M342.961,416.394h1.128l3.524,5.71v-5.71h0.914v7.067h-1.076l-3.577-5.703v5.703h-0.914V416.394z"/>
	</g>
	<g>
		<path fill="#312F81" d="M406.67,369.261c0.195-0.465,0.657-0.957,1.385-1.478c0.632-0.452,1.041-0.775,1.227-0.972
			c0.286-0.305,0.428-0.638,0.428-1c0-0.296-0.082-0.541-0.246-0.736s-0.397-0.294-0.702-0.294c-0.417,0-0.701,0.156-0.852,0.467
			c-0.086,0.18-0.138,0.465-0.154,0.856h-1.333c0.022-0.593,0.13-1.073,0.323-1.438c0.366-0.696,1.016-1.044,1.951-1.044
			c0.738,0,1.326,0.204,1.763,0.613c0.437,0.409,0.655,0.95,0.655,1.624c0,0.517-0.154,0.975-0.463,1.376
			c-0.202,0.266-0.535,0.562-0.998,0.89l-0.55,0.39c-0.344,0.244-0.579,0.421-0.706,0.529c-0.127,0.109-0.233,0.236-0.32,0.38h3.045
			v1.208h-4.777C406.36,370.132,406.468,369.675,406.67,369.261z"/>
		<path fill="#312F81" d="M416.102,364.546c0.357,0.625,0.537,1.514,0.537,2.665s-0.179,2.038-0.537,2.661
			c-0.357,0.622-0.98,0.933-1.869,0.933c-0.888,0-1.511-0.311-1.869-0.933c-0.357-0.623-0.536-1.51-0.536-2.661
			s0.179-2.04,0.536-2.665c0.358-0.626,0.981-0.938,1.869-0.938C415.122,363.608,415.745,363.92,416.102,364.546z M413.425,369.052
			c0.131,0.425,0.401,0.637,0.808,0.637s0.674-0.212,0.801-0.637c0.126-0.426,0.19-1.039,0.19-1.841c0-0.84-0.063-1.462-0.19-1.866
			c-0.127-0.404-0.394-0.606-0.801-0.606s-0.677,0.202-0.808,0.606c-0.132,0.404-0.197,1.026-0.197,1.866
			C413.228,368.013,413.293,368.626,413.425,369.052z"/>
		<path fill="#312F81" d="M417.682,365.821v-0.933c0.432-0.02,0.734-0.049,0.907-0.087c0.275-0.061,0.499-0.183,0.672-0.365
			c0.118-0.126,0.208-0.292,0.269-0.501c0.035-0.125,0.053-0.218,0.053-0.279h1.145v6.977h-1.405v-4.812H417.682z"/>
		<path fill="#312F81" d="M424.105,368.765c0.055,0.299,0.158,0.529,0.312,0.69c0.153,0.162,0.377,0.243,0.672,0.243
			c0.339,0,0.598-0.119,0.774-0.358c0.178-0.238,0.267-0.539,0.267-0.902c0-0.355-0.083-0.656-0.249-0.901
			c-0.167-0.246-0.426-0.368-0.778-0.368c-0.166,0-0.31,0.021-0.432,0.062c-0.214,0.077-0.376,0.22-0.484,0.428l-1.229-0.058
			l0.489-3.854h3.839v1.164h-2.85l-0.249,1.525c0.211-0.138,0.376-0.229,0.494-0.274c0.199-0.073,0.44-0.11,0.726-0.11
			c0.577,0,1.08,0.194,1.509,0.582c0.43,0.388,0.644,0.952,0.644,1.693c0,0.645-0.206,1.221-0.619,1.728
			c-0.414,0.507-1.032,0.76-1.855,0.76c-0.663,0-1.208-0.178-1.635-0.534c-0.426-0.355-0.663-0.86-0.711-1.516H424.105z"/>
		<path fill="#312F81" d="M429.075,365.59h1.458v1.438h-1.458V365.59z M429.075,369.194h1.458v1.438h-1.458V369.194z"/>
		<path fill="#312F81" d="M434.653,369.083c0.214-0.439,0.63-0.839,1.249-1.198l0.924-0.534c0.413-0.24,0.703-0.446,0.87-0.616
			c0.264-0.267,0.395-0.572,0.395-0.916c0-0.401-0.12-0.721-0.36-0.957c-0.241-0.236-0.562-0.354-0.963-0.354
			c-0.593,0-1.004,0.226-1.231,0.676c-0.122,0.241-0.189,0.576-0.202,1.004h-0.88c0.01-0.6,0.12-1.089,0.332-1.468
			c0.375-0.667,1.037-1,1.986-1c0.789,0,1.366,0.213,1.729,0.64c0.364,0.427,0.547,0.901,0.547,1.424
			c0,0.552-0.194,1.023-0.583,1.414c-0.224,0.229-0.627,0.504-1.207,0.828l-0.659,0.365c-0.314,0.174-0.562,0.339-0.741,0.496
			c-0.32,0.278-0.522,0.588-0.605,0.928h3.762v0.818h-4.729C434.317,370.039,434.44,369.523,434.653,369.083z"/>
		<path fill="#312F81" d="M440.092,365.48h0.823v0.73c0.243-0.301,0.502-0.518,0.774-0.649c0.272-0.131,0.575-0.197,0.909-0.197
			c0.731,0,1.226,0.256,1.481,0.766c0.142,0.278,0.212,0.678,0.212,1.197v3.306h-0.88v-3.247c0-0.314-0.047-0.568-0.14-0.761
			c-0.154-0.32-0.434-0.48-0.837-0.48c-0.206,0-0.374,0.021-0.506,0.062c-0.237,0.07-0.445,0.211-0.625,0.423
			c-0.145,0.17-0.238,0.346-0.281,0.527c-0.044,0.181-0.065,0.439-0.065,0.776v2.699h-0.866V365.48z"/>
		<path fill="#312F81" d="M448.403,365.638c0.153,0.097,0.328,0.265,0.522,0.506v-2.604h0.832v7.092h-0.779v-0.717
			c-0.201,0.317-0.439,0.547-0.714,0.688c-0.274,0.142-0.59,0.212-0.944,0.212c-0.571,0-1.067-0.241-1.485-0.724
			c-0.419-0.483-0.628-1.125-0.628-1.927c0-0.751,0.19-1.401,0.572-1.951s0.928-0.825,1.637-0.825
			C447.81,365.388,448.139,365.471,448.403,365.638z M446.471,369.501c0.232,0.372,0.606,0.559,1.12,0.559
			c0.398,0,0.727-0.173,0.983-0.518s0.386-0.84,0.386-1.484c0-0.65-0.133-1.133-0.397-1.445s-0.592-0.469-0.981-0.469
			c-0.435,0-0.786,0.166-1.056,0.5s-0.404,0.824-0.404,1.472C446.121,368.667,446.237,369.129,446.471,369.501z"/>
		<path fill="#312F81" d="M453.789,363.565h0.881v0.981h-0.881V363.565z M453.789,365.503h0.881v5.129h-0.881V365.503z"/>
		<path fill="#312F81" d="M455.979,365.48h0.823v0.73c0.243-0.301,0.502-0.518,0.774-0.649c0.272-0.131,0.575-0.197,0.909-0.197
			c0.731,0,1.226,0.256,1.481,0.766c0.142,0.278,0.212,0.678,0.212,1.197v3.306h-0.88v-3.247c0-0.314-0.047-0.568-0.14-0.761
			c-0.154-0.32-0.434-0.48-0.837-0.48c-0.206,0-0.374,0.021-0.506,0.062c-0.237,0.07-0.445,0.211-0.625,0.423
			c-0.145,0.17-0.238,0.346-0.281,0.527c-0.044,0.181-0.065,0.439-0.065,0.776v2.699h-0.866V365.48z"/>
		<path fill="#312F81" d="M461.884,365.48l1.376,4.195l1.434-4.195h0.948l-1.939,5.152h-0.923l-1.9-5.152H461.884z"/>
		<path fill="#312F81" d="M469.567,365.622c0.342,0.172,0.602,0.394,0.779,0.666c0.173,0.26,0.287,0.563,0.345,0.909
			c0.051,0.238,0.076,0.616,0.076,1.136h-3.747c0.016,0.524,0.138,0.945,0.367,1.262s0.584,0.476,1.064,0.476
			c0.449,0,0.807-0.15,1.074-0.45c0.149-0.174,0.256-0.375,0.318-0.604h0.852c-0.023,0.189-0.098,0.399-0.225,0.633
			c-0.126,0.232-0.268,0.422-0.424,0.569c-0.261,0.257-0.584,0.43-0.969,0.52c-0.207,0.052-0.441,0.077-0.702,0.077
			c-0.638,0-1.178-0.233-1.621-0.7c-0.442-0.466-0.664-1.12-0.664-1.96c0-0.828,0.223-1.5,0.669-2.016
			c0.446-0.517,1.03-0.775,1.75-0.775C468.874,365.364,469.227,365.45,469.567,365.622z M469.878,367.645
			c-0.035-0.376-0.116-0.676-0.243-0.9c-0.235-0.417-0.628-0.625-1.179-0.625c-0.395,0-0.725,0.144-0.992,0.431
			c-0.267,0.287-0.408,0.651-0.425,1.095H469.878z"/>
		<path fill="#312F81" d="M472.379,369.016c0.026,0.288,0.101,0.51,0.222,0.664c0.223,0.278,0.608,0.418,1.158,0.418
			c0.328,0,0.616-0.069,0.864-0.209c0.249-0.14,0.374-0.355,0.374-0.647c0-0.221-0.1-0.39-0.299-0.505
			c-0.127-0.07-0.378-0.152-0.753-0.245l-0.699-0.174c-0.446-0.108-0.775-0.23-0.987-0.365c-0.378-0.234-0.567-0.559-0.567-0.972
			c0-0.487,0.178-0.882,0.534-1.184c0.355-0.302,0.834-0.452,1.436-0.452c0.786,0,1.354,0.228,1.701,0.683
			c0.218,0.289,0.324,0.6,0.317,0.934h-0.817c-0.017-0.194-0.088-0.371-0.212-0.531c-0.204-0.227-0.557-0.34-1.06-0.34
			c-0.335,0-0.588,0.062-0.761,0.188c-0.172,0.124-0.258,0.289-0.258,0.493c0,0.224,0.112,0.403,0.339,0.537
			c0.131,0.08,0.324,0.15,0.579,0.212l0.583,0.139c0.634,0.151,1.059,0.297,1.274,0.438c0.337,0.221,0.505,0.569,0.505,1.044
			c0,0.458-0.176,0.854-0.528,1.188c-0.353,0.333-0.889,0.5-1.609,0.5c-0.776,0-1.326-0.174-1.649-0.522
			c-0.322-0.348-0.496-0.778-0.519-1.291H472.379z"/>
		<path fill="#312F81" d="M476.965,364.042h0.875v1.438h0.823v0.707h-0.823v3.363c0,0.179,0.062,0.3,0.184,0.36
			c0.066,0.035,0.179,0.053,0.336,0.053c0.042,0,0.087-0.001,0.135-0.003c0.049-0.002,0.104-0.008,0.169-0.016v0.688
			c-0.1,0.029-0.203,0.05-0.311,0.062s-0.224,0.02-0.349,0.02c-0.404,0-0.679-0.104-0.823-0.311
			c-0.144-0.207-0.216-0.476-0.216-0.806v-3.411h-0.698v-0.707h0.698V364.042z"/>
		<path fill="#312F81" d="M479.528,365.48h0.856v0.73c0.205-0.253,0.392-0.438,0.559-0.553c0.285-0.195,0.609-0.294,0.972-0.294
			c0.41,0,0.741,0.102,0.991,0.304c0.141,0.115,0.27,0.285,0.385,0.51c0.192-0.275,0.418-0.48,0.679-0.613
			c0.26-0.133,0.551-0.2,0.875-0.2c0.693,0,1.164,0.251,1.415,0.751c0.135,0.27,0.201,0.632,0.201,1.087v3.431h-0.899v-3.579
			c0-0.344-0.086-0.579-0.257-0.708c-0.172-0.128-0.381-0.192-0.628-0.192c-0.34,0-0.633,0.114-0.878,0.342
			c-0.246,0.228-0.368,0.608-0.368,1.141v2.997h-0.881v-3.363c0-0.35-0.042-0.604-0.125-0.765c-0.132-0.24-0.377-0.36-0.736-0.36
			c-0.327,0-0.624,0.126-0.893,0.38c-0.268,0.253-0.401,0.712-0.401,1.376v2.732h-0.866V365.48z"/>
		<path fill="#312F81" d="M490.919,365.622c0.342,0.172,0.602,0.394,0.779,0.666c0.173,0.26,0.287,0.563,0.345,0.909
			c0.051,0.238,0.076,0.616,0.076,1.136h-3.747c0.016,0.524,0.138,0.945,0.367,1.262s0.584,0.476,1.064,0.476
			c0.449,0,0.807-0.15,1.074-0.45c0.149-0.174,0.256-0.375,0.318-0.604h0.852c-0.023,0.189-0.098,0.399-0.225,0.633
			c-0.126,0.232-0.268,0.422-0.424,0.569c-0.261,0.257-0.584,0.43-0.969,0.52c-0.207,0.052-0.441,0.077-0.702,0.077
			c-0.638,0-1.178-0.233-1.621-0.7c-0.442-0.466-0.664-1.12-0.664-1.96c0-0.828,0.223-1.5,0.669-2.016
			c0.446-0.517,1.03-0.775,1.75-0.775C490.226,365.364,490.578,365.45,490.919,365.622z M491.229,367.645
			c-0.035-0.376-0.116-0.676-0.243-0.9c-0.235-0.417-0.628-0.625-1.179-0.625c-0.395,0-0.725,0.144-0.992,0.431
			c-0.267,0.287-0.408,0.651-0.425,1.095H491.229z"/>
		<path fill="#312F81" d="M493.217,365.48h0.823v0.73c0.243-0.301,0.502-0.518,0.774-0.649c0.272-0.131,0.575-0.197,0.909-0.197
			c0.731,0,1.226,0.256,1.481,0.766c0.142,0.278,0.212,0.678,0.212,1.197v3.306h-0.88v-3.247c0-0.314-0.047-0.568-0.14-0.761
			c-0.154-0.32-0.434-0.48-0.837-0.48c-0.206,0-0.374,0.021-0.506,0.062c-0.237,0.07-0.445,0.211-0.625,0.423
			c-0.145,0.17-0.238,0.346-0.281,0.527c-0.044,0.181-0.065,0.439-0.065,0.776v2.699h-0.866V365.48z"/>
		<path fill="#312F81" d="M498.87,364.042h0.875v1.438h0.823v0.707h-0.823v3.363c0,0.179,0.062,0.3,0.184,0.36
			c0.066,0.035,0.179,0.053,0.336,0.053c0.042,0,0.087-0.001,0.135-0.003c0.049-0.002,0.104-0.008,0.169-0.016v0.688
			c-0.1,0.029-0.203,0.05-0.311,0.062s-0.224,0.02-0.349,0.02c-0.404,0-0.679-0.104-0.823-0.311
			c-0.144-0.207-0.216-0.476-0.216-0.806v-3.411h-0.698v-0.707h0.698V364.042z"/>
	</g>
	<g>
		<path fill="#312F81" d="M535.308,311.237c0.196-0.465,0.658-0.957,1.386-1.478c0.632-0.452,1.041-0.775,1.228-0.972
			c0.285-0.305,0.428-0.638,0.428-1c0-0.296-0.082-0.541-0.245-0.736c-0.164-0.195-0.398-0.294-0.703-0.294
			c-0.417,0-0.7,0.156-0.852,0.467c-0.086,0.18-0.138,0.465-0.153,0.856h-1.333c0.022-0.593,0.13-1.073,0.323-1.438
			c0.365-0.696,1.016-1.044,1.95-1.044c0.738,0,1.326,0.204,1.763,0.613s0.655,0.95,0.655,1.624c0,0.517-0.154,0.975-0.463,1.376
			c-0.203,0.266-0.535,0.562-0.998,0.89l-0.55,0.39c-0.344,0.244-0.579,0.421-0.706,0.529c-0.126,0.109-0.232,0.236-0.319,0.38
			h3.045v1.208h-4.777C534.998,312.108,535.105,311.651,535.308,311.237z"/>
		<path fill="#312F81" d="M544.74,306.522c0.357,0.625,0.536,1.514,0.536,2.665s-0.179,2.038-0.536,2.661
			c-0.358,0.622-0.981,0.933-1.869,0.933c-0.889,0-1.512-0.311-1.869-0.933c-0.358-0.623-0.537-1.51-0.537-2.661
			s0.179-2.04,0.537-2.665c0.357-0.626,0.98-0.938,1.869-0.938C543.759,305.583,544.382,305.896,544.74,306.522z M542.062,311.028
			c0.132,0.425,0.4,0.637,0.809,0.637c0.407,0,0.674-0.212,0.801-0.637c0.127-0.426,0.189-1.039,0.189-1.841
			c0-0.84-0.062-1.462-0.189-1.866s-0.394-0.606-0.801-0.606c-0.408,0-0.677,0.202-0.809,0.606s-0.197,1.026-0.197,1.866
			C541.865,309.989,541.931,310.602,542.062,311.028z"/>
		<path fill="#312F81" d="M546.321,307.796v-0.933c0.432-0.02,0.733-0.049,0.906-0.087c0.275-0.061,0.499-0.183,0.672-0.365
			c0.118-0.126,0.208-0.292,0.27-0.501c0.035-0.125,0.053-0.218,0.053-0.279h1.145v6.977h-1.404v-4.812H546.321z"/>
		<path fill="#312F81" d="M554.73,307.388c0-0.112-0.043-0.236-0.13-0.371c-0.147-0.218-0.371-0.327-0.669-0.327
			c-0.446,0-0.764,0.251-0.952,0.751c-0.104,0.275-0.174,0.683-0.212,1.222c0.17-0.202,0.367-0.35,0.592-0.442s0.48-0.14,0.77-0.14
			c0.619,0,1.127,0.21,1.522,0.63c0.396,0.421,0.595,0.958,0.595,1.612c0,0.651-0.194,1.226-0.582,1.723
			c-0.389,0.497-0.991,0.745-1.81,0.745c-0.879,0-1.526-0.367-1.943-1.102c-0.324-0.574-0.486-1.315-0.486-2.223
			c0-0.532,0.022-0.966,0.067-1.299c0.08-0.594,0.236-1.088,0.467-1.482c0.199-0.336,0.46-0.607,0.782-0.812
			s0.708-0.308,1.157-0.308c0.647,0,1.164,0.165,1.549,0.497s0.602,0.774,0.649,1.326H554.73z M553.104,311.319
			c0.202,0.237,0.458,0.355,0.77,0.355c0.305,0,0.544-0.114,0.719-0.344s0.263-0.526,0.263-0.893c0-0.407-0.1-0.719-0.299-0.936
			c-0.198-0.217-0.442-0.325-0.73-0.325c-0.234,0-0.441,0.071-0.621,0.212c-0.27,0.209-0.404,0.546-0.404,1.011
			C552.801,310.775,552.902,311.082,553.104,311.319z"/>
		<path fill="#312F81" d="M557.713,307.566h1.458v1.438h-1.458V307.566z M557.713,311.169h1.458v1.438h-1.458V311.169z"/>
		<path fill="#312F81" d="M563.41,305.541h2.825c0.959,0,1.702,0.345,2.231,1.034c0.471,0.622,0.707,1.419,0.707,2.392
			c0,0.75-0.14,1.429-0.418,2.035c-0.49,1.071-1.334,1.606-2.53,1.606h-2.815V305.541z M566.047,311.79
			c0.317,0,0.577-0.033,0.781-0.101c0.363-0.125,0.661-0.365,0.894-0.722c0.186-0.285,0.318-0.651,0.4-1.097
			c0.047-0.267,0.07-0.514,0.07-0.741c0-0.876-0.17-1.556-0.511-2.04c-0.34-0.484-0.888-0.727-1.644-0.727h-1.661v5.427H566.047z"/>
		<path fill="#312F81" d="M574.1,307.969c0.456,0.442,0.684,1.093,0.684,1.952c0,0.83-0.201,1.516-0.603,2.057
			c-0.4,0.542-1.023,0.812-1.867,0.812c-0.704,0-1.263-0.239-1.677-0.719c-0.414-0.479-0.621-1.122-0.621-1.93
			c0-0.865,0.218-1.554,0.654-2.067c0.437-0.513,1.022-0.769,1.758-0.769C573.087,307.306,573.645,307.527,574.1,307.969z
			 M573.562,311.394c0.211-0.435,0.316-0.917,0.316-1.449c0-0.48-0.076-0.871-0.229-1.172c-0.241-0.475-0.656-0.712-1.246-0.712
			c-0.523,0-0.904,0.202-1.143,0.605c-0.237,0.404-0.356,0.891-0.356,1.461c0,0.548,0.119,1.005,0.356,1.37
			c0.238,0.365,0.615,0.548,1.133,0.548C572.962,312.045,573.352,311.828,573.562,311.394z"/>
		<path fill="#312F81" d="M576.712,307.456v3.42c0,0.264,0.041,0.479,0.122,0.646c0.149,0.308,0.43,0.462,0.839,0.462
			c0.587,0,0.986-0.27,1.199-0.809c0.115-0.289,0.173-0.685,0.173-1.188v-2.53h0.866v5.152h-0.817l0.01-0.76
			c-0.11,0.195-0.248,0.36-0.411,0.495c-0.324,0.27-0.718,0.404-1.181,0.404c-0.721,0-1.211-0.245-1.473-0.736
			c-0.142-0.263-0.212-0.614-0.212-1.054v-3.502H576.712z"/>
		<path fill="#312F81" d="M581.254,305.516h0.843v2.564c0.189-0.247,0.417-0.436,0.681-0.565s0.551-0.194,0.859-0.194
			c0.645,0,1.167,0.221,1.567,0.661c0.401,0.441,0.602,1.092,0.602,1.951c0,0.814-0.198,1.491-0.594,2.03
			c-0.396,0.539-0.945,0.809-1.647,0.809c-0.393,0-0.725-0.095-0.995-0.284c-0.161-0.112-0.333-0.292-0.517-0.539v0.659h-0.799
			V305.516z M584.565,311.449c0.233-0.372,0.351-0.863,0.351-1.473c0-0.542-0.117-0.991-0.351-1.347
			c-0.233-0.356-0.577-0.534-1.03-0.534c-0.396,0-0.743,0.146-1.04,0.438c-0.298,0.292-0.447,0.773-0.447,1.443
			c0,0.484,0.062,0.877,0.184,1.179c0.229,0.568,0.655,0.852,1.279,0.852C583.98,312.006,584.332,311.821,584.565,311.449z"/>
		<path fill="#312F81" d="M586.83,305.541h0.866v7.067h-0.866V305.541z"/>
		<path fill="#312F81" d="M592.178,307.597c0.342,0.172,0.602,0.394,0.779,0.666c0.173,0.26,0.287,0.563,0.345,0.909
			c0.051,0.238,0.076,0.616,0.076,1.136h-3.747c0.016,0.524,0.138,0.945,0.367,1.262s0.584,0.476,1.064,0.476
			c0.449,0,0.807-0.15,1.074-0.45c0.149-0.174,0.256-0.375,0.318-0.604h0.852c-0.023,0.189-0.098,0.399-0.225,0.633
			c-0.126,0.232-0.268,0.422-0.424,0.569c-0.261,0.257-0.584,0.43-0.969,0.52c-0.207,0.052-0.441,0.077-0.702,0.077
			c-0.638,0-1.178-0.233-1.621-0.7c-0.442-0.466-0.664-1.12-0.664-1.96c0-0.828,0.223-1.5,0.669-2.016
			c0.446-0.517,1.03-0.775,1.75-0.775C591.484,307.339,591.837,307.425,592.178,307.597z M592.488,309.621
			c-0.035-0.376-0.116-0.676-0.243-0.9c-0.235-0.417-0.628-0.625-1.179-0.625c-0.395,0-0.725,0.144-0.992,0.431
			c-0.267,0.287-0.408,0.651-0.425,1.095H592.488z"/>
		<path fill="#312F81" d="M597.386,306.017h0.875v1.438h0.823v0.707h-0.823v3.363c0,0.179,0.062,0.3,0.184,0.36
			c0.066,0.035,0.179,0.053,0.336,0.053c0.042,0,0.087-0.001,0.135-0.003c0.049-0.002,0.104-0.008,0.169-0.016v0.688
			c-0.1,0.029-0.203,0.05-0.311,0.062s-0.224,0.02-0.349,0.02c-0.404,0-0.679-0.104-0.823-0.311
			c-0.144-0.207-0.216-0.476-0.216-0.806v-3.411h-0.698v-0.707h0.698V306.017z"/>
		<path fill="#312F81" d="M599.949,305.516h0.866v2.637c0.205-0.26,0.39-0.442,0.554-0.549c0.278-0.183,0.627-0.273,1.044-0.273
			c0.747,0,1.254,0.261,1.521,0.784c0.144,0.285,0.216,0.682,0.216,1.188v3.306h-0.89v-3.247c0-0.379-0.048-0.656-0.145-0.833
			c-0.157-0.282-0.452-0.423-0.885-0.423c-0.359,0-0.686,0.123-0.978,0.37c-0.291,0.247-0.438,0.714-0.438,1.4v2.732h-0.866V305.516
			z"/>
		<path fill="#312F81" d="M608.612,307.597c0.342,0.172,0.602,0.394,0.779,0.666c0.173,0.26,0.287,0.563,0.345,0.909
			c0.051,0.238,0.076,0.616,0.076,1.136h-3.747c0.016,0.524,0.138,0.945,0.367,1.262s0.584,0.476,1.064,0.476
			c0.449,0,0.807-0.15,1.074-0.45c0.149-0.174,0.256-0.375,0.318-0.604h0.852c-0.023,0.189-0.098,0.399-0.225,0.633
			c-0.126,0.232-0.268,0.422-0.424,0.569c-0.261,0.257-0.584,0.43-0.969,0.52c-0.207,0.052-0.441,0.077-0.702,0.077
			c-0.638,0-1.178-0.233-1.621-0.7c-0.442-0.466-0.664-1.12-0.664-1.96c0-0.828,0.223-1.5,0.669-2.016
			c0.446-0.517,1.03-0.775,1.75-0.775C607.919,307.339,608.271,307.425,608.612,307.597z M608.923,309.621
			c-0.035-0.376-0.116-0.676-0.243-0.9c-0.235-0.417-0.628-0.625-1.179-0.625c-0.395,0-0.725,0.144-0.992,0.431
			c-0.267,0.287-0.408,0.651-0.425,1.095H608.923z"/>
		<path fill="#312F81" d="M616.829,307.597c0.342,0.172,0.602,0.394,0.779,0.666c0.173,0.26,0.287,0.563,0.345,0.909
			c0.051,0.238,0.076,0.616,0.076,1.136h-3.747c0.016,0.524,0.138,0.945,0.367,1.262s0.584,0.476,1.064,0.476
			c0.449,0,0.807-0.15,1.074-0.45c0.149-0.174,0.256-0.375,0.318-0.604h0.852c-0.023,0.189-0.098,0.399-0.225,0.633
			c-0.126,0.232-0.268,0.422-0.424,0.569c-0.261,0.257-0.584,0.43-0.969,0.52c-0.207,0.052-0.441,0.077-0.702,0.077
			c-0.638,0-1.178-0.233-1.621-0.7c-0.442-0.466-0.664-1.12-0.664-1.96c0-0.828,0.223-1.5,0.669-2.016
			c0.446-0.517,1.03-0.775,1.75-0.775C616.136,307.339,616.488,307.425,616.829,307.597z M617.14,309.621
			c-0.035-0.376-0.116-0.676-0.243-0.9c-0.235-0.417-0.628-0.625-1.179-0.625c-0.395,0-0.725,0.144-0.992,0.431
			c-0.267,0.287-0.408,0.651-0.425,1.095H617.14z"/>
		<path fill="#312F81" d="M619.127,307.456h0.856v0.73c0.205-0.253,0.392-0.438,0.559-0.553c0.285-0.195,0.609-0.294,0.972-0.294
			c0.41,0,0.741,0.102,0.991,0.304c0.141,0.115,0.27,0.285,0.385,0.51c0.192-0.275,0.418-0.48,0.679-0.613
			c0.26-0.133,0.551-0.2,0.875-0.2c0.693,0,1.164,0.251,1.415,0.751c0.135,0.27,0.201,0.632,0.201,1.087v3.431h-0.899v-3.579
			c0-0.344-0.086-0.579-0.257-0.708c-0.172-0.128-0.381-0.192-0.628-0.192c-0.34,0-0.633,0.114-0.878,0.342
			c-0.246,0.228-0.368,0.608-0.368,1.141v2.997h-0.881v-3.363c0-0.35-0.042-0.604-0.125-0.765c-0.132-0.24-0.377-0.36-0.736-0.36
			c-0.327,0-0.624,0.126-0.893,0.38c-0.268,0.253-0.401,0.712-0.401,1.376v2.732h-0.866V307.456z"/>
		<path fill="#312F81" d="M627.262,307.479h0.847v0.684c0.174-0.234,0.364-0.415,0.569-0.544c0.293-0.192,0.637-0.288,1.032-0.288
			c0.586,0,1.082,0.224,1.491,0.671c0.408,0.447,0.612,1.086,0.612,1.917c0,1.123-0.295,1.925-0.884,2.405
			c-0.374,0.305-0.809,0.457-1.305,0.457c-0.39,0-0.716-0.085-0.98-0.255c-0.154-0.096-0.326-0.261-0.517-0.495v2.632h-0.866
			V307.479z M630.521,311.518c0.269-0.338,0.403-0.844,0.403-1.518c0-0.411-0.06-0.764-0.179-1.059
			c-0.226-0.567-0.638-0.852-1.236-0.852c-0.602,0-1.014,0.3-1.235,0.899c-0.119,0.321-0.179,0.729-0.179,1.223
			c0,0.397,0.06,0.735,0.179,1.015c0.225,0.532,0.637,0.799,1.235,0.799C629.914,312.026,630.252,311.857,630.521,311.518z"/>
		<path fill="#312F81" d="M632.839,305.541h0.866v7.067h-0.866V305.541z"/>
		<path fill="#312F81" d="M638.736,307.969c0.456,0.442,0.684,1.093,0.684,1.952c0,0.83-0.201,1.516-0.603,2.057
			c-0.4,0.542-1.023,0.812-1.867,0.812c-0.704,0-1.263-0.239-1.677-0.719c-0.414-0.479-0.621-1.122-0.621-1.93
			c0-0.865,0.218-1.554,0.654-2.067c0.437-0.513,1.022-0.769,1.758-0.769C637.724,307.306,638.281,307.527,638.736,307.969z
			 M638.199,311.394c0.211-0.435,0.316-0.917,0.316-1.449c0-0.48-0.076-0.871-0.229-1.172c-0.241-0.475-0.656-0.712-1.246-0.712
			c-0.523,0-0.904,0.202-1.143,0.605c-0.237,0.404-0.356,0.891-0.356,1.461c0,0.548,0.119,1.005,0.356,1.37
			c0.238,0.365,0.615,0.548,1.133,0.548C637.599,312.045,637.988,311.828,638.199,311.394z"/>
		<path fill="#312F81" d="M643.705,307.456h0.957c-0.122,0.33-0.393,1.084-0.813,2.262c-0.313,0.886-0.577,1.607-0.789,2.166
			c-0.499,1.314-0.852,2.115-1.057,2.404c-0.205,0.288-0.558,0.433-1.058,0.433c-0.122,0-0.216-0.005-0.281-0.015
			s-0.146-0.027-0.243-0.053v-0.789c0.15,0.041,0.26,0.067,0.327,0.077c0.066,0.01,0.126,0.014,0.178,0.014
			c0.16,0,0.277-0.026,0.353-0.079s0.139-0.117,0.189-0.194c0.017-0.025,0.074-0.156,0.173-0.394c0.1-0.237,0.172-0.413,0.217-0.528
			l-1.905-5.304h0.981l1.381,4.197L643.705,307.456z"/>
		<path fill="#312F81" d="M648.592,307.597c0.342,0.172,0.602,0.394,0.779,0.666c0.173,0.26,0.287,0.563,0.345,0.909
			c0.051,0.238,0.076,0.616,0.076,1.136h-3.747c0.016,0.524,0.138,0.945,0.367,1.262s0.584,0.476,1.064,0.476
			c0.449,0,0.807-0.15,1.074-0.45c0.149-0.174,0.256-0.375,0.318-0.604h0.852c-0.023,0.189-0.098,0.399-0.225,0.633
			c-0.126,0.232-0.268,0.422-0.424,0.569c-0.261,0.257-0.584,0.43-0.969,0.52c-0.207,0.052-0.441,0.077-0.702,0.077
			c-0.638,0-1.178-0.233-1.621-0.7c-0.442-0.466-0.664-1.12-0.664-1.96c0-0.828,0.223-1.5,0.669-2.016
			c0.446-0.517,1.03-0.775,1.75-0.775C647.898,307.339,648.251,307.425,648.592,307.597z M648.902,309.621
			c-0.035-0.376-0.116-0.676-0.243-0.9c-0.235-0.417-0.628-0.625-1.179-0.625c-0.395,0-0.725,0.144-0.992,0.431
			c-0.267,0.287-0.408,0.651-0.425,1.095H648.902z"/>
		<path fill="#312F81" d="M654.072,307.597c0.342,0.172,0.602,0.394,0.779,0.666c0.173,0.26,0.287,0.563,0.345,0.909
			c0.051,0.238,0.076,0.616,0.076,1.136h-3.747c0.016,0.524,0.138,0.945,0.367,1.262s0.584,0.476,1.064,0.476
			c0.449,0,0.807-0.15,1.074-0.45c0.149-0.174,0.256-0.375,0.318-0.604h0.852c-0.023,0.189-0.098,0.399-0.225,0.633
			c-0.126,0.232-0.268,0.422-0.424,0.569c-0.261,0.257-0.584,0.43-0.969,0.52c-0.207,0.052-0.441,0.077-0.702,0.077
			c-0.638,0-1.178-0.233-1.621-0.7c-0.442-0.466-0.664-1.12-0.664-1.96c0-0.828,0.223-1.5,0.669-2.016
			c0.446-0.517,1.03-0.775,1.75-0.775C653.379,307.339,653.731,307.425,654.072,307.597z M654.383,309.621
			c-0.035-0.376-0.116-0.676-0.243-0.9c-0.235-0.417-0.628-0.625-1.179-0.625c-0.395,0-0.725,0.144-0.992,0.431
			c-0.267,0.287-0.408,0.651-0.425,1.095H654.383z"/>
	</g>
	<g>
		<path fill="#312F81" d="M655.704,201.21c0.196-0.465,0.658-0.957,1.386-1.478c0.632-0.452,1.041-0.775,1.228-0.972
			c0.285-0.305,0.428-0.638,0.428-1c0-0.296-0.082-0.541-0.245-0.736c-0.164-0.195-0.398-0.294-0.703-0.294
			c-0.417,0-0.7,0.156-0.852,0.467c-0.086,0.18-0.138,0.465-0.153,0.856h-1.333c0.022-0.593,0.13-1.073,0.323-1.438
			c0.365-0.696,1.016-1.044,1.95-1.044c0.738,0,1.326,0.204,1.763,0.613s0.655,0.95,0.655,1.624c0,0.517-0.154,0.975-0.463,1.376
			c-0.203,0.266-0.535,0.562-0.998,0.89l-0.55,0.39c-0.344,0.244-0.579,0.421-0.706,0.529c-0.126,0.109-0.232,0.236-0.319,0.38
			h3.045v1.208h-4.777C655.395,202.082,655.502,201.625,655.704,201.21z"/>
		<path fill="#312F81" d="M665.137,196.496c0.357,0.625,0.536,1.514,0.536,2.665s-0.179,2.038-0.536,2.661
			c-0.358,0.622-0.981,0.933-1.869,0.933c-0.889,0-1.512-0.311-1.869-0.933c-0.358-0.623-0.537-1.51-0.537-2.661
			s0.179-2.04,0.537-2.665c0.357-0.626,0.98-0.938,1.869-0.938C664.155,195.557,664.778,195.87,665.137,196.496z M662.459,201.001
			c0.132,0.425,0.4,0.637,0.809,0.637c0.407,0,0.674-0.212,0.801-0.637c0.127-0.426,0.189-1.039,0.189-1.841
			c0-0.84-0.062-1.462-0.189-1.866s-0.394-0.606-0.801-0.606c-0.408,0-0.677,0.202-0.809,0.606s-0.197,1.026-0.197,1.866
			C662.262,199.962,662.327,200.576,662.459,201.001z"/>
		<path fill="#312F81" d="M666.718,197.77v-0.933c0.432-0.02,0.733-0.049,0.906-0.087c0.275-0.061,0.499-0.183,0.672-0.365
			c0.118-0.126,0.208-0.292,0.27-0.501c0.035-0.125,0.053-0.218,0.053-0.279h1.145v6.977h-1.404v-4.812H666.718z"/>
		<path fill="#312F81" d="M676.71,196.77c-0.206,0.202-0.492,0.562-0.858,1.08c-0.366,0.518-0.673,1.053-0.921,1.604
			c-0.195,0.433-0.372,0.962-0.53,1.587c-0.157,0.626-0.235,1.139-0.235,1.54h-1.425c0.042-1.251,0.453-2.552,1.232-3.901
			c0.505-0.838,0.927-1.421,1.267-1.752h-3.476l0.02-1.231h4.927V196.77z"/>
		<path fill="#312F81" d="M678.109,197.54h1.458v1.438h-1.458V197.54z M678.109,201.143h1.458v1.438h-1.458V201.143z"/>
		<path fill="#312F81" d="M683.764,195.514h0.957v6.226h3.546v0.842h-4.503V195.514z"/>
		<path fill="#312F81" d="M691.889,199.463c0.199-0.025,0.332-0.109,0.399-0.25c0.038-0.077,0.058-0.188,0.058-0.333
			c0-0.296-0.104-0.512-0.314-0.645c-0.21-0.134-0.51-0.201-0.9-0.201c-0.451,0-0.771,0.123-0.96,0.368
			c-0.105,0.135-0.175,0.337-0.206,0.604h-0.809c0.016-0.638,0.222-1.08,0.617-1.33c0.396-0.249,0.854-0.373,1.377-0.373
			c0.605,0,1.097,0.115,1.476,0.346c0.374,0.231,0.562,0.591,0.562,1.078v2.969c0,0.09,0.019,0.162,0.056,0.216
			c0.037,0.055,0.114,0.082,0.233,0.082c0.038,0,0.082-0.003,0.13-0.007c0.048-0.005,0.1-0.013,0.154-0.022v0.641
			c-0.135,0.038-0.238,0.062-0.309,0.072c-0.07,0.009-0.167,0.014-0.288,0.014c-0.299,0-0.515-0.105-0.649-0.317
			c-0.071-0.112-0.121-0.271-0.149-0.476c-0.177,0.23-0.43,0.431-0.761,0.601c-0.33,0.17-0.694,0.255-1.092,0.255
			c-0.478,0-0.868-0.145-1.171-0.435c-0.304-0.29-0.455-0.652-0.455-1.088c0-0.478,0.149-0.848,0.447-1.11
			c0.299-0.263,0.689-0.425,1.174-0.485L691.889,199.463z M690.065,201.802c0.183,0.145,0.399,0.217,0.649,0.217
			c0.305,0,0.6-0.071,0.886-0.212c0.48-0.233,0.722-0.616,0.722-1.147v-0.697c-0.106,0.068-0.242,0.124-0.408,0.169
			c-0.167,0.046-0.33,0.077-0.49,0.097l-0.523,0.067c-0.313,0.042-0.55,0.107-0.707,0.197c-0.269,0.15-0.402,0.39-0.402,0.72
			C689.791,201.461,689.883,201.659,690.065,201.802z"/>
		<path fill="#312F81" d="M695.473,197.429v3.42c0,0.264,0.041,0.479,0.122,0.646c0.149,0.308,0.43,0.462,0.839,0.462
			c0.587,0,0.986-0.27,1.199-0.809c0.115-0.289,0.173-0.685,0.173-1.188v-2.53h0.866v5.152h-0.817l0.01-0.76
			c-0.11,0.195-0.248,0.36-0.411,0.495c-0.324,0.27-0.718,0.404-1.181,0.404c-0.721,0-1.211-0.245-1.473-0.736
			c-0.142-0.263-0.212-0.614-0.212-1.054v-3.502H695.473z"/>
		<path fill="#312F81" d="M700.087,197.429h0.823v0.73c0.243-0.301,0.502-0.518,0.774-0.649c0.272-0.131,0.575-0.197,0.909-0.197
			c0.731,0,1.226,0.256,1.481,0.766c0.142,0.278,0.212,0.678,0.212,1.197v3.306h-0.88v-3.247c0-0.314-0.047-0.568-0.14-0.761
			c-0.154-0.32-0.434-0.48-0.837-0.48c-0.206,0-0.374,0.021-0.506,0.062c-0.237,0.07-0.445,0.211-0.625,0.423
			c-0.145,0.17-0.238,0.346-0.281,0.527c-0.044,0.181-0.065,0.439-0.065,0.776v2.699h-0.866V197.429z"/>
		<path fill="#312F81" d="M708.971,197.703c0.364,0.283,0.583,0.769,0.656,1.458h-0.842c-0.051-0.317-0.168-0.581-0.351-0.791
			c-0.184-0.21-0.477-0.315-0.881-0.315c-0.552,0-0.946,0.27-1.184,0.808c-0.154,0.349-0.23,0.78-0.23,1.292
			c0,0.517,0.108,0.95,0.327,1.303c0.218,0.353,0.561,0.528,1.029,0.528c0.359,0,0.644-0.109,0.854-0.328s0.355-0.519,0.436-0.898
			h0.842c-0.096,0.683-0.337,1.183-0.722,1.498c-0.385,0.316-0.877,0.475-1.477,0.475c-0.674,0-1.211-0.246-1.612-0.739
			c-0.4-0.492-0.601-1.106-0.601-1.845c0-0.904,0.22-1.608,0.659-2.112c0.439-0.503,0.999-0.755,1.679-0.755
			C708.134,197.28,708.606,197.42,708.971,197.703z"/>
		<path fill="#312F81" d="M710.493,195.49h0.866v2.637c0.205-0.26,0.39-0.442,0.554-0.549c0.278-0.183,0.627-0.273,1.044-0.273
			c0.747,0,1.254,0.261,1.521,0.784c0.144,0.285,0.216,0.682,0.216,1.188v3.306h-0.89v-3.247c0-0.379-0.048-0.656-0.145-0.833
			c-0.157-0.282-0.452-0.423-0.885-0.423c-0.359,0-0.686,0.123-0.978,0.37c-0.291,0.247-0.438,0.714-0.438,1.4v2.732h-0.866V195.49z
			"/>
		<path fill="#312F81" d="M722.443,197.943c0.456,0.442,0.684,1.093,0.684,1.952c0,0.83-0.201,1.516-0.603,2.057
			c-0.4,0.542-1.023,0.812-1.867,0.812c-0.704,0-1.263-0.239-1.677-0.719c-0.414-0.479-0.621-1.122-0.621-1.93
			c0-0.865,0.218-1.554,0.654-2.067c0.437-0.513,1.022-0.769,1.758-0.769C721.431,197.28,721.988,197.5,722.443,197.943z
			 M721.906,201.368c0.211-0.435,0.316-0.917,0.316-1.449c0-0.48-0.076-0.871-0.229-1.172c-0.241-0.475-0.656-0.712-1.246-0.712
			c-0.523,0-0.904,0.202-1.143,0.605c-0.237,0.404-0.356,0.891-0.356,1.461c0,0.548,0.119,1.005,0.356,1.37
			c0.238,0.365,0.615,0.548,1.133,0.548C721.306,202.019,721.695,201.801,721.906,201.368z"/>
		<path fill="#312F81" d="M725.057,197.429v3.42c0,0.264,0.041,0.479,0.122,0.646c0.149,0.308,0.43,0.462,0.839,0.462
			c0.587,0,0.986-0.27,1.199-0.809c0.115-0.289,0.173-0.685,0.173-1.188v-2.53h0.866v5.152h-0.817l0.01-0.76
			c-0.11,0.195-0.248,0.36-0.411,0.495c-0.324,0.27-0.718,0.404-1.181,0.404c-0.721,0-1.211-0.245-1.473-0.736
			c-0.142-0.263-0.212-0.614-0.212-1.054v-3.502H725.057z"/>
		<path fill="#312F81" d="M729.694,197.429h0.822v0.89c0.067-0.173,0.232-0.384,0.496-0.633c0.263-0.248,0.565-0.373,0.909-0.373
			c0.016,0,0.043,0.002,0.082,0.005c0.038,0.004,0.104,0.01,0.197,0.02v0.914c-0.052-0.01-0.099-0.016-0.143-0.02
			c-0.043-0.003-0.09-0.005-0.142-0.005c-0.437,0-0.771,0.141-1.006,0.422c-0.233,0.28-0.351,0.604-0.351,0.969v2.964h-0.866
			V197.429z"/>
		<path fill="#312F81" d="M683.176,207.338h3.056c0.833,0,1.426,0.247,1.777,0.741c0.207,0.291,0.31,0.628,0.31,1.01
			c0,0.446-0.126,0.812-0.38,1.097c-0.131,0.151-0.32,0.289-0.567,0.414c0.362,0.138,0.633,0.294,0.812,0.467
			c0.318,0.308,0.477,0.732,0.477,1.275c0,0.455-0.144,0.867-0.431,1.236c-0.43,0.552-1.111,0.827-2.048,0.827h-3.006V207.338z
			 M685.874,210.326c0.408,0,0.726-0.056,0.952-0.168c0.356-0.177,0.535-0.494,0.535-0.953c0-0.462-0.189-0.772-0.568-0.933
			c-0.214-0.09-0.532-0.135-0.953-0.135h-1.726v2.188H685.874z M686.197,213.587c0.593,0,1.015-0.17,1.268-0.51
			c0.159-0.215,0.238-0.475,0.238-0.779c0-0.513-0.231-0.862-0.694-1.049c-0.246-0.1-0.572-0.149-0.977-0.149h-1.918v2.487H686.197z
			"/>
		<path fill="#312F81" d="M689.697,212.857c0.214-0.439,0.63-0.839,1.249-1.198l0.924-0.534c0.413-0.24,0.703-0.446,0.87-0.616
			c0.264-0.267,0.395-0.572,0.395-0.916c0-0.401-0.12-0.721-0.36-0.957c-0.241-0.236-0.562-0.354-0.963-0.354
			c-0.593,0-1.004,0.226-1.231,0.676c-0.122,0.241-0.189,0.576-0.202,1.004h-0.88c0.01-0.6,0.12-1.089,0.332-1.468
			c0.375-0.667,1.037-1,1.986-1c0.789,0,1.366,0.213,1.729,0.64c0.364,0.427,0.547,0.901,0.547,1.424
			c0,0.552-0.194,1.023-0.583,1.414c-0.224,0.229-0.627,0.504-1.207,0.828l-0.659,0.365c-0.314,0.174-0.562,0.339-0.741,0.496
			c-0.32,0.278-0.522,0.588-0.605,0.928h3.762v0.818h-4.729C689.361,213.812,689.484,213.296,689.697,212.857z"/>
		<path fill="#312F81" d="M695.228,207.338h3.056c0.833,0,1.426,0.247,1.777,0.741c0.207,0.291,0.31,0.628,0.31,1.01
			c0,0.446-0.126,0.812-0.38,1.097c-0.131,0.151-0.32,0.289-0.567,0.414c0.362,0.138,0.633,0.294,0.812,0.467
			c0.318,0.308,0.477,0.732,0.477,1.275c0,0.455-0.144,0.867-0.431,1.236c-0.43,0.552-1.111,0.827-2.048,0.827h-3.006V207.338z
			 M697.926,210.326c0.408,0,0.726-0.056,0.952-0.168c0.356-0.177,0.535-0.494,0.535-0.953c0-0.462-0.189-0.772-0.568-0.933
			c-0.214-0.09-0.532-0.135-0.953-0.135h-1.726v2.188H697.926z M698.249,213.587c0.593,0,1.015-0.17,1.268-0.51
			c0.159-0.215,0.238-0.475,0.238-0.779c0-0.513-0.231-0.862-0.694-1.049c-0.246-0.1-0.572-0.149-0.977-0.149h-1.918v2.487H698.249z
			"/>
		<path fill="#312F81" d="M704.96,212.79c0.026,0.288,0.101,0.51,0.222,0.664c0.223,0.278,0.608,0.418,1.158,0.418
			c0.328,0,0.616-0.069,0.864-0.209c0.249-0.14,0.374-0.355,0.374-0.647c0-0.221-0.1-0.39-0.299-0.505
			c-0.127-0.07-0.378-0.152-0.753-0.245l-0.699-0.174c-0.446-0.108-0.775-0.23-0.987-0.365c-0.378-0.234-0.567-0.559-0.567-0.972
			c0-0.487,0.178-0.882,0.534-1.184c0.355-0.302,0.834-0.452,1.436-0.452c0.786,0,1.354,0.228,1.701,0.683
			c0.218,0.289,0.324,0.6,0.317,0.934h-0.817c-0.017-0.194-0.088-0.371-0.212-0.531c-0.204-0.227-0.557-0.34-1.06-0.34
			c-0.335,0-0.588,0.062-0.761,0.188c-0.172,0.124-0.258,0.289-0.258,0.493c0,0.224,0.112,0.403,0.339,0.537
			c0.131,0.08,0.324,0.15,0.579,0.212l0.583,0.139c0.634,0.151,1.059,0.297,1.274,0.438c0.337,0.221,0.505,0.569,0.505,1.044
			c0,0.458-0.176,0.854-0.528,1.188c-0.353,0.333-0.889,0.5-1.609,0.5c-0.776,0-1.326-0.174-1.649-0.522
			c-0.322-0.348-0.496-0.778-0.519-1.291H704.96z"/>
		<path fill="#312F81" d="M712.555,209.395c0.342,0.172,0.602,0.394,0.779,0.666c0.173,0.26,0.287,0.563,0.345,0.909
			c0.051,0.238,0.076,0.616,0.076,1.136h-3.747c0.016,0.524,0.138,0.945,0.367,1.262s0.584,0.476,1.064,0.476
			c0.449,0,0.807-0.15,1.074-0.45c0.149-0.174,0.256-0.375,0.318-0.604h0.852c-0.023,0.189-0.098,0.399-0.225,0.633
			c-0.126,0.232-0.268,0.422-0.424,0.569c-0.261,0.257-0.584,0.43-0.969,0.52c-0.207,0.052-0.441,0.077-0.702,0.077
			c-0.638,0-1.178-0.233-1.621-0.7c-0.442-0.466-0.664-1.12-0.664-1.96c0-0.828,0.223-1.5,0.669-2.016
			c0.446-0.517,1.03-0.775,1.75-0.775C711.861,209.137,712.214,209.223,712.555,209.395z M712.865,211.418
			c-0.035-0.376-0.116-0.676-0.243-0.9c-0.235-0.417-0.628-0.625-1.179-0.625c-0.395,0-0.725,0.144-0.992,0.431
			c-0.267,0.287-0.408,0.651-0.425,1.095H712.865z"/>
		<path fill="#312F81" d="M714.876,209.253h0.822v0.89c0.067-0.173,0.232-0.384,0.496-0.633c0.263-0.248,0.565-0.373,0.909-0.373
			c0.016,0,0.043,0.002,0.082,0.005c0.038,0.004,0.104,0.01,0.197,0.02v0.914c-0.052-0.01-0.099-0.016-0.143-0.02
			c-0.043-0.003-0.09-0.005-0.142-0.005c-0.437,0-0.771,0.141-1.006,0.422c-0.233,0.28-0.351,0.604-0.351,0.969v2.964h-0.866
			V209.253z"/>
		<path fill="#312F81" d="M718.559,209.253l1.376,4.195l1.434-4.195h0.948l-1.939,5.152h-0.923l-1.9-5.152H718.559z"/>
		<path fill="#312F81" d="M723.06,207.338h0.881v0.981h-0.881V207.338z M723.06,209.277h0.881v5.129h-0.881V209.277z"/>
		<path fill="#312F81" d="M728.652,209.527c0.364,0.283,0.583,0.769,0.656,1.458h-0.842c-0.051-0.317-0.168-0.581-0.351-0.791
			c-0.184-0.21-0.477-0.315-0.881-0.315c-0.552,0-0.946,0.27-1.184,0.808c-0.154,0.349-0.23,0.78-0.23,1.292
			c0,0.517,0.108,0.95,0.327,1.303c0.218,0.353,0.561,0.528,1.029,0.528c0.359,0,0.644-0.109,0.854-0.328s0.355-0.519,0.436-0.898
			h0.842c-0.096,0.683-0.337,1.183-0.722,1.498c-0.385,0.316-0.877,0.475-1.477,0.475c-0.674,0-1.211-0.246-1.612-0.739
			c-0.4-0.492-0.601-1.106-0.601-1.845c0-0.904,0.22-1.608,0.659-2.112c0.439-0.503,0.999-0.755,1.679-0.755
			C727.815,209.104,728.288,209.245,728.652,209.527z"/>
		<path fill="#312F81" d="M733.357,209.395c0.342,0.172,0.602,0.394,0.779,0.666c0.173,0.26,0.287,0.563,0.345,0.909
			c0.051,0.238,0.076,0.616,0.076,1.136h-3.747c0.016,0.524,0.138,0.945,0.367,1.262s0.584,0.476,1.064,0.476
			c0.449,0,0.807-0.15,1.074-0.45c0.149-0.174,0.256-0.375,0.318-0.604h0.852c-0.023,0.189-0.098,0.399-0.225,0.633
			c-0.126,0.232-0.268,0.422-0.424,0.569c-0.261,0.257-0.584,0.43-0.969,0.52c-0.207,0.052-0.441,0.077-0.702,0.077
			c-0.638,0-1.178-0.233-1.621-0.7c-0.442-0.466-0.664-1.12-0.664-1.96c0-0.828,0.223-1.5,0.669-2.016
			c0.446-0.517,1.03-0.775,1.75-0.775C732.664,209.137,733.017,209.223,733.357,209.395z M733.668,211.418
			c-0.035-0.376-0.116-0.676-0.243-0.9c-0.235-0.417-0.628-0.625-1.179-0.625c-0.395,0-0.725,0.144-0.992,0.431
			c-0.267,0.287-0.408,0.651-0.425,1.095H733.668z"/>
		<path fill="#312F81" d="M736.17,212.79c0.026,0.288,0.101,0.51,0.222,0.664c0.223,0.278,0.608,0.418,1.158,0.418
			c0.328,0,0.616-0.069,0.864-0.209c0.249-0.14,0.374-0.355,0.374-0.647c0-0.221-0.1-0.39-0.299-0.505
			c-0.127-0.07-0.378-0.152-0.753-0.245l-0.699-0.174c-0.446-0.108-0.775-0.23-0.987-0.365c-0.378-0.234-0.567-0.559-0.567-0.972
			c0-0.487,0.178-0.882,0.534-1.184c0.355-0.302,0.834-0.452,1.436-0.452c0.786,0,1.354,0.228,1.701,0.683
			c0.218,0.289,0.324,0.6,0.317,0.934h-0.817c-0.017-0.194-0.088-0.371-0.212-0.531c-0.204-0.227-0.557-0.34-1.06-0.34
			c-0.335,0-0.588,0.062-0.761,0.188c-0.172,0.124-0.258,0.289-0.258,0.493c0,0.224,0.112,0.403,0.339,0.537
			c0.131,0.08,0.324,0.15,0.579,0.212l0.583,0.139c0.634,0.151,1.059,0.297,1.274,0.438c0.337,0.221,0.505,0.569,0.505,1.044
			c0,0.458-0.176,0.854-0.528,1.188c-0.353,0.333-0.889,0.5-1.609,0.5c-0.776,0-1.326-0.174-1.649-0.522
			c-0.322-0.348-0.496-0.778-0.519-1.291H736.17z"/>
	</g>
</g>
<g>
</g>
<g>
</g>
<g>
</g>
<g>
</g>
<g>
</g>
<g>
</g>
</svg>
