<?xml version="1.0" encoding="utf-8"?>
<!-- Generator: Adobe Illustrator 16.0.0, SVG Export Plug-In . SVG Version: 6.00 Build 0)  -->
<!DOCTYPE svg PUBLIC "-//W3C//DTD SVG 1.1//EN" "http://www.w3.org/Graphics/SVG/1.1/DTD/svg11.dtd">
<svg version="1.1" id="Layer_1" xmlns="http://www.w3.org/2000/svg" xmlns:xlink="http://www.w3.org/1999/xlink" x="0px" y="0px"
	 width="841.89px" height="595.28px" viewBox="0 0 841.89 595.28" enable-background="new 0 0 841.89 595.28" xml:space="preserve">
<g>
	<path fill="none" d="M47.705,533.668c-0.021,1.314,0.783,2.475,1.92,2.975v-6.587C48.5,530.821,47.729,532.154,47.705,533.668z"/>
	<linearGradient id="SVGID_1_" gradientUnits="userSpaceOnUse" x1="429.3916" y1="547.667" x2="429.3916" y2="130.3955">
		<stop  offset="0" style="stop-color:#FFFFFF"/>
		<stop  offset="0.3042" style="stop-color:#F2F1F8"/>
		<stop  offset="0.8791" style="stop-color:#D1CCE5"/>
		<stop  offset="1" style="stop-color:#C9C3E1"/>
	</linearGradient>
	<path fill="url(#SVGID_1_)" d="M799.724,138.149c0.737,2.583,1.188,5.419-1.483,7.25c-2.438,1.669-5.19,1.838-8.051-0.339
		c-2.955,3.292-5.767,6.616-8.795,9.73c-2.312,2.378-4.84,4.558-7.374,6.705c-6.876,5.83-12.968,12.18-17.004,20.483
		c-2.552,5.248-6.231,9.946-9.39,14.901c-3.01,4.721-6.137,9.374-8.956,14.207c-2.421,4.148-5.937,7.046-9.703,9.82
		c-12.201,8.984-24.271,18.147-36.53,27.051c-7.683,5.58-15.615,10.814-23.431,16.211c-6.023,4.158-11.712,8.712-16.909,13.891
		c-1.994,1.986-4.326,3.632-6.506,5.433c-2.134,1.762-4.269,3.524-6.355,5.247c1.401,3.095,1.346,6.196-0.994,7.931
		c-1.796,1.331-5.398,2.091-8.234-0.463c-4.775,4.304-9.577,8.623-14.369,12.953c-7.067,6.389-14.134,12.778-21.19,19.18
		c-6.426,5.83-12.848,11.666-19.255,17.519c-9.218,8.415-18.417,16.852-27.629,25.272c-5.359,4.898-10.778,9.734-16.076,14.697
		c-2.303,2.158-4.377,4.561-6.541,6.865c-0.643,0.682-0.72,1.312-0.175,2.235c1.449,2.46,1.029,5.647-0.76,7.194
		c-2.062,1.784-5.42,1.896-7.765,0.362c-0.399-0.261-1.153-0.326-1.591-0.135c-16.443,7.214-32.801,14.622-49.317,21.663
		c-11.053,4.713-22.322,8.921-33.503,13.335c-8.357,3.299-16.729,6.566-25.186,9.883c0.07,3.845-0.86,5.475-3.777,6.344
		c-3.364,1-5.378,0.136-7.542-3.328c-3.647,1.039-7.316,2.169-11.029,3.131c-18.463,4.791-36.932,9.555-55.409,14.293
		c-9.923,2.544-19.88,4.957-29.79,7.551c-3.225,0.844-6.342,2.098-9.526,3.106c-0.925,0.294-1.358,0.677-1.351,1.758
		c0.022,2.813-0.937,4.119-3.295,4.873c-3.1,0.99-5.325,0.517-6.822-1.722c-0.734-1.098-1.438-0.752-2.304-0.464
		c-19.369,6.461-38.725,12.96-58.116,19.352c-9.262,3.053-18.636,5.766-27.874,8.885c-6.011,2.03-11.876,4.495-17.78,6.832
		c-0.418,0.166-0.833,0.854-0.887,1.339c-0.331,2.961-1.214,4.257-3.579,4.984c-2.795,0.86-4.932,0.385-6.535-1.807
		c-0.791-1.082-1.516-0.636-2.343-0.426c-6.815,1.723-13.555,3.849-20.455,5.099c-11.937,2.163-23.929,4.167-35.979,5.506
		c-9.116,1.016-18.357,0.914-27.545,1.265c-5.446,0.207-10.894,0.336-16.342,0.477c-1.022,0.026-1.687,0.193-2.136,1.372
		c-0.823,2.164-4.045,3.343-6.611,2.729v9.289h759.534V130.395C806.05,132.95,802.941,135.504,799.724,138.149z"/>
	<linearGradient id="SVGID_2_" gradientUnits="userSpaceOnUse" x1="52.4341" y1="547.667" x2="52.4341" y2="130.3955">
		<stop  offset="0" style="stop-color:#FFFFFF"/>
		<stop  offset="1" style="stop-color:#26246A"/>
	</linearGradient>
	<path fill="url(#SVGID_2_)" d="M55.243,533.228c0.002-2.261-1.373-3.817-3.402-3.853c-0.81-0.014-1.57,0.242-2.216,0.681v6.587
		c0.349,0.153,0.726,0.25,1.123,0.264C52.793,536.975,55.241,534.972,55.243,533.228z"/>
	<path fill="#514EA1" d="M56.236,535.649c0.449-1.179,1.113-1.346,2.136-1.372c5.448-0.141,10.896-0.27,16.342-0.477
		c9.188-0.351,18.429-0.249,27.545-1.265c12.05-1.339,24.042-3.343,35.979-5.506c6.9-1.25,13.64-3.376,20.455-5.099
		c0.827-0.21,1.552-0.656,2.343,0.426c1.603,2.191,3.74,2.667,6.535,1.807c2.365-0.728,3.249-2.023,3.579-4.984
		c0.055-0.485,0.469-1.173,0.887-1.339c5.904-2.337,11.769-4.802,17.78-6.832c9.238-3.119,18.611-5.832,27.874-8.885
		c19.391-6.392,38.747-12.891,58.116-19.352c0.866-0.288,1.57-0.634,2.304,0.464c1.497,2.238,3.722,2.712,6.822,1.722
		c2.358-0.754,3.317-2.06,3.295-4.873c-0.008-1.081,0.425-1.464,1.351-1.758c3.184-1.009,6.301-2.263,9.526-3.106
		c9.91-2.594,19.867-5.007,29.79-7.551c18.477-4.738,36.946-9.502,55.409-14.293c3.712-0.962,7.382-2.092,11.029-3.131
		c2.164,3.464,4.179,4.328,7.542,3.328c2.917-0.869,3.847-2.499,3.777-6.344c8.457-3.316,16.828-6.584,25.186-9.883
		c11.181-4.414,22.45-8.622,33.503-13.335c16.517-7.041,32.874-14.449,49.317-21.663c0.438-0.191,1.191-0.126,1.591,0.135
		c2.345,1.534,5.703,1.422,7.765-0.362c1.789-1.547,2.209-4.734,0.76-7.194c-0.545-0.924-0.468-1.554,0.175-2.235
		c2.164-2.305,4.238-4.707,6.541-6.865c5.298-4.963,10.717-9.799,16.076-14.697c9.212-8.421,18.411-16.857,27.629-25.272
		c6.407-5.853,12.829-11.688,19.255-17.519c7.057-6.401,14.123-12.791,21.19-19.18c4.792-4.33,9.594-8.649,14.369-12.953
		c2.836,2.554,6.438,1.794,8.234,0.463c2.34-1.735,2.396-4.836,0.994-7.931c2.087-1.722,4.222-3.484,6.355-5.247
		c2.18-1.801,4.512-3.447,6.506-5.433c5.197-5.179,10.886-9.733,16.909-13.891c7.815-5.397,15.748-10.631,23.431-16.211
		c12.259-8.904,24.329-18.067,36.53-27.051c3.767-2.774,7.282-5.672,9.703-9.82c2.819-4.833,5.946-9.486,8.956-14.207
		c3.158-4.955,6.838-9.653,9.39-14.901c4.036-8.303,10.128-14.653,17.004-20.483c2.534-2.147,5.062-4.327,7.374-6.705
		c3.028-3.114,5.84-6.439,8.795-9.73c2.86,2.177,5.612,2.008,8.051,0.339c2.672-1.83,2.221-4.667,1.483-7.25
		c3.218-2.645,6.326-5.199,9.436-7.754c-0.151-0.197-0.303-0.395-0.455-0.592c-0.395,0.16-0.759,0.366-1.109,0.592
		c-1.294,0.835-2.351,2.029-3.591,2.94c-1.723,1.266-3.378,2.625-5.014,3.905c-2.91-2.131-5.025-2.495-6.861-1.272
		c-2.271,1.513-3.272,4.631-2.572,7.686c0.096,0.417-0.171,1.073-0.492,1.403c-1.422,1.461-3.055,2.734-4.376,4.277
		c-3.688,4.303-7.51,8.403-12.003,11.94c-5.402,4.255-10.248,9.156-13.822,15.125c-1.567,2.618-2.765,5.463-4.396,8.036
		c-5.794,9.136-11.648,18.234-17.607,27.263c-1.322,2.004-2.919,3.99-4.812,5.428c-9.882,7.511-19.867,14.889-29.883,22.223
		c-8.367,6.128-16.818,12.142-25.243,18.19c-5.984,4.296-12.263,8.233-17.908,12.934c-6.609,5.504-12.9,11.4-19.636,16.768
		c-0.407,0.325-1.282,0.566-1.651,0.352c-2.046-1.188-4.112-1.616-6.025-0.021c-2.037,1.699-3.052,4.009-2.416,6.671
		c0.26,1.089-0.12,1.514-0.812,2.105c-3.188,2.73-6.4,5.437-9.487,8.279c-6.138,5.653-12.125,11.471-18.307,17.075
		c-11.601,10.521-23.322,20.905-34.938,31.405c-10.146,9.173-20.251,18.392-30.309,27.661c-4.033,3.719-8.551,6.978-11.592,11.679
		c-0.592,0.914-1.178,0.532-1.877,0.257c-2.551-1.005-4.51-0.382-6.023,1.905c-1.244,1.879-1.816,3.893-0.985,6.318
		c-0.901,0.431-1.657,0.817-2.433,1.159c-13.948,6.161-27.832,12.474-41.871,18.425c-12.049,5.108-24.255,9.853-36.429,14.665
		c-8.8,3.479-17.665,6.798-26.491,10.213c-1.082,0.418-1.729,0.351-2.547-0.708c-2.434-3.149-6.686-2.673-8.545,0.845
		c-0.393,0.742-0.523,1.629-0.948,2.348c-0.352,0.593-0.874,1.327-1.466,1.5c-7.618,2.232-15.218,4.546-22.908,6.507
		c-19.402,4.947-38.869,9.646-58.268,14.609c-7.905,2.022-15.699,4.477-23.545,6.732c-0.77,0.221-1.501,0.784-2.2-0.311
		c-1.303-2.038-3.248-3.095-5.653-2.528c-2.643,0.624-3.858,2.754-4.208,5.23c-0.191,1.356-0.707,1.887-1.938,2.296
		c-16.636,5.504-33.295,10.944-49.865,16.641c-16.456,5.657-33.431,9.771-49.474,16.653c-1.696,0.728-3.46,1.297-5.14,1.92
		c-1.922-2.981-4.083-4.312-6.345-3.663c-3.455,0.993-4.233,3.921-4.638,7.037c-16.558,5.564-33.826,7.75-50.967,10.277
		c-17.245,2.542-34.736,1.717-52.11,2.609c-0.09-0.488-0.125-0.71-0.172-0.929c-0.677-3.185-2.717-5.092-5.465-5.115
		c-0.6-0.005-1.17,0.107-1.703,0.314c-1.685,0.654-2.98,2.312-3.535,4.651c-0.647,2.728,0.485,4.993,2.947,5.897
		c0.19,0.07,0.388,0.126,0.587,0.174C52.191,538.992,55.413,537.813,56.236,535.649z M795.101,137.284
		c2.001-0.02,3.425,1.578,3.426,3.844c0,1.846-2.285,3.769-4.428,3.726c-1.771-0.037-3.062-1.388-3.043-3.182
		C791.081,139.224,792.85,137.307,795.101,137.284z M634.886,288.598c2.06-0.081,3.62,1.583,3.623,3.86
		c0.004,1.793-2.168,3.622-4.364,3.679c-1.76,0.045-3.169-1.292-3.198-3.034C630.903,290.68,632.648,288.686,634.886,288.598z
		 M520.459,394.326c2.121-0.023,3.547,1.581,3.491,3.928c-0.041,1.656-2.534,3.697-4.446,3.642c-1.674-0.05-3.082-1.524-3.077-3.222
		C516.436,396.21,518.16,394.349,520.459,394.326z M401.577,444.617c1.991,0.027,3.391,1.646,3.373,3.899
		c-0.014,1.812-2.197,3.654-4.35,3.673c-1.682,0.015-3.229-1.466-3.225-3.084C397.382,446.711,399.37,444.587,401.577,444.617z
		 M283.237,476.282c2.031,0.028,3.398,1.578,3.392,3.845c-0.005,1.763-2.208,3.624-4.328,3.654
		c-1.762,0.025-3.288-1.492-3.236-3.217C279.137,478.216,281.052,476.25,283.237,476.282z M166.138,515.371
		c2.11,0.015,3.569,1.666,3.498,3.96c-0.051,1.618-2.611,3.661-4.512,3.601c-1.653-0.054-3.063-1.551-3.056-3.244
		C162.08,517.21,163.828,515.356,166.138,515.371z M49.625,536.643c-1.138-0.5-1.942-1.66-1.92-2.975
		c0.025-1.514,0.795-2.847,1.92-3.612c0.646-0.438,1.407-0.694,2.216-0.681c2.029,0.035,3.404,1.592,3.402,3.853
		c-0.002,1.744-2.45,3.747-4.495,3.679C50.351,536.893,49.974,536.796,49.625,536.643z"/>
	<ellipse fill-rule="evenodd" clip-rule="evenodd" fill="#514EA1" cx="51.312" cy="533.625" rx="1.688" ry="1.375"/>
	<ellipse fill-rule="evenodd" clip-rule="evenodd" fill="#514EA1" cx="165.625" cy="519.562" rx="1.5" ry="1.438"/>
	<ellipse fill-rule="evenodd" clip-rule="evenodd" fill="#514EA1" cx="283.312" cy="480.25" rx="1.688" ry="1.5"/>
	<ellipse fill-rule="evenodd" clip-rule="evenodd" fill="#514EA1" cx="401.438" cy="448.312" rx="1.625" ry="1.688"/>
	<ellipse fill-rule="evenodd" clip-rule="evenodd" fill="#514EA1" cx="520.494" cy="398.668" rx="1.994" ry="2"/>
	<ellipse fill-rule="evenodd" clip-rule="evenodd" fill="#514EA1" cx="634.709" cy="292.375" rx="1.708" ry="1.75"/>
	<ellipse fill-rule="evenodd" clip-rule="evenodd" fill="#514EA1" cx="794.813" cy="141.125" rx="1.896" ry="1.708"/>
	<text transform="matrix(1 0 0 1 45.9111 550.3955)"><tspan x="0" y="0" fill="#312F81" font-family="'Helvetica-Bold'" font-size="9">2012:</tspan><tspan x="23.019" y="0" fill="#312F81" font-family="'Helvetica'" font-size="9"> START!</tspan><tspan x="0" y="10.8" fill="#312F81" font-family="'Helvetica'" font-size="9">          Sales on day 1</tspan></text>
	<text transform="matrix(1 0 0 1 161.9111 533.1416)"><tspan x="0" y="0" fill="#312F81" font-family="'Helvetica-Bold'" font-size="9">2013:</tspan><tspan x="23.019" y="0" fill="#312F81" font-family="'Helvetica'" font-size="9"> 1st investment</tspan></text>
	<text transform="matrix(1 0 0 1 281.625 498.0176)"><tspan x="0" y="0" fill="#312F81" font-family="'Helvetica-Bold'" font-size="9">2014:</tspan><tspan x="23.019" y="0" fill="#312F81" font-family="'Helvetica'" font-size="9"> Launch our first product</tspan><tspan x="0" y="10.799" fill="#312F81" font-family="'Helvetica'" font-size="9">          MASKOOLIN</tspan></text>
	<text transform="matrix(1 0 0 1 411.9453 460.5625)"><tspan x="0" y="0" fill="#312F81" font-family="'Helvetica-Bold'" font-size="9">2015:</tspan><tspan x="23.019" y="0" fill="#312F81" font-family="'Helvetica'" font-size="9"> 2nd investment</tspan></text>
	<text transform="matrix(1 0 0 1 529.4453 407.5625)"><tspan x="0" y="0" fill="#312F81" font-family="'Helvetica-Bold'" font-size="9">2016:</tspan><tspan x="23.019" y="0" fill="#312F81" font-family="'Helvetica'" font-size="9"> Double the employee</tspan></text>
	<text transform="matrix(1 0 0 1 639.417 307.0625)"><tspan x="0" y="0" fill="#312F81" font-family="'Helvetica-Bold'" font-size="9">2017:</tspan><tspan x="23.019" y="0" fill="#312F81" font-family="'Helvetica'" font-size="9"> Launch our </tspan><tspan x="0" y="10.8" fill="#312F81" font-family="'Helvetica'" font-size="9">          B2B services</tspan></text>
</g>
</svg>
