<?xml version="1.0" encoding="utf-8"?>
<!-- Generator: Adobe Illustrator 16.0.0, SVG Export Plug-In . SVG Version: 6.00 Build 0)  -->
<!DOCTYPE svg PUBLIC "-//W3C//DTD SVG 1.1//EN" "http://www.w3.org/Graphics/SVG/1.1/DTD/svg11.dtd">
<svg version="1.1" id="Layer_1" xmlns="http://www.w3.org/2000/svg" xmlns:xlink="http://www.w3.org/1999/xlink" x="0px" y="0px"
	 width="841.89px" height="595.28px" viewBox="0 0 841.89 595.28" enable-background="new 0 0 841.89 595.28" xml:space="preserve">
<g>
	<path fill="none" d="M12.083,557.282c-0.023,1.415,0.842,2.663,2.067,3.202v-7.091C12.938,554.218,12.11,555.652,12.083,557.282z"
		/>
	<linearGradient id="SVGID_1_" gradientUnits="userSpaceOnUse" x1="422.9434" y1="572.3506" x2="422.9433" y2="123.1865">
		<stop  offset="0" style="stop-color:#FFFFFF"/>
		<stop  offset="0.3042" style="stop-color:#F2F1F8"/>
		<stop  offset="0.8791" style="stop-color:#D1CCE5"/>
		<stop  offset="1" style="stop-color:#C9C3E1"/>
	</linearGradient>
	<path fill="url(#SVGID_1_)" d="M821.581,131.532c0.793,2.781,1.279,5.834-1.598,7.804c-2.624,1.797-5.587,1.979-8.666-0.365
		c-3.181,3.543-6.207,7.122-9.467,10.474c-2.488,2.56-5.21,4.906-7.938,7.218c-7.401,6.275-13.959,13.11-18.304,22.048
		c-2.747,5.649-6.708,10.706-10.107,16.04c-3.239,5.082-6.605,10.09-9.641,15.292c-2.605,4.465-6.39,7.584-10.444,10.571
		c-13.134,9.67-26.127,19.534-39.322,29.119c-8.271,6.006-16.81,11.641-25.222,17.45c-6.484,4.476-12.607,9.377-18.202,14.952
		c-2.146,2.138-4.656,3.91-7.003,5.849c-2.297,1.896-4.595,3.793-6.841,5.647c1.508,3.331,1.448,6.67-1.07,8.538
		c-1.934,1.432-5.812,2.249-8.864-0.5c-5.14,4.633-10.309,9.283-15.467,13.943c-7.607,6.877-15.214,13.755-22.811,20.646
		c-6.917,6.276-13.829,12.558-20.727,18.857c-9.922,9.059-19.824,18.14-29.74,27.204c-5.77,5.273-11.603,10.479-17.305,15.821
		c-2.479,2.323-4.712,4.909-7.041,7.39c-0.692,0.733-0.775,1.412-0.188,2.406c1.56,2.648,1.108,6.079-0.818,7.744
		c-2.219,1.921-5.834,2.042-8.357,0.39c-0.43-0.28-1.241-0.351-1.713-0.145c-17.7,7.765-35.308,15.739-53.087,23.318
		c-11.897,5.073-24.028,9.604-36.063,14.354c-8.996,3.551-18.007,7.068-27.11,10.639c0.075,4.139-0.926,5.893-4.066,6.828
		c-3.621,1.076-5.79,0.146-8.119-3.582c-3.926,1.118-7.875,2.334-11.872,3.37c-19.874,5.157-39.755,10.284-59.644,15.385
		c-10.681,2.738-21.399,5.336-32.067,8.128c-3.472,0.908-6.826,2.258-10.254,3.344c-0.996,0.316-1.462,0.729-1.454,1.893
		c0.023,3.028-1.009,4.434-3.547,5.245c-3.337,1.066-5.732,0.557-7.343-1.853c-0.79-1.182-1.548-0.81-2.48-0.5
		c-20.85,6.955-41.685,13.951-62.558,20.831c-9.97,3.286-20.06,6.206-30.004,9.563c-6.47,2.186-12.784,4.839-19.139,7.354
		c-0.45,0.179-0.896,0.919-0.955,1.441c-0.356,3.188-1.307,4.582-3.853,5.365c-3.009,0.926-5.309,0.414-7.035-1.944
		c-0.852-1.165-1.632-0.685-2.522-0.459c-7.336,1.854-14.591,4.143-22.018,5.488c-12.849,2.329-25.757,4.485-38.729,5.927
		c-9.812,1.094-19.76,0.984-29.65,1.361c-5.862,0.223-11.727,0.361-17.591,0.513c-1.101,0.029-1.816,0.209-2.299,1.478
		c-0.886,2.329-4.354,3.599-7.117,2.937v9.999h817.587V123.186C828.391,125.937,825.044,128.686,821.581,131.532z"/>
	<linearGradient id="SVGID_2_" gradientUnits="userSpaceOnUse" x1="17.1738" y1="572.3496" x2="17.1738" y2="123.2216">
		<stop  offset="0" style="stop-color:#FFFFFF"/>
		<stop  offset="1" style="stop-color:#26246A"/>
	</linearGradient>
	<path fill="url(#SVGID_2_)" d="M20.198,556.808c0.002-2.434-1.478-4.108-3.662-4.146c-0.871-0.015-1.69,0.261-2.386,0.732v7.091
		c0.375,0.165,0.781,0.269,1.209,0.283C17.561,560.842,20.195,558.686,20.198,556.808z"/>
	<path fill="#514EA1" d="M21.267,559.415c0.483-1.269,1.199-1.448,2.299-1.478c5.864-0.151,11.729-0.29,17.591-0.513
		c9.89-0.377,19.837-0.268,29.65-1.361c12.972-1.441,25.88-3.598,38.729-5.927c7.427-1.346,14.682-3.634,22.018-5.488
		c0.89-0.226,1.67-0.706,2.522,0.459c1.726,2.358,4.026,2.87,7.035,1.944c2.545-0.783,3.497-2.178,3.853-5.365
		c0.059-0.522,0.505-1.263,0.955-1.441c6.355-2.516,12.668-5.169,19.139-7.354c9.944-3.357,20.034-6.277,30.004-9.563
		c20.873-6.88,41.708-13.876,62.558-20.831c0.932-0.31,1.69-0.682,2.48,0.5c1.611,2.409,4.006,2.919,7.343,1.853
		c2.539-0.812,3.571-2.217,3.547-5.245c-0.008-1.164,0.458-1.576,1.454-1.893c3.428-1.086,6.782-2.436,10.254-3.344
		c10.668-2.792,21.386-5.39,32.067-8.128c19.889-5.101,39.77-10.228,59.644-15.385c3.996-1.036,7.946-2.252,11.872-3.37
		c2.33,3.729,4.498,4.658,8.119,3.582c3.14-0.936,4.141-2.689,4.066-6.828c9.104-3.57,18.114-7.088,27.11-10.639
		c12.035-4.751,24.166-9.281,36.063-14.354c17.779-7.579,35.387-15.554,53.087-23.318c0.472-0.206,1.283-0.136,1.713,0.145
		c2.523,1.652,6.139,1.531,8.357-0.39c1.927-1.665,2.378-5.096,0.818-7.744c-0.587-0.994-0.504-1.673,0.188-2.406
		c2.329-2.48,4.562-5.066,7.041-7.39c5.702-5.343,11.535-10.548,17.305-15.821c9.916-9.064,19.818-18.146,29.74-27.204
		c6.897-6.3,13.81-12.581,20.727-18.857c7.597-6.891,15.203-13.769,22.811-20.646c5.158-4.66,10.327-9.311,15.467-13.943
		c3.053,2.749,6.931,1.932,8.864,0.5c2.519-1.868,2.578-5.207,1.07-8.538c2.246-1.854,4.544-3.751,6.841-5.647
		c2.347-1.939,4.856-3.711,7.003-5.849c5.595-5.575,11.718-10.477,18.202-14.952c8.412-5.81,16.951-11.444,25.222-17.45
		c13.195-9.585,26.188-19.448,39.322-29.119c4.055-2.987,7.839-6.106,10.444-10.571c3.035-5.202,6.401-10.211,9.641-15.292
		c3.399-5.334,7.36-10.391,10.107-16.04c4.345-8.938,10.902-15.773,18.304-22.048c2.728-2.312,5.449-4.658,7.938-7.218
		c3.26-3.352,6.286-6.931,9.467-10.474c3.079,2.343,6.042,2.162,8.666,0.365c2.877-1.97,2.391-5.023,1.598-7.804
		c3.463-2.846,6.81-5.596,10.156-8.346c-0.163-0.212-0.326-0.425-0.49-0.638c-0.424,0.172-0.816,0.394-1.193,0.638
		c-1.394,0.899-2.53,2.184-3.865,3.165c-1.854,1.362-3.637,2.825-5.397,4.204c-3.133-2.293-5.409-2.685-7.386-1.37
		c-2.444,1.628-3.522,4.985-2.769,8.273c0.103,0.449-0.185,1.155-0.53,1.51c-1.53,1.573-3.288,2.943-4.71,4.604
		c-3.97,4.632-8.084,9.045-12.921,12.853c-5.814,4.581-11.031,9.856-14.879,16.281c-1.687,2.818-2.976,5.88-4.732,8.65
		c-6.236,9.834-12.538,19.627-18.953,29.346c-1.423,2.157-3.142,4.295-5.18,5.843c-10.638,8.085-21.386,16.027-32.167,23.922
		c-9.007,6.596-18.104,13.07-27.173,19.581c-6.441,4.625-13.2,8.863-19.276,13.923c-7.115,5.925-13.887,12.271-21.137,18.048
		c-0.438,0.35-1.381,0.61-1.778,0.379c-2.202-1.278-4.426-1.739-6.485-0.022c-2.193,1.829-3.285,4.315-2.601,7.18
		c0.279,1.173-0.13,1.629-0.874,2.266c-3.431,2.939-6.89,5.853-10.212,8.912c-6.607,6.086-13.052,12.348-19.706,18.381
		c-12.487,11.324-25.104,22.503-37.609,33.806c-10.922,9.874-21.799,19.797-32.625,29.775c-4.341,4.003-9.204,7.511-12.478,12.571
		c-0.637,0.983-1.268,0.573-2.021,0.276c-2.746-1.082-4.854-0.411-6.483,2.051c-1.34,2.022-1.955,4.19-1.061,6.802
		c-0.971,0.463-1.784,0.88-2.619,1.247c-15.015,6.633-29.959,13.428-45.071,19.833c-12.97,5.499-26.108,10.605-39.213,15.786
		c-9.473,3.744-19.015,7.317-28.516,10.993c-1.165,0.45-1.861,0.378-2.742-0.762c-2.62-3.39-7.196-2.877-9.198,0.909
		c-0.423,0.799-0.563,1.754-1.021,2.527c-0.378,0.638-0.94,1.429-1.578,1.614c-8.2,2.403-16.381,4.894-24.659,7.005
		c-20.885,5.325-41.84,10.383-62.721,15.726c-8.509,2.177-16.899,4.818-25.345,7.247c-0.829,0.237-1.616,0.844-2.368-0.334
		c-1.403-2.194-3.496-3.332-6.085-2.722c-2.845,0.672-4.153,2.964-4.529,5.63c-0.206,1.46-0.76,2.031-2.086,2.472
		c-17.907,5.925-35.84,11.78-53.677,17.912c-17.714,6.09-35.986,10.519-53.255,17.927c-1.825,0.783-3.724,1.396-5.532,2.066
		c-2.069-3.209-4.396-4.643-6.831-3.943c-3.718,1.069-4.557,4.221-4.992,7.575c-17.823,5.99-36.412,8.343-54.862,11.062
		c-18.563,2.736-37.391,1.849-56.093,2.81c-0.097-0.526-0.134-0.765-0.185-1c-0.729-3.428-2.925-5.481-5.883-5.506
		c-0.646-0.006-1.259,0.115-1.833,0.338c-1.813,0.704-3.208,2.488-3.805,5.007c-0.696,2.937,0.522,5.375,3.172,6.349
		c0.205,0.075,0.417,0.136,0.632,0.187C16.913,563.014,20.38,561.744,21.267,559.415z M816.604,130.601
		c2.153-0.021,3.687,1.698,3.688,4.138c0,1.987-2.46,4.057-4.767,4.01c-1.905-0.04-3.296-1.494-3.275-3.425
		C812.277,132.69,814.181,130.626,816.604,130.601z M644.144,293.48c2.217-0.087,3.897,1.704,3.9,4.155
		c0.004,1.931-2.334,3.899-4.698,3.96c-1.895,0.049-3.411-1.39-3.442-3.266C639.856,295.722,641.735,293.575,644.144,293.48z
		 M520.971,407.29c2.283-0.025,3.818,1.702,3.759,4.228c-0.045,1.783-2.729,3.98-4.786,3.92c-1.802-0.054-3.318-1.641-3.312-3.468
		C516.64,409.317,518.496,407.314,520.971,407.29z M393.003,461.425c2.143,0.029,3.65,1.771,3.631,4.197
		c-0.015,1.95-2.365,3.934-4.682,3.954c-1.81,0.016-3.477-1.578-3.471-3.32C388.487,463.679,390.627,461.393,393.003,461.425z
		 M265.618,495.51c2.187,0.031,3.658,1.699,3.65,4.139c-0.005,1.897-2.377,3.901-4.659,3.934c-1.897,0.027-3.54-1.605-3.483-3.463
		C261.205,497.592,263.265,495.476,265.618,495.51z M139.569,537.587c2.271,0.016,3.842,1.793,3.765,4.263
		c-0.055,1.741-2.811,3.94-4.856,3.875c-1.779-0.058-3.297-1.669-3.289-3.491C135.2,539.566,137.082,537.571,139.569,537.587z
		 M14.15,560.484c-1.225-0.539-2.09-1.787-2.067-3.202c0.027-1.63,0.855-3.064,2.067-3.889c0.695-0.472,1.515-0.747,2.386-0.732
		c2.184,0.038,3.665,1.713,3.662,4.146c-0.003,1.878-2.637,4.034-4.839,3.96C14.931,560.753,14.525,560.649,14.15,560.484z"/>
	<ellipse fill-rule="evenodd" clip-rule="evenodd" fill="#514EA1" cx="15.967" cy="557.235" rx="1.817" ry="1.48"/>
	<ellipse fill-rule="evenodd" clip-rule="evenodd" fill="#514EA1" cx="139.016" cy="542.099" rx="1.615" ry="1.547"/>
	<ellipse fill-rule="evenodd" clip-rule="evenodd" fill="#514EA1" cx="265.699" cy="499.781" rx="1.817" ry="1.614"/>
	<ellipse fill-rule="evenodd" clip-rule="evenodd" fill="#514EA1" cx="392.853" cy="465.402" rx="1.749" ry="1.816"/>
	<ellipse fill-rule="evenodd" clip-rule="evenodd" fill="#514EA1" cx="521.008" cy="411.964" rx="2.146" ry="2.152"/>
	<ellipse fill-rule="evenodd" clip-rule="evenodd" fill="#514EA1" cx="643.954" cy="297.546" rx="1.838" ry="1.883"/>
	<ellipse fill-rule="evenodd" clip-rule="evenodd" fill="#514EA1" cx="816.295" cy="134.736" rx="2.041" ry="1.839"/>
	<g>
		<path fill="#312F81" d="M10.773,573.939c0.192-0.457,0.646-0.94,1.362-1.452c0.622-0.444,1.023-0.763,1.207-0.955
			c0.28-0.3,0.421-0.628,0.421-0.984c0-0.29-0.081-0.531-0.241-0.724c-0.161-0.192-0.391-0.288-0.691-0.288
			c-0.41,0-0.689,0.152-0.837,0.459c-0.085,0.177-0.136,0.457-0.151,0.842h-1.311c0.022-0.584,0.128-1.055,0.317-1.414
			c0.36-0.685,0.999-1.027,1.917-1.027c0.726,0,1.304,0.201,1.733,0.604c0.429,0.402,0.644,0.935,0.644,1.597
			c0,0.508-0.152,0.959-0.455,1.353c-0.199,0.262-0.526,0.554-0.981,0.875l-0.541,0.384c-0.338,0.239-0.569,0.413-0.694,0.52
			c-0.125,0.107-0.229,0.232-0.314,0.374h2.994v1.188h-4.697C10.469,574.796,10.574,574.347,10.773,573.939z"/>
		<path fill="#312F81" d="M20.047,569.304c0.352,0.615,0.527,1.489,0.527,2.621s-0.176,2.004-0.527,2.616
			c-0.352,0.611-0.964,0.917-1.838,0.917s-1.486-0.306-1.838-0.917c-0.352-0.612-0.527-1.484-0.527-2.616s0.176-2.006,0.527-2.621
			c0.352-0.614,0.964-0.922,1.838-0.922S19.695,568.689,20.047,569.304z M17.414,573.734c0.129,0.418,0.395,0.627,0.795,0.627
			s0.663-0.209,0.788-0.627s0.187-1.021,0.187-1.81c0-0.826-0.062-1.438-0.187-1.835c-0.125-0.397-0.387-0.597-0.788-0.597
			s-0.666,0.199-0.795,0.597c-0.129,0.396-0.194,1.009-0.194,1.835C17.22,572.713,17.285,573.316,17.414,573.734z"/>
		<path fill="#312F81" d="M21.601,570.558v-0.918c0.424-0.019,0.722-0.047,0.892-0.085c0.271-0.06,0.491-0.18,0.661-0.359
			c0.116-0.123,0.205-0.287,0.264-0.492c0.035-0.123,0.052-0.214,0.052-0.274h1.126v6.859h-1.381v-4.73H21.601z"/>
		<path fill="#312F81" d="M26.937,573.939c0.192-0.457,0.646-0.94,1.362-1.452c0.622-0.444,1.023-0.763,1.207-0.955
			c0.28-0.3,0.421-0.628,0.421-0.984c0-0.29-0.081-0.531-0.241-0.724c-0.161-0.192-0.391-0.288-0.691-0.288
			c-0.41,0-0.689,0.152-0.837,0.459c-0.085,0.177-0.136,0.457-0.151,0.842h-1.311c0.022-0.584,0.128-1.055,0.317-1.414
			c0.36-0.685,0.999-1.027,1.917-1.027c0.726,0,1.304,0.201,1.733,0.604c0.429,0.402,0.644,0.935,0.644,1.597
			c0,0.508-0.152,0.959-0.455,1.353c-0.199,0.262-0.526,0.554-0.981,0.875l-0.541,0.384c-0.338,0.239-0.569,0.413-0.694,0.52
			c-0.125,0.107-0.229,0.232-0.314,0.374h2.994v1.188H26.62C26.633,574.796,26.738,574.347,26.937,573.939z"/>
		<path fill="#312F81" d="M32.803,570.331h1.433v1.414h-1.433V570.331z M32.803,573.874h1.433v1.414h-1.433V573.874z"/>
		<path fill="#312F81" d="M38.976,573.046c0.021,0.395,0.111,0.714,0.269,0.96c0.301,0.461,0.831,0.691,1.59,0.691
			c0.34,0,0.65-0.051,0.93-0.151c0.541-0.196,0.811-0.546,0.811-1.051c0-0.378-0.114-0.647-0.344-0.809
			c-0.232-0.158-0.596-0.295-1.09-0.412l-0.912-0.213c-0.596-0.139-1.017-0.291-1.265-0.458c-0.428-0.291-0.642-0.725-0.642-1.302
			c0-0.624,0.21-1.137,0.63-1.537s1.016-0.601,1.786-0.601c0.709,0,1.311,0.176,1.807,0.527c0.496,0.352,0.743,0.914,0.743,1.687
			h-0.885c-0.045-0.372-0.142-0.657-0.29-0.856c-0.275-0.362-0.742-0.544-1.401-0.544c-0.532,0-0.915,0.117-1.147,0.351
			s-0.349,0.504-0.349,0.813c0,0.341,0.137,0.59,0.413,0.747c0.18,0.102,0.588,0.228,1.224,0.379l0.944,0.222
			c0.455,0.107,0.807,0.254,1.054,0.44c0.428,0.324,0.642,0.796,0.642,1.414c0,0.77-0.273,1.32-0.819,1.651
			s-1.181,0.496-1.903,0.496c-0.843,0-1.502-0.221-1.979-0.662c-0.477-0.438-0.71-1.032-0.701-1.783H38.976z"/>
		<path fill="#312F81" d="M49.875,568.339v0.828h-2.342v6.121h-0.951v-6.121h-2.341v-0.828H49.875z"/>
		<path fill="#312F81" d="M52.054,568.339h1.063l2.522,6.949h-1.031l-0.726-2.081h-2.726l-0.754,2.081h-0.965L52.054,568.339z
			 M53.615,572.44l-1.07-3.07l-1.112,3.07H53.615z"/>
		<path fill="#312F81" d="M56.602,568.339h3.159c0.52,0,0.949,0.077,1.287,0.232c0.641,0.296,0.961,0.843,0.961,1.641
			c0,0.417-0.086,0.757-0.258,1.022c-0.172,0.265-0.412,0.478-0.721,0.639c0.271,0.11,0.475,0.255,0.612,0.435
			s0.214,0.472,0.229,0.875l0.033,0.933c0.009,0.265,0.031,0.462,0.066,0.591c0.057,0.221,0.157,0.363,0.303,0.426v0.156h-1.154
			c-0.032-0.06-0.057-0.137-0.076-0.231s-0.035-0.277-0.047-0.549l-0.057-1.159c-0.021-0.454-0.186-0.759-0.492-0.913
			c-0.175-0.085-0.449-0.128-0.823-0.128h-2.082v2.98h-0.941V568.339z M59.659,571.522c0.429,0,0.769-0.088,1.019-0.265
			s0.375-0.495,0.375-0.956c0-0.494-0.175-0.832-0.524-1.012c-0.187-0.095-0.437-0.142-0.75-0.142h-2.235v2.374H59.659z"/>
		<path fill="#312F81" d="M68.366,568.339v0.828h-2.342v6.121h-0.951v-6.121h-2.341v-0.828H68.366z"/>
		<path fill="#312F81" d="M69.615,568.339h0.96v2.285l-0.232,3.009h-0.482l-0.246-3.009V568.339z M69.615,574.304h0.941v0.984
			h-0.941V574.304z"/>
		<path fill="#312F81" d="M38.422,584.671c0.021,0.395,0.111,0.714,0.269,0.96c0.301,0.461,0.831,0.691,1.59,0.691
			c0.34,0,0.65-0.051,0.93-0.151c0.541-0.196,0.811-0.546,0.811-1.051c0-0.378-0.114-0.647-0.344-0.809
			c-0.232-0.158-0.596-0.295-1.09-0.412l-0.912-0.213c-0.596-0.139-1.017-0.291-1.265-0.458c-0.428-0.291-0.642-0.725-0.642-1.302
			c0-0.624,0.21-1.137,0.63-1.537s1.016-0.601,1.786-0.601c0.709,0,1.311,0.176,1.807,0.527c0.496,0.352,0.743,0.914,0.743,1.687
			h-0.885c-0.045-0.372-0.142-0.657-0.29-0.856c-0.275-0.362-0.742-0.544-1.401-0.544c-0.532,0-0.915,0.117-1.147,0.351
			s-0.349,0.504-0.349,0.813c0,0.341,0.137,0.59,0.413,0.747c0.18,0.102,0.588,0.228,1.224,0.379l0.944,0.222
			c0.455,0.107,0.807,0.254,1.054,0.44c0.428,0.324,0.642,0.796,0.642,1.414c0,0.77-0.273,1.32-0.819,1.651
			s-1.181,0.496-1.903,0.496c-0.843,0-1.502-0.221-1.979-0.662c-0.477-0.438-0.71-1.032-0.701-1.783H38.422z"/>
		<path fill="#312F81" d="M46.871,583.847c0.195-0.024,0.326-0.106,0.393-0.245c0.038-0.076,0.057-0.186,0.057-0.328
			c0-0.291-0.103-0.502-0.309-0.634c-0.207-0.131-0.501-0.197-0.885-0.197c-0.444,0-0.759,0.121-0.944,0.361
			c-0.104,0.134-0.171,0.332-0.203,0.595h-0.794c0.016-0.626,0.218-1.062,0.607-1.307c0.389-0.245,0.84-0.368,1.354-0.368
			c0.595,0,1.079,0.113,1.45,0.341c0.369,0.227,0.553,0.58,0.553,1.06v2.919c0,0.088,0.018,0.159,0.055,0.213
			c0.036,0.054,0.113,0.08,0.229,0.08c0.038,0,0.08-0.002,0.127-0.007s0.098-0.012,0.151-0.021v0.629
			c-0.132,0.038-0.233,0.062-0.303,0.071s-0.164,0.014-0.284,0.014c-0.293,0-0.506-0.104-0.639-0.312
			c-0.069-0.11-0.118-0.267-0.146-0.469c-0.174,0.228-0.423,0.425-0.748,0.592s-0.683,0.25-1.074,0.25
			c-0.47,0-0.854-0.143-1.152-0.427c-0.298-0.285-0.447-0.643-0.447-1.07c0-0.47,0.147-0.833,0.44-1.092
			c0.293-0.258,0.678-0.417,1.154-0.477L46.871,583.847z M45.078,586.147c0.18,0.142,0.393,0.212,0.639,0.212
			c0.299,0,0.589-0.069,0.87-0.207c0.473-0.23,0.71-0.606,0.71-1.129v-0.686c-0.104,0.066-0.238,0.122-0.401,0.166
			c-0.164,0.045-0.324,0.076-0.481,0.095l-0.515,0.066c-0.309,0.041-0.541,0.105-0.696,0.193c-0.264,0.148-0.395,0.385-0.395,0.708
			C44.809,585.812,44.898,586.006,45.078,586.147z"/>
		<path fill="#312F81" d="M49.567,579.964h0.852v6.949h-0.852V579.964z"/>
		<path fill="#312F81" d="M54.825,581.986c0.335,0.169,0.591,0.387,0.766,0.655c0.169,0.255,0.282,0.554,0.338,0.894
			c0.05,0.233,0.075,0.605,0.075,1.117H52.32c0.016,0.515,0.136,0.929,0.361,1.24c0.225,0.312,0.574,0.467,1.046,0.467
			c0.441,0,0.793-0.147,1.056-0.441c0.147-0.171,0.251-0.369,0.312-0.595h0.837c-0.022,0.187-0.095,0.394-0.22,0.622
			c-0.125,0.229-0.264,0.416-0.417,0.561c-0.257,0.253-0.574,0.423-0.953,0.512c-0.204,0.05-0.434,0.075-0.69,0.075
			c-0.627,0-1.158-0.229-1.594-0.688s-0.653-1.102-0.653-1.928c0-0.813,0.219-1.474,0.658-1.981
			c0.438-0.508,1.012-0.762,1.721-0.762C54.144,581.733,54.49,581.817,54.825,581.986z M55.13,583.976
			c-0.034-0.369-0.114-0.664-0.239-0.885c-0.231-0.41-0.618-0.615-1.159-0.615c-0.388,0-0.713,0.142-0.976,0.424
			s-0.402,0.641-0.417,1.076H55.13z"/>
		<path fill="#312F81" d="M57.59,585.323c0.026,0.284,0.098,0.502,0.217,0.653c0.219,0.274,0.599,0.411,1.14,0.411
			c0.322,0,0.605-0.068,0.85-0.205c0.245-0.138,0.367-0.35,0.367-0.637c0-0.218-0.098-0.383-0.293-0.497
			c-0.125-0.069-0.372-0.149-0.74-0.241l-0.688-0.17c-0.439-0.107-0.763-0.227-0.971-0.359c-0.372-0.23-0.558-0.549-0.558-0.956
			c0-0.479,0.175-0.867,0.525-1.163c0.35-0.297,0.82-0.444,1.412-0.444c0.773,0,1.332,0.224,1.673,0.671
			c0.214,0.284,0.318,0.59,0.312,0.918h-0.804c-0.016-0.191-0.085-0.365-0.208-0.522c-0.2-0.223-0.547-0.334-1.041-0.334
			c-0.33,0-0.579,0.062-0.749,0.185c-0.169,0.122-0.254,0.284-0.254,0.485c0,0.22,0.111,0.396,0.334,0.527
			c0.128,0.079,0.318,0.148,0.569,0.208l0.573,0.137c0.624,0.148,1.041,0.292,1.253,0.431c0.331,0.218,0.497,0.56,0.497,1.026
			c0,0.451-0.173,0.841-0.52,1.169c-0.347,0.328-0.874,0.492-1.583,0.492c-0.763,0-1.303-0.172-1.621-0.514s-0.488-0.766-0.51-1.271
			H57.59z"/>
		<path fill="#312F81" d="M68.291,582.353c0.448,0.435,0.671,1.074,0.671,1.919c0,0.815-0.197,1.49-0.592,2.022
			s-1.007,0.799-1.836,0.799c-0.692,0-1.242-0.235-1.649-0.706c-0.407-0.472-0.61-1.104-0.61-1.898c0-0.851,0.214-1.527,0.643-2.032
			c0.429-0.504,1.005-0.756,1.729-0.756C67.294,581.7,67.842,581.918,68.291,582.353z M67.762,585.72
			c0.208-0.427,0.311-0.902,0.311-1.425c0-0.473-0.075-0.856-0.225-1.152c-0.237-0.467-0.646-0.7-1.226-0.7
			c-0.515,0-0.889,0.199-1.123,0.596c-0.234,0.397-0.351,0.876-0.351,1.437c0,0.538,0.117,0.987,0.351,1.347
			c0.234,0.358,0.605,0.538,1.113,0.538C67.171,586.359,67.554,586.146,67.762,585.72z"/>
		<path fill="#312F81" d="M70.007,581.847h0.809v0.719c0.24-0.296,0.494-0.509,0.762-0.639c0.268-0.129,0.566-0.193,0.894-0.193
			c0.719,0,1.205,0.251,1.457,0.752c0.139,0.274,0.208,0.667,0.208,1.178v3.25h-0.866v-3.193c0-0.309-0.045-0.558-0.137-0.747
			c-0.151-0.315-0.425-0.473-0.823-0.473c-0.202,0-0.368,0.021-0.497,0.062c-0.233,0.069-0.438,0.208-0.615,0.416
			c-0.142,0.167-0.234,0.34-0.277,0.518c-0.042,0.179-0.063,0.433-0.063,0.765v2.653h-0.852V581.847z"/>
		<path fill="#312F81" d="M80.87,582.003c0.151,0.095,0.322,0.26,0.514,0.497v-2.56h0.818v6.973h-0.766v-0.705
			c-0.198,0.312-0.432,0.538-0.702,0.677c-0.271,0.139-0.58,0.208-0.928,0.208c-0.562,0-1.049-0.237-1.461-0.712
			s-0.617-1.106-0.617-1.895c0-0.738,0.188-1.377,0.563-1.918s0.912-0.812,1.609-0.812C80.286,581.757,80.609,581.839,80.87,582.003
			z M78.97,585.802c0.229,0.365,0.596,0.549,1.101,0.549c0.393,0,0.715-0.17,0.967-0.509s0.379-0.825,0.379-1.46
			c0-0.64-0.13-1.113-0.391-1.421s-0.582-0.461-0.965-0.461c-0.427,0-0.772,0.164-1.038,0.491c-0.265,0.328-0.398,0.811-0.398,1.448
			C78.626,584.981,78.741,585.436,78.97,585.802z"/>
		<path fill="#312F81" d="M86.19,583.847c0.195-0.024,0.326-0.106,0.393-0.245c0.038-0.076,0.057-0.186,0.057-0.328
			c0-0.291-0.103-0.502-0.309-0.634c-0.207-0.131-0.501-0.197-0.885-0.197c-0.444,0-0.759,0.121-0.944,0.361
			c-0.104,0.134-0.171,0.332-0.203,0.595h-0.794c0.016-0.626,0.218-1.062,0.607-1.307c0.389-0.245,0.84-0.368,1.354-0.368
			c0.595,0,1.079,0.113,1.45,0.341c0.369,0.227,0.553,0.58,0.553,1.06v2.919c0,0.088,0.018,0.159,0.055,0.213
			c0.036,0.054,0.113,0.08,0.229,0.08c0.038,0,0.08-0.002,0.127-0.007s0.098-0.012,0.151-0.021v0.629
			c-0.132,0.038-0.233,0.062-0.303,0.071s-0.164,0.014-0.284,0.014c-0.293,0-0.506-0.104-0.639-0.312
			c-0.069-0.11-0.118-0.267-0.146-0.469c-0.174,0.228-0.423,0.425-0.748,0.592s-0.683,0.25-1.074,0.25
			c-0.47,0-0.854-0.143-1.152-0.427c-0.298-0.285-0.447-0.643-0.447-1.07c0-0.47,0.147-0.833,0.44-1.092
			c0.293-0.258,0.678-0.417,1.154-0.477L86.19,583.847z M84.397,586.147c0.18,0.142,0.393,0.212,0.639,0.212
			c0.299,0,0.589-0.069,0.87-0.207c0.473-0.23,0.71-0.606,0.71-1.129v-0.686c-0.104,0.066-0.238,0.122-0.401,0.166
			c-0.164,0.045-0.324,0.076-0.481,0.095l-0.515,0.066c-0.309,0.041-0.541,0.105-0.696,0.193c-0.264,0.148-0.395,0.385-0.395,0.708
			C84.127,585.812,84.217,586.006,84.397,586.147z"/>
		<path fill="#312F81" d="M92.03,581.847h0.941c-0.12,0.325-0.386,1.066-0.8,2.225c-0.309,0.871-0.567,1.58-0.775,2.13
			c-0.492,1.292-0.838,2.079-1.04,2.363c-0.202,0.283-0.548,0.425-1.04,0.425c-0.12,0-0.212-0.004-0.276-0.014
			c-0.065-0.01-0.145-0.027-0.239-0.052v-0.776c0.148,0.041,0.255,0.066,0.321,0.076c0.066,0.009,0.125,0.014,0.175,0.014
			c0.158,0,0.273-0.025,0.347-0.077c0.074-0.053,0.136-0.116,0.187-0.191c0.016-0.025,0.073-0.154,0.17-0.388
			c0.098-0.232,0.168-0.405,0.213-0.519l-1.874-5.216h0.965l1.357,4.127L92.03,581.847z"/>
		<path fill="#312F81" d="M96.701,582.116v-0.652c0.615-0.061,1.044-0.16,1.287-0.301c0.243-0.14,0.424-0.472,0.544-0.995h0.672
			v6.745h-0.908v-4.797H96.701z"/>
	</g>
	<g>
		<path fill="#312F81" d="M135.639,555.367c0.192-0.457,0.646-0.94,1.362-1.452c0.622-0.444,1.023-0.763,1.207-0.955
			c0.28-0.3,0.421-0.628,0.421-0.984c0-0.29-0.081-0.531-0.241-0.724c-0.161-0.192-0.391-0.288-0.691-0.288
			c-0.41,0-0.689,0.152-0.837,0.459c-0.085,0.177-0.136,0.457-0.151,0.842h-1.311c0.022-0.584,0.128-1.055,0.317-1.414
			c0.36-0.685,0.999-1.027,1.917-1.027c0.726,0,1.304,0.201,1.733,0.604c0.429,0.402,0.644,0.935,0.644,1.597
			c0,0.508-0.152,0.959-0.455,1.353c-0.199,0.262-0.526,0.554-0.981,0.875l-0.541,0.384c-0.338,0.239-0.569,0.413-0.694,0.52
			c-0.125,0.107-0.229,0.232-0.314,0.374h2.994v1.188h-4.697C135.334,556.224,135.44,555.774,135.639,555.367z"/>
		<path fill="#312F81" d="M144.913,550.731c0.352,0.615,0.527,1.489,0.527,2.621s-0.176,2.004-0.527,2.616
			c-0.352,0.611-0.964,0.917-1.838,0.917s-1.486-0.306-1.838-0.917c-0.352-0.612-0.527-1.484-0.527-2.616s0.176-2.006,0.527-2.621
			c0.352-0.614,0.964-0.922,1.838-0.922S144.561,550.117,144.913,550.731z M142.28,555.162c0.129,0.418,0.395,0.627,0.795,0.627
			s0.663-0.209,0.788-0.627s0.187-1.021,0.187-1.81c0-0.826-0.062-1.438-0.187-1.835c-0.125-0.397-0.387-0.597-0.788-0.597
			s-0.666,0.199-0.795,0.597c-0.129,0.396-0.194,1.009-0.194,1.835C142.086,554.141,142.151,554.744,142.28,555.162z"/>
		<path fill="#312F81" d="M146.467,551.985v-0.918c0.424-0.019,0.722-0.047,0.892-0.085c0.271-0.06,0.491-0.18,0.661-0.359
			c0.116-0.123,0.205-0.287,0.264-0.492c0.035-0.123,0.052-0.214,0.052-0.274h1.126v6.859h-1.381v-4.73H146.467z"/>
		<path fill="#312F81" d="M152.763,554.61c0,0.274,0.044,0.502,0.132,0.682c0.164,0.331,0.461,0.497,0.892,0.497
			c0.264,0,0.495-0.091,0.691-0.272s0.295-0.442,0.295-0.783c0-0.45-0.182-0.752-0.547-0.903c-0.208-0.085-0.535-0.128-0.981-0.128
			v-0.965c0.437-0.006,0.742-0.049,0.915-0.128c0.298-0.132,0.448-0.4,0.448-0.804c0-0.262-0.076-0.475-0.229-0.639
			c-0.152-0.164-0.367-0.246-0.644-0.246c-0.317,0-0.551,0.102-0.7,0.303c-0.149,0.202-0.221,0.472-0.215,0.809h-1.258
			c0.013-0.34,0.071-0.663,0.175-0.97c0.11-0.268,0.284-0.516,0.52-0.742c0.176-0.161,0.386-0.284,0.628-0.369
			c0.242-0.085,0.54-0.128,0.893-0.128c0.655,0,1.184,0.17,1.585,0.509c0.401,0.339,0.602,0.794,0.602,1.365
			c0,0.403-0.12,0.744-0.359,1.021c-0.151,0.174-0.309,0.292-0.473,0.354c0.123,0,0.3,0.105,0.53,0.317
			c0.344,0.318,0.516,0.754,0.516,1.306c0,0.58-0.201,1.09-0.603,1.53c-0.401,0.439-0.996,0.659-1.784,0.659
			c-0.97,0-1.645-0.316-2.022-0.95c-0.199-0.338-0.309-0.779-0.331-1.325H152.763z"/>
		<path fill="#312F81" d="M157.668,551.759h1.433v1.414h-1.433V551.759z M157.668,555.302h1.433v1.414h-1.433V555.302z"/>
		<path fill="#312F81" d="M163.416,551.919v-0.652c0.615-0.061,1.044-0.16,1.287-0.301c0.243-0.14,0.424-0.472,0.544-0.995h0.672
			v6.745h-0.908v-4.797H163.416z"/>
		<path fill="#312F81" d="M169.007,555.126c0.026,0.284,0.098,0.502,0.217,0.653c0.219,0.274,0.599,0.411,1.14,0.411
			c0.322,0,0.605-0.068,0.85-0.205c0.245-0.138,0.367-0.35,0.367-0.637c0-0.218-0.098-0.383-0.293-0.497
			c-0.125-0.069-0.372-0.149-0.74-0.241l-0.688-0.17c-0.439-0.107-0.763-0.227-0.971-0.359c-0.372-0.23-0.558-0.549-0.558-0.956
			c0-0.479,0.175-0.867,0.525-1.163c0.35-0.297,0.82-0.444,1.412-0.444c0.773,0,1.332,0.224,1.673,0.671
			c0.214,0.284,0.318,0.59,0.312,0.918h-0.804c-0.016-0.191-0.085-0.365-0.208-0.522c-0.2-0.223-0.547-0.334-1.041-0.334
			c-0.33,0-0.579,0.062-0.749,0.185c-0.169,0.122-0.254,0.284-0.254,0.485c0,0.22,0.111,0.396,0.334,0.527
			c0.128,0.079,0.318,0.148,0.569,0.208l0.573,0.137c0.624,0.148,1.041,0.292,1.253,0.431c0.331,0.218,0.497,0.56,0.497,1.026
			c0,0.451-0.173,0.841-0.52,1.169c-0.347,0.328-0.874,0.492-1.583,0.492c-0.763,0-1.303-0.172-1.621-0.514s-0.488-0.766-0.51-1.271
			H169.007z"/>
		<path fill="#312F81" d="M173.515,550.235h0.861v1.414h0.809v0.695h-0.809v3.307c0,0.177,0.06,0.295,0.18,0.354
			c0.066,0.035,0.177,0.053,0.331,0.053c0.041,0,0.085-0.001,0.132-0.003c0.047-0.003,0.103-0.008,0.166-0.017v0.677
			c-0.098,0.028-0.199,0.049-0.305,0.062c-0.106,0.013-0.22,0.019-0.343,0.019c-0.397,0-0.667-0.102-0.809-0.305
			c-0.142-0.203-0.213-0.468-0.213-0.792v-3.354h-0.686v-0.695h0.686V550.235z"/>
		<path fill="#312F81" d="M178.728,549.767h0.866v0.965h-0.866V549.767z M178.728,551.673h0.866v5.043h-0.866V551.673z"/>
		<path fill="#312F81" d="M180.88,551.649h0.809v0.719c0.24-0.296,0.494-0.509,0.762-0.639c0.268-0.129,0.566-0.193,0.894-0.193
			c0.719,0,1.205,0.251,1.457,0.752c0.139,0.274,0.208,0.667,0.208,1.178v3.25h-0.866v-3.193c0-0.309-0.045-0.558-0.137-0.747
			c-0.151-0.315-0.425-0.473-0.823-0.473c-0.202,0-0.368,0.021-0.497,0.062c-0.233,0.069-0.438,0.208-0.615,0.416
			c-0.142,0.167-0.234,0.34-0.277,0.518c-0.042,0.179-0.063,0.433-0.063,0.765v2.653h-0.852V551.649z"/>
		<path fill="#312F81" d="M186.687,551.649l1.353,4.125l1.41-4.125h0.932l-1.907,5.066h-0.907l-1.869-5.066H186.687z"/>
		<path fill="#312F81" d="M194.242,551.789c0.335,0.169,0.591,0.387,0.766,0.655c0.169,0.255,0.282,0.554,0.338,0.894
			c0.05,0.233,0.075,0.605,0.075,1.117h-3.685c0.016,0.515,0.136,0.929,0.361,1.24c0.225,0.312,0.574,0.467,1.046,0.467
			c0.441,0,0.793-0.147,1.056-0.441c0.147-0.171,0.251-0.369,0.312-0.595h0.837c-0.022,0.187-0.095,0.394-0.22,0.622
			c-0.125,0.229-0.264,0.416-0.417,0.561c-0.257,0.253-0.574,0.423-0.953,0.512c-0.204,0.05-0.434,0.075-0.69,0.075
			c-0.627,0-1.158-0.229-1.594-0.688s-0.653-1.102-0.653-1.928c0-0.813,0.219-1.474,0.658-1.981
			c0.438-0.508,1.012-0.762,1.721-0.762C193.56,551.536,193.906,551.62,194.242,551.789z M194.546,553.778
			c-0.034-0.369-0.114-0.664-0.239-0.885c-0.231-0.41-0.618-0.615-1.159-0.615c-0.388,0-0.713,0.142-0.976,0.424
			s-0.402,0.641-0.417,1.076H194.546z"/>
		<path fill="#312F81" d="M197.006,555.126c0.026,0.284,0.098,0.502,0.217,0.653c0.219,0.274,0.599,0.411,1.14,0.411
			c0.322,0,0.605-0.068,0.85-0.205c0.245-0.138,0.367-0.35,0.367-0.637c0-0.218-0.098-0.383-0.293-0.497
			c-0.125-0.069-0.372-0.149-0.74-0.241l-0.688-0.17c-0.439-0.107-0.763-0.227-0.971-0.359c-0.372-0.23-0.558-0.549-0.558-0.956
			c0-0.479,0.175-0.867,0.525-1.163c0.35-0.297,0.82-0.444,1.412-0.444c0.773,0,1.332,0.224,1.673,0.671
			c0.214,0.284,0.318,0.59,0.312,0.918h-0.804c-0.016-0.191-0.085-0.365-0.208-0.522c-0.2-0.223-0.547-0.334-1.041-0.334
			c-0.33,0-0.579,0.062-0.749,0.185c-0.169,0.122-0.254,0.284-0.254,0.485c0,0.22,0.111,0.396,0.334,0.527
			c0.128,0.079,0.318,0.148,0.569,0.208l0.573,0.137c0.624,0.148,1.041,0.292,1.253,0.431c0.331,0.218,0.497,0.56,0.497,1.026
			c0,0.451-0.173,0.841-0.52,1.169c-0.347,0.328-0.874,0.492-1.583,0.492c-0.763,0-1.303-0.172-1.621-0.514s-0.488-0.766-0.51-1.271
			H197.006z"/>
		<path fill="#312F81" d="M201.515,550.235h0.861v1.414h0.809v0.695h-0.809v3.307c0,0.177,0.06,0.295,0.18,0.354
			c0.066,0.035,0.177,0.053,0.331,0.053c0.041,0,0.085-0.001,0.132-0.003c0.047-0.003,0.103-0.008,0.166-0.017v0.677
			c-0.098,0.028-0.199,0.049-0.305,0.062c-0.106,0.013-0.22,0.019-0.343,0.019c-0.397,0-0.667-0.102-0.809-0.305
			c-0.142-0.203-0.213-0.468-0.213-0.792v-3.354h-0.686v-0.695h0.686V550.235z"/>
		<path fill="#312F81" d="M204.036,551.649h0.842v0.719c0.202-0.249,0.385-0.43,0.549-0.544c0.281-0.192,0.599-0.288,0.956-0.288
			c0.404,0,0.729,0.1,0.975,0.298c0.139,0.113,0.265,0.281,0.378,0.502c0.189-0.271,0.412-0.473,0.667-0.604
			s0.542-0.196,0.861-0.196c0.681,0,1.145,0.246,1.391,0.738c0.132,0.265,0.199,0.621,0.199,1.068v3.373h-0.885v-3.52
			c0-0.337-0.084-0.569-0.253-0.695c-0.168-0.126-0.375-0.189-0.617-0.189c-0.334,0-0.622,0.112-0.863,0.336
			c-0.241,0.225-0.362,0.598-0.362,1.121v2.947h-0.866v-3.307c0-0.344-0.041-0.595-0.123-0.752
			c-0.129-0.236-0.371-0.354-0.724-0.354c-0.322,0-0.614,0.124-0.877,0.373c-0.264,0.249-0.395,0.7-0.395,1.354v2.687h-0.852
			V551.649z"/>
		<path fill="#312F81" d="M215.235,551.789c0.335,0.169,0.591,0.387,0.766,0.655c0.169,0.255,0.282,0.554,0.338,0.894
			c0.05,0.233,0.075,0.605,0.075,1.117h-3.685c0.016,0.515,0.136,0.929,0.361,1.24c0.225,0.312,0.574,0.467,1.046,0.467
			c0.441,0,0.793-0.147,1.056-0.441c0.147-0.171,0.251-0.369,0.312-0.595h0.837c-0.022,0.187-0.095,0.394-0.22,0.622
			c-0.125,0.229-0.264,0.416-0.417,0.561c-0.257,0.253-0.574,0.423-0.953,0.512c-0.204,0.05-0.434,0.075-0.69,0.075
			c-0.627,0-1.158-0.229-1.594-0.688s-0.653-1.102-0.653-1.928c0-0.813,0.219-1.474,0.658-1.981
			c0.438-0.508,1.012-0.762,1.721-0.762C214.554,551.536,214.9,551.62,215.235,551.789z M215.54,553.778
			c-0.034-0.369-0.114-0.664-0.239-0.885c-0.231-0.41-0.618-0.615-1.159-0.615c-0.388,0-0.713,0.142-0.976,0.424
			s-0.402,0.641-0.417,1.076H215.54z"/>
		<path fill="#312F81" d="M217.494,551.649h0.809v0.719c0.24-0.296,0.494-0.509,0.762-0.639c0.268-0.129,0.566-0.193,0.894-0.193
			c0.719,0,1.205,0.251,1.457,0.752c0.139,0.274,0.208,0.667,0.208,1.178v3.25h-0.866v-3.193c0-0.309-0.045-0.558-0.137-0.747
			c-0.151-0.315-0.425-0.473-0.823-0.473c-0.202,0-0.368,0.021-0.497,0.062c-0.233,0.069-0.438,0.208-0.615,0.416
			c-0.142,0.167-0.234,0.34-0.277,0.518c-0.042,0.179-0.063,0.433-0.063,0.765v2.653h-0.852V551.649z"/>
		<path fill="#312F81" d="M223.052,550.235h0.861v1.414h0.809v0.695h-0.809v3.307c0,0.177,0.06,0.295,0.18,0.354
			c0.066,0.035,0.177,0.053,0.331,0.053c0.041,0,0.085-0.001,0.132-0.003c0.047-0.003,0.103-0.008,0.166-0.017v0.677
			c-0.098,0.028-0.199,0.049-0.305,0.062c-0.106,0.013-0.22,0.019-0.343,0.019c-0.397,0-0.667-0.102-0.809-0.305
			c-0.142-0.203-0.213-0.468-0.213-0.792v-3.354h-0.686v-0.695h0.686V550.235z"/>
	</g>
	<g>
		<path fill="#312F81" d="M264.503,517.558c0.192-0.457,0.646-0.94,1.362-1.452c0.622-0.444,1.023-0.763,1.207-0.955
			c0.28-0.3,0.421-0.628,0.421-0.984c0-0.29-0.081-0.531-0.241-0.724c-0.161-0.192-0.391-0.288-0.691-0.288
			c-0.41,0-0.689,0.152-0.837,0.459c-0.085,0.177-0.136,0.457-0.151,0.842h-1.311c0.022-0.584,0.128-1.055,0.317-1.414
			c0.36-0.685,0.999-1.027,1.917-1.027c0.726,0,1.304,0.201,1.733,0.604c0.429,0.402,0.644,0.935,0.644,1.597
			c0,0.508-0.152,0.959-0.455,1.353c-0.199,0.262-0.526,0.554-0.981,0.875l-0.541,0.384c-0.338,0.239-0.569,0.413-0.694,0.52
			c-0.125,0.107-0.229,0.232-0.314,0.374h2.994v1.188h-4.697C264.199,518.414,264.304,517.965,264.503,517.558z"/>
		<path fill="#312F81" d="M273.777,512.922c0.352,0.615,0.527,1.489,0.527,2.621s-0.176,2.004-0.527,2.616
			c-0.352,0.611-0.964,0.917-1.838,0.917s-1.486-0.306-1.838-0.917c-0.352-0.612-0.527-1.484-0.527-2.616s0.176-2.006,0.527-2.621
			c0.352-0.614,0.964-0.922,1.838-0.922S273.425,512.308,273.777,512.922z M271.145,517.353c0.129,0.418,0.395,0.627,0.795,0.627
			s0.663-0.209,0.788-0.627s0.187-1.021,0.187-1.81c0-0.826-0.062-1.438-0.187-1.835c-0.125-0.397-0.387-0.597-0.788-0.597
			s-0.666,0.199-0.795,0.597c-0.129,0.396-0.194,1.009-0.194,1.835C270.951,516.331,271.016,516.935,271.145,517.353z"/>
		<path fill="#312F81" d="M275.331,514.176v-0.918c0.424-0.019,0.722-0.047,0.892-0.085c0.271-0.06,0.491-0.18,0.661-0.359
			c0.116-0.123,0.205-0.287,0.264-0.492c0.035-0.123,0.052-0.214,0.052-0.274h1.126v6.859h-1.381v-4.73H275.331z"/>
		<path fill="#312F81" d="M285.113,517.431h-0.776v1.476h-1.32v-1.476h-2.715v-1.178l2.521-4.163h1.514v4.285h0.776V517.431z
			 M283.018,516.375v-2.954l-1.712,2.954H283.018z"/>
		<path fill="#312F81" d="M286.533,513.949h1.433v1.414h-1.433V513.949z M286.533,517.492h1.433v1.414h-1.433V517.492z"/>
		<path fill="#312F81" d="M292.091,511.957h0.941v6.121h3.486v0.828h-4.428V511.957z"/>
		<path fill="#312F81" d="M300.081,515.84c0.195-0.024,0.326-0.106,0.393-0.245c0.038-0.076,0.057-0.186,0.057-0.328
			c0-0.291-0.103-0.502-0.309-0.634c-0.207-0.131-0.501-0.197-0.885-0.197c-0.444,0-0.759,0.121-0.944,0.361
			c-0.104,0.134-0.171,0.332-0.203,0.595h-0.794c0.016-0.626,0.218-1.062,0.607-1.307c0.389-0.245,0.84-0.368,1.354-0.368
			c0.595,0,1.079,0.113,1.45,0.341c0.369,0.227,0.553,0.58,0.553,1.06v2.919c0,0.088,0.018,0.159,0.055,0.213
			c0.036,0.054,0.113,0.08,0.229,0.08c0.038,0,0.08-0.002,0.127-0.007s0.098-0.012,0.151-0.021v0.629
			c-0.132,0.038-0.233,0.062-0.303,0.071s-0.164,0.014-0.284,0.014c-0.293,0-0.506-0.104-0.639-0.312
			c-0.069-0.11-0.118-0.267-0.146-0.469c-0.174,0.228-0.423,0.425-0.748,0.592s-0.683,0.25-1.074,0.25
			c-0.47,0-0.854-0.143-1.152-0.427c-0.298-0.285-0.447-0.643-0.447-1.07c0-0.47,0.147-0.833,0.44-1.092
			c0.293-0.258,0.678-0.417,1.154-0.477L300.081,515.84z M298.288,518.141c0.18,0.142,0.393,0.212,0.639,0.212
			c0.299,0,0.589-0.069,0.87-0.207c0.473-0.23,0.71-0.606,0.71-1.129v-0.686c-0.104,0.066-0.238,0.122-0.401,0.166
			c-0.164,0.045-0.324,0.076-0.481,0.095l-0.515,0.066c-0.309,0.041-0.541,0.105-0.696,0.193c-0.264,0.148-0.395,0.385-0.395,0.708
			C298.018,517.806,298.108,517.999,298.288,518.141z"/>
		<path fill="#312F81" d="M303.605,513.84v3.363c0,0.259,0.04,0.47,0.12,0.634c0.147,0.303,0.422,0.454,0.825,0.454
			c0.577,0,0.97-0.265,1.179-0.794c0.114-0.284,0.17-0.674,0.17-1.169v-2.488h0.852v5.066h-0.804l0.01-0.747
			c-0.109,0.192-0.243,0.354-0.404,0.487c-0.319,0.265-0.706,0.396-1.16,0.396c-0.709,0-1.191-0.241-1.448-0.724
			c-0.139-0.258-0.209-0.604-0.209-1.035v-3.444H303.605z"/>
		<path fill="#312F81" d="M308.141,513.84h0.809v0.719c0.24-0.296,0.494-0.509,0.762-0.639c0.268-0.129,0.566-0.193,0.894-0.193
			c0.719,0,1.205,0.251,1.457,0.752c0.139,0.274,0.208,0.667,0.208,1.178v3.25h-0.866v-3.193c0-0.309-0.045-0.558-0.137-0.747
			c-0.151-0.315-0.425-0.473-0.823-0.473c-0.202,0-0.368,0.021-0.497,0.062c-0.233,0.069-0.438,0.208-0.615,0.416
			c-0.142,0.167-0.234,0.34-0.277,0.518c-0.042,0.179-0.063,0.433-0.063,0.765v2.653h-0.852V513.84z"/>
		<path fill="#312F81" d="M316.876,514.109c0.358,0.277,0.573,0.756,0.646,1.434h-0.828c-0.05-0.312-0.166-0.571-0.345-0.778
			c-0.18-0.206-0.468-0.31-0.866-0.31c-0.542,0-0.93,0.265-1.164,0.794c-0.151,0.343-0.227,0.767-0.227,1.271
			c0,0.507,0.107,0.934,0.321,1.28c0.215,0.347,0.552,0.52,1.013,0.52c0.353,0,0.633-0.107,0.839-0.322s0.349-0.51,0.428-0.884
			h0.828c-0.094,0.672-0.331,1.163-0.709,1.474s-0.862,0.466-1.452,0.466c-0.662,0-1.19-0.242-1.584-0.726
			c-0.395-0.484-0.591-1.089-0.591-1.814c0-0.89,0.216-1.582,0.648-2.077c0.432-0.494,0.982-0.742,1.651-0.742
			C316.054,513.693,316.518,513.832,316.876,514.109z"/>
		<path fill="#312F81" d="M318.373,511.934h0.852v2.593c0.202-0.256,0.383-0.436,0.544-0.54c0.274-0.18,0.616-0.27,1.026-0.27
			c0.735,0,1.233,0.257,1.495,0.771c0.142,0.28,0.213,0.67,0.213,1.168v3.25h-0.875v-3.193c0-0.372-0.047-0.645-0.142-0.818
			c-0.154-0.277-0.444-0.416-0.87-0.416c-0.354,0-0.673,0.121-0.96,0.364s-0.43,0.702-0.43,1.377v2.687h-0.852V511.934z"/>
		<path fill="#312F81" d="M330.124,514.346c0.448,0.435,0.671,1.074,0.671,1.919c0,0.815-0.197,1.49-0.592,2.022
			s-1.007,0.799-1.836,0.799c-0.692,0-1.242-0.235-1.649-0.706c-0.407-0.472-0.61-1.104-0.61-1.898c0-0.851,0.214-1.527,0.643-2.032
			c0.429-0.504,1.005-0.756,1.729-0.756C329.127,513.693,329.675,513.911,330.124,514.346z M329.595,517.713
			c0.208-0.427,0.311-0.902,0.311-1.425c0-0.473-0.075-0.856-0.225-1.152c-0.237-0.467-0.646-0.7-1.226-0.7
			c-0.515,0-0.889,0.199-1.123,0.596c-0.234,0.397-0.351,0.876-0.351,1.437c0,0.538,0.117,0.987,0.351,1.347
			c0.234,0.358,0.605,0.538,1.113,0.538C329.004,518.353,329.387,518.14,329.595,517.713z"/>
		<path fill="#312F81" d="M332.692,513.84v3.363c0,0.259,0.04,0.47,0.12,0.634c0.147,0.303,0.422,0.454,0.825,0.454
			c0.577,0,0.97-0.265,1.179-0.794c0.114-0.284,0.17-0.674,0.17-1.169v-2.488h0.852v5.066h-0.804l0.01-0.747
			c-0.109,0.192-0.243,0.354-0.404,0.487c-0.319,0.265-0.706,0.396-1.16,0.396c-0.709,0-1.191-0.241-1.448-0.724
			c-0.139-0.258-0.209-0.604-0.209-1.035v-3.444H332.692z"/>
		<path fill="#312F81" d="M337.252,513.84h0.809v0.875c0.066-0.17,0.229-0.377,0.487-0.622c0.258-0.244,0.557-0.366,0.894-0.366
			c0.016,0,0.042,0.002,0.08,0.005c0.038,0.003,0.103,0.009,0.194,0.019v0.898c-0.051-0.009-0.097-0.016-0.14-0.019
			s-0.089-0.005-0.14-0.005c-0.429,0-0.758,0.139-0.989,0.414c-0.23,0.276-0.345,0.594-0.345,0.953v2.914h-0.852V513.84z"/>
		<path fill="#312F81" d="M343.543,512.293c0.198-0.29,0.582-0.435,1.149-0.435c0.053,0,0.109,0.001,0.166,0.004
			c0.057,0.004,0.121,0.008,0.194,0.015v0.775c-0.089-0.006-0.154-0.01-0.194-0.012c-0.04-0.001-0.077-0.002-0.112-0.002
			c-0.262,0-0.418,0.066-0.469,0.201c-0.051,0.134-0.077,0.475-0.077,1.023h0.852v0.672h-0.852v4.371h-0.842v-4.371h-0.705v-0.672
			h0.705v-0.794C343.371,512.716,343.433,512.457,343.543,512.293z"/>
		<path fill="#312F81" d="M345.838,511.957h0.866v0.965h-0.866V511.957z M345.838,513.863h0.866v5.043h-0.866V513.863z"/>
		<path fill="#312F81" d="M348.014,513.84h0.809v0.875c0.066-0.17,0.229-0.377,0.487-0.622c0.258-0.244,0.557-0.366,0.894-0.366
			c0.016,0,0.042,0.002,0.08,0.005c0.038,0.003,0.103,0.009,0.194,0.019v0.898c-0.051-0.009-0.097-0.016-0.14-0.019
			s-0.089-0.005-0.14-0.005c-0.429,0-0.758,0.139-0.989,0.414c-0.23,0.276-0.345,0.594-0.345,0.953v2.914h-0.852V513.84z"/>
		<path fill="#312F81" d="M351.722,517.316c0.026,0.284,0.098,0.502,0.217,0.653c0.219,0.274,0.599,0.411,1.14,0.411
			c0.322,0,0.605-0.068,0.85-0.205c0.245-0.138,0.367-0.35,0.367-0.637c0-0.218-0.098-0.383-0.293-0.497
			c-0.125-0.069-0.372-0.149-0.74-0.241l-0.688-0.17c-0.439-0.107-0.763-0.227-0.971-0.359c-0.372-0.23-0.558-0.549-0.558-0.956
			c0-0.479,0.175-0.867,0.525-1.163c0.35-0.297,0.82-0.444,1.412-0.444c0.773,0,1.332,0.224,1.673,0.671
			c0.214,0.284,0.318,0.59,0.312,0.918h-0.804c-0.016-0.191-0.085-0.365-0.208-0.522c-0.2-0.223-0.547-0.334-1.041-0.334
			c-0.33,0-0.579,0.062-0.749,0.185c-0.169,0.122-0.254,0.284-0.254,0.485c0,0.22,0.111,0.396,0.334,0.527
			c0.128,0.079,0.318,0.148,0.569,0.208l0.573,0.137c0.624,0.148,1.041,0.292,1.253,0.431c0.331,0.218,0.497,0.56,0.497,1.026
			c0,0.451-0.173,0.841-0.52,1.169c-0.347,0.328-0.874,0.492-1.583,0.492c-0.763,0-1.303-0.172-1.621-0.514s-0.488-0.766-0.51-1.271
			H351.722z"/>
		<path fill="#312F81" d="M356.23,512.426h0.861v1.414h0.809v0.695h-0.809v3.307c0,0.177,0.06,0.295,0.18,0.354
			c0.066,0.035,0.177,0.053,0.331,0.053c0.041,0,0.085-0.001,0.132-0.003c0.047-0.003,0.103-0.008,0.166-0.017v0.677
			c-0.098,0.028-0.199,0.049-0.305,0.062c-0.106,0.013-0.22,0.019-0.343,0.019c-0.397,0-0.667-0.102-0.809-0.305
			c-0.142-0.203-0.213-0.468-0.213-0.792v-3.354h-0.686v-0.695h0.686V512.426z"/>
		<path fill="#312F81" d="M361.372,513.863h0.833v0.672c0.17-0.229,0.357-0.408,0.56-0.534c0.288-0.189,0.626-0.284,1.015-0.284
			c0.576,0,1.064,0.22,1.466,0.66c0.401,0.439,0.602,1.068,0.602,1.885c0,1.104-0.29,1.893-0.869,2.365
			c-0.367,0.3-0.794,0.449-1.282,0.449c-0.383,0-0.704-0.083-0.964-0.25c-0.152-0.095-0.321-0.258-0.508-0.487v2.587h-0.852V513.863
			z M364.576,517.835c0.264-0.333,0.396-0.83,0.396-1.492c0-0.404-0.059-0.751-0.176-1.041c-0.221-0.559-0.626-0.837-1.215-0.837
			c-0.592,0-0.997,0.295-1.215,0.884c-0.117,0.315-0.176,0.716-0.176,1.202c0,0.391,0.059,0.724,0.176,0.998
			c0.222,0.523,0.626,0.785,1.215,0.785C363.98,518.334,364.312,518.168,364.576,517.835z"/>
		<path fill="#312F81" d="M366.855,513.84h0.809v0.875c0.066-0.17,0.229-0.377,0.487-0.622c0.258-0.244,0.557-0.366,0.894-0.366
			c0.016,0,0.042,0.002,0.08,0.005c0.038,0.003,0.103,0.009,0.194,0.019v0.898c-0.051-0.009-0.097-0.016-0.14-0.019
			s-0.089-0.005-0.14-0.005c-0.429,0-0.758,0.139-0.989,0.414c-0.23,0.276-0.345,0.594-0.345,0.953v2.914h-0.852V513.84z"/>
		<path fill="#312F81" d="M373.729,514.346c0.448,0.435,0.671,1.074,0.671,1.919c0,0.815-0.197,1.49-0.592,2.022
			s-1.007,0.799-1.836,0.799c-0.692,0-1.242-0.235-1.649-0.706c-0.407-0.472-0.61-1.104-0.61-1.898c0-0.851,0.214-1.527,0.643-2.032
			c0.429-0.504,1.005-0.756,1.729-0.756C372.732,513.693,373.28,513.911,373.729,514.346z M373.2,517.713
			c0.208-0.427,0.311-0.902,0.311-1.425c0-0.473-0.075-0.856-0.225-1.152c-0.237-0.467-0.646-0.7-1.226-0.7
			c-0.515,0-0.889,0.199-1.123,0.596c-0.234,0.397-0.351,0.876-0.351,1.437c0,0.538,0.117,0.987,0.351,1.347
			c0.234,0.358,0.605,0.538,1.113,0.538C372.609,518.353,372.992,518.14,373.2,517.713z"/>
		<path fill="#312F81" d="M378.229,513.996c0.151,0.095,0.322,0.26,0.514,0.497v-2.56h0.818v6.973h-0.766v-0.705
			c-0.198,0.312-0.432,0.538-0.702,0.677c-0.271,0.139-0.58,0.208-0.928,0.208c-0.562,0-1.049-0.237-1.461-0.712
			s-0.617-1.106-0.617-1.895c0-0.738,0.188-1.377,0.563-1.918s0.912-0.812,1.609-0.812
			C377.645,513.75,377.968,513.832,378.229,513.996z M376.328,517.795c0.229,0.365,0.596,0.549,1.101,0.549
			c0.393,0,0.715-0.17,0.967-0.509s0.379-0.825,0.379-1.46c0-0.64-0.13-1.113-0.391-1.421s-0.582-0.461-0.965-0.461
			c-0.427,0-0.772,0.164-1.038,0.491c-0.265,0.328-0.398,0.811-0.398,1.448C375.984,516.975,376.099,517.429,376.328,517.795z"/>
		<path fill="#312F81" d="M381.685,513.84v3.363c0,0.259,0.04,0.47,0.12,0.634c0.147,0.303,0.422,0.454,0.825,0.454
			c0.577,0,0.97-0.265,1.179-0.794c0.114-0.284,0.17-0.674,0.17-1.169v-2.488h0.852v5.066h-0.804l0.01-0.747
			c-0.109,0.192-0.243,0.354-0.404,0.487c-0.319,0.265-0.706,0.396-1.16,0.396c-0.709,0-1.191-0.241-1.448-0.724
			c-0.139-0.258-0.209-0.604-0.209-1.035v-3.444H381.685z"/>
		<path fill="#312F81" d="M389.568,514.109c0.358,0.277,0.573,0.756,0.646,1.434h-0.828c-0.05-0.312-0.166-0.571-0.345-0.778
			c-0.18-0.206-0.468-0.31-0.866-0.31c-0.542,0-0.93,0.265-1.164,0.794c-0.151,0.343-0.227,0.767-0.227,1.271
			c0,0.507,0.107,0.934,0.321,1.28c0.215,0.347,0.552,0.52,1.013,0.52c0.353,0,0.633-0.107,0.839-0.322s0.349-0.51,0.428-0.884
			h0.828c-0.094,0.672-0.331,1.163-0.709,1.474s-0.862,0.466-1.452,0.466c-0.662,0-1.19-0.242-1.584-0.726
			c-0.395-0.484-0.591-1.089-0.591-1.814c0-0.89,0.216-1.582,0.648-2.077c0.432-0.494,0.982-0.742,1.651-0.742
			C388.746,513.693,389.21,513.832,389.568,514.109z"/>
		<path fill="#312F81" d="M391.236,512.426h0.861v1.414h0.809v0.695h-0.809v3.307c0,0.177,0.06,0.295,0.18,0.354
			c0.066,0.035,0.177,0.053,0.331,0.053c0.041,0,0.085-0.001,0.132-0.003c0.047-0.003,0.103-0.008,0.166-0.017v0.677
			c-0.098,0.028-0.199,0.049-0.305,0.062c-0.106,0.013-0.22,0.019-0.343,0.019c-0.397,0-0.667-0.102-0.809-0.305
			c-0.142-0.203-0.213-0.468-0.213-0.792v-3.354h-0.686v-0.695h0.686V512.426z"/>
		<path fill="#312F81" d="M291.514,523.582h1.349l1.998,5.875l1.984-5.875h1.339v6.949h-0.899v-4.102
			c0-0.142,0.003-0.377,0.009-0.704c0.006-0.328,0.01-0.68,0.01-1.056l-1.984,5.861h-0.933l-2.003-5.861v0.213
			c0,0.171,0.005,0.43,0.015,0.778c0.009,0.349,0.014,0.604,0.014,0.769v4.102h-0.899V523.582z"/>
		<path fill="#312F81" d="M301.635,523.582h1.063l2.522,6.949h-1.031l-0.726-2.081h-2.726l-0.754,2.081h-0.965L301.635,523.582z
			 M303.196,527.684l-1.07-3.07l-1.112,3.07H303.196z"/>
		<path fill="#312F81" d="M306.684,528.289c0.021,0.395,0.111,0.714,0.269,0.96c0.301,0.461,0.831,0.691,1.59,0.691
			c0.34,0,0.65-0.051,0.93-0.151c0.541-0.196,0.811-0.546,0.811-1.051c0-0.378-0.114-0.647-0.344-0.809
			c-0.232-0.158-0.596-0.295-1.09-0.412l-0.912-0.213c-0.596-0.139-1.017-0.291-1.265-0.458c-0.428-0.291-0.642-0.725-0.642-1.302
			c0-0.624,0.21-1.137,0.63-1.537s1.016-0.601,1.786-0.601c0.709,0,1.311,0.176,1.807,0.527c0.496,0.352,0.743,0.914,0.743,1.687
			h-0.885c-0.045-0.372-0.142-0.657-0.29-0.856c-0.275-0.362-0.742-0.544-1.401-0.544c-0.532,0-0.915,0.117-1.147,0.351
			s-0.349,0.504-0.349,0.813c0,0.341,0.137,0.59,0.413,0.747c0.18,0.102,0.588,0.228,1.224,0.379l0.944,0.222
			c0.455,0.107,0.807,0.254,1.054,0.44c0.428,0.324,0.642,0.796,0.642,1.414c0,0.77-0.273,1.32-0.819,1.651
			s-1.181,0.496-1.903,0.496c-0.843,0-1.502-0.221-1.979-0.662c-0.477-0.438-0.71-1.032-0.701-1.783H306.684z"/>
		<path fill="#312F81" d="M312.531,523.582h0.918v3.401l3.477-3.401h1.316l-2.969,2.805l3.031,4.145h-1.232l-2.49-3.492l-1.132,1.07
			v2.422h-0.918V523.582z"/>
		<path fill="#312F81" d="M324.717,524.575c0.46,0.615,0.69,1.402,0.69,2.361c0,1.037-0.263,1.899-0.79,2.587
			c-0.618,0.808-1.5,1.211-2.644,1.211c-1.069,0-1.91-0.353-2.521-1.06c-0.545-0.681-0.818-1.542-0.818-2.583
			c0-0.939,0.233-1.743,0.7-2.412c0.599-0.857,1.485-1.287,2.658-1.287C323.219,523.393,324.127,523.787,324.717,524.575z
			 M323.886,529.005c0.371-0.595,0.556-1.279,0.556-2.053c0-0.817-0.214-1.475-0.641-1.974s-1.012-0.748-1.752-0.748
			c-0.719,0-1.306,0.247-1.76,0.741c-0.454,0.493-0.681,1.222-0.681,2.185c0,0.771,0.194,1.42,0.584,1.948s1.021,0.793,1.895,0.793
			C322.916,529.897,323.516,529.6,323.886,529.005z"/>
		<path fill="#312F81" d="M332.252,524.575c0.46,0.615,0.69,1.402,0.69,2.361c0,1.037-0.263,1.899-0.79,2.587
			c-0.618,0.808-1.5,1.211-2.644,1.211c-1.069,0-1.91-0.353-2.521-1.06c-0.545-0.681-0.818-1.542-0.818-2.583
			c0-0.939,0.233-1.743,0.7-2.412c0.599-0.857,1.485-1.287,2.658-1.287C330.754,523.393,331.662,523.787,332.252,524.575z
			 M331.421,529.005c0.371-0.595,0.556-1.279,0.556-2.053c0-0.817-0.214-1.475-0.641-1.974s-1.012-0.748-1.752-0.748
			c-0.719,0-1.306,0.247-1.76,0.741c-0.454,0.493-0.681,1.222-0.681,2.185c0,0.771,0.194,1.42,0.584,1.948s1.021,0.793,1.895,0.793
			C330.451,529.897,331.051,529.6,331.421,529.005z"/>
		<path fill="#312F81" d="M334.063,523.582h0.941v6.121h3.486v0.828h-4.428V523.582z"/>
		<path fill="#312F81" d="M339.665,523.582h0.951v6.949h-0.951V523.582z"/>
		<path fill="#312F81" d="M342.143,523.582h1.109l3.466,5.615v-5.615h0.898v6.949h-1.058l-3.517-5.607v5.607h-0.899V523.582z"/>
	</g>
	<g>
		<path fill="#312F81" d="M404.784,477.24c0.192-0.457,0.646-0.94,1.362-1.452c0.622-0.444,1.023-0.763,1.207-0.955
			c0.28-0.3,0.421-0.628,0.421-0.984c0-0.29-0.081-0.531-0.241-0.724c-0.161-0.192-0.391-0.288-0.691-0.288
			c-0.41,0-0.689,0.152-0.837,0.459c-0.085,0.177-0.136,0.457-0.151,0.842h-1.311c0.022-0.584,0.128-1.055,0.317-1.414
			c0.36-0.685,0.999-1.027,1.917-1.027c0.726,0,1.304,0.201,1.733,0.604c0.429,0.402,0.644,0.935,0.644,1.597
			c0,0.508-0.152,0.959-0.455,1.353c-0.199,0.262-0.526,0.554-0.981,0.875l-0.541,0.384c-0.338,0.239-0.569,0.413-0.694,0.52
			c-0.125,0.107-0.229,0.232-0.314,0.374h2.994v1.188h-4.697C404.479,478.097,404.585,477.647,404.784,477.24z"/>
		<path fill="#312F81" d="M414.058,472.604c0.352,0.615,0.527,1.489,0.527,2.621s-0.176,2.004-0.527,2.616
			c-0.352,0.611-0.964,0.917-1.838,0.917s-1.486-0.306-1.838-0.917c-0.352-0.612-0.527-1.484-0.527-2.616s0.176-2.006,0.527-2.621
			c0.352-0.614,0.964-0.922,1.838-0.922S413.706,471.99,414.058,472.604z M411.425,477.035c0.129,0.418,0.395,0.627,0.795,0.627
			s0.663-0.209,0.788-0.627s0.187-1.021,0.187-1.81c0-0.826-0.062-1.438-0.187-1.835c-0.125-0.397-0.387-0.597-0.788-0.597
			s-0.666,0.199-0.795,0.597c-0.129,0.396-0.194,1.009-0.194,1.835C411.231,476.014,411.296,476.617,411.425,477.035z"/>
		<path fill="#312F81" d="M415.612,473.858v-0.918c0.424-0.019,0.722-0.047,0.892-0.085c0.271-0.06,0.491-0.18,0.661-0.359
			c0.116-0.123,0.205-0.287,0.264-0.492c0.035-0.123,0.052-0.214,0.052-0.274h1.126v6.859h-1.382v-4.73H415.612z"/>
		<path fill="#312F81" d="M421.927,476.754c0.054,0.293,0.156,0.52,0.307,0.679c0.151,0.159,0.372,0.238,0.661,0.238
			c0.333,0,0.588-0.117,0.762-0.353c0.175-0.234,0.263-0.53,0.263-0.887c0-0.35-0.082-0.646-0.246-0.887
			c-0.163-0.241-0.418-0.362-0.765-0.362c-0.163,0-0.305,0.021-0.425,0.062c-0.21,0.076-0.369,0.217-0.477,0.421l-1.208-0.057
			l0.481-3.789h3.773v1.146h-2.801l-0.246,1.499c0.208-0.136,0.37-0.226,0.487-0.27c0.195-0.072,0.433-0.108,0.713-0.108
			c0.567,0,1.062,0.19,1.483,0.572c0.422,0.381,0.633,0.937,0.633,1.665c0,0.634-0.203,1.2-0.609,1.698s-1.015,0.747-1.824,0.747
			c-0.652,0-1.188-0.175-1.606-0.525c-0.419-0.35-0.652-0.847-0.699-1.489H421.927z"/>
		<path fill="#312F81" d="M426.813,473.632h1.434v1.414h-1.434V473.632z M426.813,477.175h1.434v1.414h-1.434V477.175z"/>
		<path fill="#312F81" d="M432.299,477.065c0.209-0.432,0.618-0.824,1.228-1.178l0.908-0.525c0.406-0.236,0.691-0.438,0.855-0.605
			c0.259-0.263,0.389-0.562,0.389-0.9c0-0.396-0.119-0.709-0.355-0.941c-0.236-0.231-0.552-0.348-0.946-0.348
			c-0.583,0-0.986,0.221-1.211,0.664c-0.119,0.237-0.186,0.566-0.198,0.986h-0.865c0.009-0.59,0.118-1.07,0.326-1.442
			c0.369-0.656,1.02-0.984,1.953-0.984c0.776,0,1.343,0.21,1.701,0.629c0.357,0.42,0.537,0.887,0.537,1.4
			c0,0.543-0.191,1.006-0.573,1.391c-0.221,0.225-0.616,0.495-1.187,0.814l-0.648,0.359c-0.31,0.17-0.552,0.332-0.729,0.487
			c-0.315,0.274-0.514,0.578-0.596,0.913h3.699v0.804h-4.65C431.968,478.006,432.089,477.498,432.299,477.065z"/>
		<path fill="#312F81" d="M437.646,473.522h0.81v0.719c0.239-0.296,0.493-0.509,0.762-0.639c0.268-0.129,0.565-0.193,0.894-0.193
			c0.719,0,1.205,0.251,1.457,0.752c0.139,0.274,0.208,0.667,0.208,1.178v3.25h-0.865v-3.193c0-0.309-0.046-0.558-0.138-0.747
			c-0.151-0.315-0.426-0.473-0.823-0.473c-0.201,0-0.367,0.021-0.496,0.062c-0.233,0.069-0.438,0.208-0.615,0.416
			c-0.142,0.167-0.234,0.34-0.276,0.518c-0.043,0.179-0.064,0.433-0.064,0.765v2.653h-0.852V473.522z"/>
		<path fill="#312F81" d="M445.817,473.679c0.15,0.095,0.321,0.26,0.514,0.497v-2.56h0.818v6.973h-0.767v-0.705
			c-0.198,0.312-0.432,0.538-0.702,0.677s-0.58,0.208-0.929,0.208c-0.562,0-1.049-0.237-1.461-0.712
			c-0.411-0.475-0.617-1.106-0.617-1.895c0-0.738,0.188-1.377,0.563-1.918c0.375-0.541,0.912-0.812,1.609-0.812
			C445.232,473.433,445.557,473.515,445.817,473.679z M443.916,477.478c0.229,0.365,0.597,0.549,1.102,0.549
			c0.393,0,0.715-0.17,0.968-0.509c0.252-0.339,0.379-0.825,0.379-1.46c0-0.64-0.131-1.113-0.391-1.421
			c-0.261-0.308-0.582-0.461-0.965-0.461c-0.427,0-0.773,0.164-1.038,0.491c-0.266,0.328-0.397,0.811-0.397,1.448
			C443.573,476.657,443.688,477.111,443.916,477.478z"/>
		<path fill="#312F81" d="M451.113,471.64h0.866v0.965h-0.866V471.64z M451.113,473.546h0.866v5.043h-0.866V473.546z"/>
		<path fill="#312F81" d="M453.266,473.522h0.81v0.719c0.239-0.296,0.493-0.509,0.762-0.639c0.268-0.129,0.565-0.193,0.894-0.193
			c0.719,0,1.205,0.251,1.457,0.752c0.139,0.274,0.208,0.667,0.208,1.178v3.25h-0.865v-3.193c0-0.309-0.046-0.558-0.138-0.747
			c-0.151-0.315-0.426-0.473-0.823-0.473c-0.201,0-0.367,0.021-0.496,0.062c-0.233,0.069-0.438,0.208-0.615,0.416
			c-0.142,0.167-0.234,0.34-0.276,0.518c-0.043,0.179-0.064,0.433-0.064,0.765v2.653h-0.852V473.522z"/>
		<path fill="#312F81" d="M459.072,473.522l1.353,4.125l1.41-4.125h0.932l-1.907,5.066h-0.907l-1.868-5.066H459.072z"/>
		<path fill="#312F81" d="M466.627,473.662c0.335,0.169,0.591,0.387,0.767,0.655c0.169,0.255,0.281,0.554,0.338,0.894
			c0.051,0.233,0.075,0.605,0.075,1.117h-3.685c0.016,0.515,0.136,0.929,0.361,1.24s0.574,0.467,1.047,0.467
			c0.44,0,0.793-0.147,1.056-0.441c0.147-0.171,0.251-0.369,0.312-0.595h0.838c-0.022,0.187-0.096,0.394-0.221,0.622
			c-0.124,0.229-0.264,0.416-0.417,0.561c-0.256,0.253-0.574,0.423-0.952,0.512c-0.204,0.05-0.434,0.075-0.69,0.075
			c-0.627,0-1.158-0.229-1.594-0.688s-0.653-1.102-0.653-1.928c0-0.813,0.22-1.474,0.658-1.981s1.013-0.762,1.721-0.762
			C465.945,473.409,466.291,473.493,466.627,473.662z M466.932,475.651c-0.034-0.369-0.114-0.664-0.239-0.885
			c-0.231-0.41-0.617-0.615-1.158-0.615c-0.388,0-0.713,0.142-0.976,0.424s-0.402,0.641-0.418,1.076H466.932z"/>
		<path fill="#312F81" d="M469.392,476.999c0.025,0.284,0.098,0.502,0.217,0.653c0.219,0.274,0.599,0.411,1.14,0.411
			c0.321,0,0.605-0.068,0.85-0.205c0.245-0.138,0.367-0.35,0.367-0.637c0-0.218-0.098-0.383-0.294-0.497
			c-0.125-0.069-0.371-0.149-0.74-0.241l-0.688-0.17c-0.438-0.107-0.763-0.227-0.971-0.359c-0.372-0.23-0.558-0.549-0.558-0.956
			c0-0.479,0.175-0.867,0.525-1.163c0.35-0.297,0.82-0.444,1.411-0.444c0.773,0,1.331,0.224,1.673,0.671
			c0.215,0.284,0.318,0.59,0.312,0.918h-0.805c-0.016-0.191-0.085-0.365-0.208-0.522c-0.2-0.223-0.547-0.334-1.041-0.334
			c-0.329,0-0.579,0.062-0.748,0.185c-0.17,0.122-0.255,0.284-0.255,0.485c0,0.22,0.111,0.396,0.335,0.527
			c0.128,0.079,0.317,0.148,0.568,0.208l0.573,0.137c0.623,0.148,1.041,0.292,1.253,0.431c0.331,0.218,0.497,0.56,0.497,1.026
			c0,0.451-0.173,0.841-0.52,1.169s-0.874,0.492-1.583,0.492c-0.763,0-1.304-0.172-1.621-0.514s-0.487-0.766-0.51-1.271H469.392z"/>
		<path fill="#312F81" d="M473.9,472.108h0.86v1.414h0.81v0.695h-0.81v3.307c0,0.177,0.061,0.295,0.18,0.354
			c0.066,0.035,0.177,0.053,0.332,0.053c0.04,0,0.085-0.001,0.132-0.003c0.048-0.003,0.103-0.008,0.166-0.017v0.677
			c-0.098,0.028-0.2,0.049-0.306,0.062s-0.22,0.019-0.343,0.019c-0.397,0-0.667-0.102-0.809-0.305
			c-0.143-0.203-0.213-0.468-0.213-0.792v-3.354h-0.687v-0.695h0.687V472.108z"/>
		<path fill="#312F81" d="M476.421,473.522h0.843v0.719c0.201-0.249,0.385-0.43,0.549-0.544c0.28-0.192,0.599-0.288,0.955-0.288
			c0.403,0,0.729,0.1,0.975,0.298c0.139,0.113,0.265,0.281,0.378,0.502c0.189-0.271,0.412-0.473,0.667-0.604
			c0.256-0.131,0.543-0.196,0.861-0.196c0.681,0,1.145,0.246,1.391,0.738c0.133,0.265,0.199,0.621,0.199,1.068v3.373h-0.885v-3.52
			c0-0.337-0.085-0.569-0.253-0.695c-0.169-0.126-0.375-0.189-0.618-0.189c-0.334,0-0.622,0.112-0.863,0.336
			c-0.241,0.225-0.361,0.598-0.361,1.121v2.947h-0.866v-3.307c0-0.344-0.041-0.595-0.123-0.752c-0.129-0.236-0.37-0.354-0.724-0.354
			c-0.321,0-0.614,0.124-0.877,0.373c-0.264,0.249-0.396,0.7-0.396,1.354v2.687h-0.852V473.522z"/>
		<path fill="#312F81" d="M487.621,473.662c0.335,0.169,0.591,0.387,0.767,0.655c0.169,0.255,0.281,0.554,0.338,0.894
			c0.051,0.233,0.075,0.605,0.075,1.117h-3.685c0.016,0.515,0.136,0.929,0.361,1.24s0.574,0.467,1.047,0.467
			c0.44,0,0.793-0.147,1.056-0.441c0.147-0.171,0.251-0.369,0.312-0.595h0.838c-0.022,0.187-0.096,0.394-0.221,0.622
			c-0.124,0.229-0.264,0.416-0.417,0.561c-0.256,0.253-0.574,0.423-0.952,0.512c-0.204,0.05-0.434,0.075-0.69,0.075
			c-0.627,0-1.158-0.229-1.594-0.688s-0.653-1.102-0.653-1.928c0-0.813,0.22-1.474,0.658-1.981s1.013-0.762,1.721-0.762
			C486.939,473.409,487.285,473.493,487.621,473.662z M487.926,475.651c-0.034-0.369-0.114-0.664-0.239-0.885
			c-0.231-0.41-0.617-0.615-1.158-0.615c-0.388,0-0.713,0.142-0.976,0.424s-0.402,0.641-0.418,1.076H487.926z"/>
		<path fill="#312F81" d="M489.879,473.522h0.81v0.719c0.239-0.296,0.493-0.509,0.762-0.639c0.268-0.129,0.565-0.193,0.894-0.193
			c0.719,0,1.205,0.251,1.457,0.752c0.139,0.274,0.208,0.667,0.208,1.178v3.25h-0.865v-3.193c0-0.309-0.046-0.558-0.138-0.747
			c-0.151-0.315-0.426-0.473-0.823-0.473c-0.201,0-0.367,0.021-0.496,0.062c-0.233,0.069-0.438,0.208-0.615,0.416
			c-0.142,0.167-0.234,0.34-0.276,0.518c-0.043,0.179-0.064,0.433-0.064,0.765v2.653h-0.852V473.522z"/>
		<path fill="#312F81" d="M495.438,472.108h0.86v1.414h0.81v0.695h-0.81v3.307c0,0.177,0.061,0.295,0.18,0.354
			c0.066,0.035,0.177,0.053,0.332,0.053c0.04,0,0.085-0.001,0.132-0.003c0.048-0.003,0.103-0.008,0.166-0.017v0.677
			c-0.098,0.028-0.2,0.049-0.306,0.062s-0.22,0.019-0.343,0.019c-0.397,0-0.667-0.102-0.809-0.305
			c-0.143-0.203-0.213-0.468-0.213-0.792v-3.354h-0.687v-0.695h0.687V472.108z"/>
	</g>
	<g>
		<path fill="#312F81" d="M531.265,420.189c0.191-0.457,0.646-0.94,1.362-1.452c0.621-0.444,1.022-0.763,1.206-0.955
			c0.28-0.3,0.421-0.628,0.421-0.984c0-0.29-0.08-0.531-0.241-0.724s-0.392-0.288-0.69-0.288c-0.41,0-0.689,0.152-0.838,0.459
			c-0.085,0.177-0.136,0.457-0.151,0.842h-1.31c0.021-0.584,0.127-1.055,0.316-1.414c0.36-0.685,0.999-1.027,1.918-1.027
			c0.727,0,1.304,0.201,1.733,0.604c0.429,0.402,0.644,0.935,0.644,1.597c0,0.508-0.151,0.959-0.455,1.353
			c-0.198,0.262-0.525,0.554-0.98,0.875l-0.54,0.384c-0.339,0.239-0.57,0.413-0.694,0.52c-0.125,0.107-0.229,0.232-0.314,0.374
			h2.994v1.188h-4.697C530.96,421.046,531.065,420.597,531.265,420.189z"/>
		<path fill="#312F81" d="M540.538,415.554c0.352,0.615,0.527,1.489,0.527,2.621s-0.176,2.004-0.527,2.616
			c-0.352,0.611-0.965,0.917-1.838,0.917c-0.874,0-1.486-0.306-1.838-0.917c-0.352-0.612-0.527-1.484-0.527-2.616
			s0.176-2.006,0.527-2.621c0.352-0.614,0.964-0.922,1.838-0.922C539.573,414.632,540.187,414.939,540.538,415.554z
			 M537.905,419.984c0.13,0.418,0.395,0.627,0.795,0.627s0.663-0.209,0.788-0.627c0.124-0.418,0.187-1.021,0.187-1.81
			c0-0.826-0.062-1.438-0.187-1.835c-0.125-0.397-0.388-0.597-0.788-0.597s-0.665,0.199-0.795,0.597
			c-0.129,0.396-0.193,1.009-0.193,1.835C537.712,418.963,537.776,419.566,537.905,419.984z"/>
		<path fill="#312F81" d="M542.093,416.808v-0.918c0.425-0.019,0.722-0.047,0.892-0.085c0.271-0.06,0.491-0.18,0.66-0.359
			c0.117-0.123,0.205-0.287,0.265-0.492c0.034-0.123,0.052-0.214,0.052-0.274h1.126v6.859h-1.381v-4.73H542.093z"/>
		<path fill="#312F81" d="M550.361,416.405c0-0.11-0.043-0.231-0.128-0.364c-0.146-0.214-0.364-0.321-0.657-0.321
			c-0.438,0-0.751,0.246-0.937,0.738c-0.102,0.271-0.171,0.671-0.209,1.201c0.168-0.198,0.361-0.344,0.582-0.436
			c0.221-0.091,0.474-0.137,0.757-0.137c0.609,0,1.108,0.206,1.497,0.619c0.39,0.413,0.585,0.941,0.585,1.585
			c0,0.641-0.191,1.205-0.572,1.693c-0.382,0.489-0.975,0.733-1.779,0.733c-0.864,0-1.501-0.361-1.911-1.083
			c-0.318-0.564-0.478-1.293-0.478-2.186c0-0.523,0.022-0.949,0.066-1.277c0.079-0.583,0.231-1.069,0.459-1.457
			c0.195-0.331,0.451-0.598,0.769-0.8c0.316-0.201,0.696-0.303,1.138-0.303c0.637,0,1.145,0.164,1.523,0.49
			c0.378,0.326,0.591,0.761,0.638,1.303H550.361z M548.763,420.271c0.198,0.233,0.45,0.35,0.757,0.35
			c0.299,0,0.535-0.112,0.707-0.338s0.258-0.518,0.258-0.878c0-0.4-0.098-0.707-0.294-0.92c-0.195-0.213-0.435-0.319-0.719-0.319
			c-0.23,0-0.434,0.069-0.61,0.208c-0.265,0.205-0.397,0.536-0.397,0.994C548.464,419.735,548.563,420.037,548.763,420.271z"/>
		<path fill="#312F81" d="M553.294,416.581h1.434v1.414h-1.434V416.581z M553.294,420.124h1.434v1.414h-1.434V420.124z"/>
		<path fill="#312F81" d="M558.895,414.589h2.777c0.943,0,1.675,0.339,2.194,1.018c0.464,0.611,0.695,1.396,0.695,2.351
			c0,0.738-0.137,1.405-0.41,2.001c-0.482,1.054-1.312,1.58-2.488,1.58h-2.769V414.589z M561.487,420.734
			c0.312,0,0.567-0.033,0.769-0.1c0.357-0.123,0.65-0.359,0.878-0.71c0.183-0.28,0.313-0.64,0.394-1.078
			c0.046-0.262,0.069-0.505,0.069-0.729c0-0.861-0.167-1.529-0.502-2.006c-0.334-0.477-0.873-0.714-1.616-0.714h-1.633v5.336
			H561.487z"/>
		<path fill="#312F81" d="M569.405,416.978c0.448,0.435,0.672,1.074,0.672,1.919c0,0.815-0.197,1.49-0.592,2.022
			s-1.007,0.799-1.837,0.799c-0.691,0-1.241-0.235-1.648-0.706c-0.407-0.472-0.61-1.104-0.61-1.898c0-0.851,0.214-1.527,0.644-2.032
			c0.429-0.504,1.005-0.756,1.729-0.756C568.41,416.325,568.958,416.543,569.405,416.978z M568.877,420.345
			c0.207-0.427,0.311-0.902,0.311-1.425c0-0.473-0.074-0.856-0.224-1.152c-0.237-0.467-0.646-0.7-1.226-0.7
			c-0.515,0-0.889,0.199-1.123,0.596c-0.233,0.397-0.351,0.876-0.351,1.437c0,0.538,0.117,0.987,0.351,1.347
			c0.234,0.358,0.605,0.538,1.113,0.538C568.287,420.984,568.67,420.771,568.877,420.345z"/>
		<path fill="#312F81" d="M571.974,416.472v3.363c0,0.259,0.04,0.47,0.12,0.634c0.147,0.303,0.422,0.454,0.824,0.454
			c0.578,0,0.971-0.265,1.18-0.794c0.113-0.284,0.171-0.674,0.171-1.169v-2.488h0.852v5.066h-0.805l0.01-0.747
			c-0.108,0.192-0.243,0.354-0.404,0.487c-0.318,0.265-0.705,0.396-1.16,0.396c-0.709,0-1.191-0.241-1.448-0.724
			c-0.14-0.258-0.209-0.604-0.209-1.035v-3.444H571.974z"/>
		<path fill="#312F81" d="M576.439,414.565h0.827v2.521c0.188-0.243,0.41-0.429,0.67-0.556c0.26-0.128,0.541-0.191,0.846-0.191
			c0.633,0,1.146,0.217,1.541,0.65c0.394,0.434,0.591,1.072,0.591,1.918c0,0.801-0.194,1.466-0.584,1.996
			c-0.39,0.529-0.929,0.795-1.619,0.795c-0.387,0-0.713-0.094-0.979-0.279c-0.158-0.11-0.327-0.287-0.508-0.53v0.648h-0.785V414.565
			z M579.695,420.398c0.229-0.366,0.344-0.849,0.344-1.448c0-0.532-0.114-0.974-0.344-1.324c-0.229-0.35-0.567-0.525-1.014-0.525
			c-0.39,0-0.73,0.144-1.022,0.431c-0.293,0.287-0.439,0.76-0.439,1.419c0,0.477,0.061,0.863,0.181,1.159
			c0.225,0.559,0.644,0.838,1.258,0.838C579.12,420.947,579.466,420.764,579.695,420.398z"/>
		<path fill="#312F81" d="M581.923,414.589h0.852v6.949h-0.852V414.589z"/>
		<path fill="#312F81" d="M587.181,416.611c0.335,0.169,0.591,0.387,0.767,0.655c0.169,0.255,0.281,0.554,0.338,0.894
			c0.051,0.233,0.075,0.605,0.075,1.117h-3.685c0.016,0.515,0.136,0.929,0.361,1.24s0.574,0.467,1.047,0.467
			c0.44,0,0.793-0.147,1.056-0.441c0.147-0.171,0.251-0.369,0.312-0.595h0.838c-0.022,0.187-0.096,0.394-0.221,0.622
			c-0.124,0.229-0.264,0.416-0.417,0.561c-0.256,0.253-0.574,0.423-0.952,0.512c-0.204,0.05-0.434,0.075-0.69,0.075
			c-0.627,0-1.158-0.229-1.594-0.688s-0.653-1.102-0.653-1.928c0-0.813,0.22-1.474,0.658-1.981s1.013-0.762,1.721-0.762
			C586.499,416.358,586.845,416.442,587.181,416.611z M587.485,418.601c-0.034-0.369-0.114-0.664-0.239-0.885
			c-0.231-0.41-0.617-0.615-1.158-0.615c-0.388,0-0.713,0.142-0.976,0.424s-0.402,0.641-0.418,1.076H587.485z"/>
		<path fill="#312F81" d="M592.301,415.058h0.86v1.414h0.81v0.695h-0.81v3.307c0,0.177,0.061,0.295,0.18,0.354
			c0.066,0.035,0.177,0.053,0.332,0.053c0.04,0,0.085-0.001,0.132-0.003c0.048-0.003,0.103-0.008,0.166-0.017v0.677
			c-0.098,0.028-0.2,0.049-0.306,0.062s-0.22,0.019-0.343,0.019c-0.397,0-0.667-0.102-0.809-0.305
			c-0.143-0.203-0.213-0.468-0.213-0.792v-3.354h-0.687v-0.695h0.687V415.058z"/>
		<path fill="#312F81" d="M594.821,414.565h0.852v2.593c0.202-0.256,0.384-0.436,0.544-0.54c0.274-0.18,0.617-0.27,1.027-0.27
			c0.734,0,1.232,0.257,1.494,0.771c0.143,0.28,0.213,0.67,0.213,1.168v3.25h-0.875v-3.193c0-0.372-0.047-0.645-0.142-0.818
			c-0.155-0.277-0.445-0.416-0.871-0.416c-0.353,0-0.673,0.121-0.96,0.364s-0.431,0.702-0.431,1.377v2.687h-0.852V414.565z"/>
		<path fill="#312F81" d="M603.34,416.611c0.335,0.169,0.591,0.387,0.767,0.655c0.169,0.255,0.281,0.554,0.338,0.894
			c0.051,0.233,0.075,0.605,0.075,1.117h-3.685c0.016,0.515,0.136,0.929,0.361,1.24s0.574,0.467,1.047,0.467
			c0.44,0,0.793-0.147,1.056-0.441c0.147-0.171,0.251-0.369,0.312-0.595h0.838c-0.022,0.187-0.096,0.394-0.221,0.622
			c-0.124,0.229-0.264,0.416-0.417,0.561c-0.256,0.253-0.574,0.423-0.952,0.512c-0.204,0.05-0.434,0.075-0.69,0.075
			c-0.627,0-1.158-0.229-1.594-0.688s-0.653-1.102-0.653-1.928c0-0.813,0.22-1.474,0.658-1.981s1.013-0.762,1.721-0.762
			C602.658,416.358,603.004,416.442,603.34,416.611z M603.645,418.601c-0.034-0.369-0.114-0.664-0.239-0.885
			c-0.231-0.41-0.617-0.615-1.158-0.615c-0.388,0-0.713,0.142-0.976,0.424s-0.402,0.641-0.418,1.076H603.645z"/>
		<path fill="#312F81" d="M611.419,416.611c0.335,0.169,0.591,0.387,0.767,0.655c0.169,0.255,0.281,0.554,0.338,0.894
			c0.051,0.233,0.075,0.605,0.075,1.117h-3.685c0.016,0.515,0.136,0.929,0.361,1.24s0.574,0.467,1.047,0.467
			c0.44,0,0.793-0.147,1.056-0.441c0.147-0.171,0.251-0.369,0.312-0.595h0.838c-0.022,0.187-0.096,0.394-0.221,0.622
			c-0.124,0.229-0.264,0.416-0.417,0.561c-0.256,0.253-0.574,0.423-0.952,0.512c-0.204,0.05-0.434,0.075-0.69,0.075
			c-0.627,0-1.158-0.229-1.594-0.688s-0.653-1.102-0.653-1.928c0-0.813,0.22-1.474,0.658-1.981s1.013-0.762,1.721-0.762
			C610.737,416.358,611.083,416.442,611.419,416.611z M611.724,418.601c-0.034-0.369-0.114-0.664-0.239-0.885
			c-0.231-0.41-0.617-0.615-1.158-0.615c-0.388,0-0.713,0.142-0.976,0.424s-0.402,0.641-0.418,1.076H611.724z"/>
		<path fill="#312F81" d="M613.677,416.472h0.843v0.719c0.201-0.249,0.385-0.43,0.549-0.544c0.28-0.192,0.599-0.288,0.955-0.288
			c0.403,0,0.729,0.1,0.975,0.298c0.139,0.113,0.265,0.281,0.378,0.502c0.189-0.271,0.412-0.473,0.667-0.604
			c0.256-0.131,0.543-0.196,0.861-0.196c0.681,0,1.145,0.246,1.391,0.738c0.133,0.265,0.199,0.621,0.199,1.068v3.373h-0.885v-3.52
			c0-0.337-0.085-0.569-0.253-0.695c-0.169-0.126-0.375-0.189-0.618-0.189c-0.334,0-0.622,0.112-0.863,0.336
			c-0.241,0.225-0.361,0.598-0.361,1.121v2.947h-0.866v-3.307c0-0.344-0.041-0.595-0.123-0.752c-0.129-0.236-0.37-0.354-0.724-0.354
			c-0.321,0-0.614,0.124-0.877,0.373c-0.264,0.249-0.396,0.7-0.396,1.354v2.687h-0.852V416.472z"/>
		<path fill="#312F81" d="M621.677,416.495h0.832v0.672c0.171-0.229,0.357-0.408,0.56-0.534c0.288-0.189,0.626-0.284,1.016-0.284
			c0.575,0,1.063,0.22,1.465,0.66c0.401,0.439,0.603,1.068,0.603,1.885c0,1.104-0.29,1.893-0.869,2.365
			c-0.367,0.3-0.795,0.449-1.282,0.449c-0.383,0-0.704-0.083-0.964-0.25c-0.152-0.095-0.321-0.258-0.508-0.487v2.587h-0.852V416.495
			z M624.88,420.467c0.265-0.333,0.396-0.83,0.396-1.492c0-0.404-0.059-0.751-0.176-1.041c-0.222-0.559-0.626-0.837-1.215-0.837
			c-0.592,0-0.997,0.295-1.215,0.884c-0.117,0.315-0.176,0.716-0.176,1.202c0,0.391,0.059,0.724,0.176,0.998
			c0.221,0.523,0.626,0.785,1.215,0.785C624.284,420.966,624.616,420.8,624.88,420.467z"/>
		<path fill="#312F81" d="M627.159,414.589h0.852v6.949h-0.852V414.589z"/>
		<path fill="#312F81" d="M632.958,416.978c0.448,0.435,0.672,1.074,0.672,1.919c0,0.815-0.197,1.49-0.592,2.022
			s-1.007,0.799-1.837,0.799c-0.691,0-1.241-0.235-1.648-0.706c-0.407-0.472-0.61-1.104-0.61-1.898c0-0.851,0.214-1.527,0.644-2.032
			c0.429-0.504,1.005-0.756,1.729-0.756C631.963,416.325,632.511,416.543,632.958,416.978z M632.43,420.345
			c0.207-0.427,0.311-0.902,0.311-1.425c0-0.473-0.074-0.856-0.224-1.152c-0.237-0.467-0.646-0.7-1.226-0.7
			c-0.515,0-0.889,0.199-1.123,0.596c-0.233,0.397-0.351,0.876-0.351,1.437c0,0.538,0.117,0.987,0.351,1.347
			c0.234,0.358,0.605,0.538,1.113,0.538C631.84,420.984,632.223,420.771,632.43,420.345z"/>
		<path fill="#312F81" d="M637.843,416.472h0.941c-0.119,0.325-0.386,1.066-0.799,2.225c-0.31,0.871-0.568,1.58-0.776,2.13
			c-0.491,1.292-0.838,2.079-1.039,2.363c-0.202,0.283-0.549,0.425-1.04,0.425c-0.12,0-0.212-0.004-0.276-0.014
			s-0.145-0.027-0.239-0.052v-0.776c0.148,0.041,0.256,0.066,0.321,0.076c0.066,0.009,0.125,0.014,0.175,0.014
			c0.157,0,0.273-0.025,0.348-0.077c0.073-0.053,0.136-0.116,0.187-0.191c0.016-0.025,0.072-0.154,0.17-0.388
			c0.098-0.232,0.168-0.405,0.212-0.519l-1.873-5.216h0.965l1.358,4.127L637.843,416.472z"/>
		<path fill="#312F81" d="M642.649,416.611c0.335,0.169,0.591,0.387,0.767,0.655c0.169,0.255,0.281,0.554,0.338,0.894
			c0.051,0.233,0.075,0.605,0.075,1.117h-3.685c0.016,0.515,0.136,0.929,0.361,1.24s0.574,0.467,1.047,0.467
			c0.44,0,0.793-0.147,1.056-0.441c0.147-0.171,0.251-0.369,0.312-0.595h0.838c-0.022,0.187-0.096,0.394-0.221,0.622
			c-0.124,0.229-0.264,0.416-0.417,0.561c-0.256,0.253-0.574,0.423-0.952,0.512c-0.204,0.05-0.434,0.075-0.69,0.075
			c-0.627,0-1.158-0.229-1.594-0.688s-0.653-1.102-0.653-1.928c0-0.813,0.22-1.474,0.658-1.981s1.013-0.762,1.721-0.762
			C641.968,416.358,642.313,416.442,642.649,416.611z M642.954,418.601c-0.034-0.369-0.114-0.664-0.239-0.885
			c-0.231-0.41-0.617-0.615-1.158-0.615c-0.388,0-0.713,0.142-0.976,0.424s-0.402,0.641-0.418,1.076H642.954z"/>
		<path fill="#312F81" d="M648.037,416.611c0.335,0.169,0.591,0.387,0.767,0.655c0.169,0.255,0.281,0.554,0.338,0.894
			c0.051,0.233,0.075,0.605,0.075,1.117h-3.685c0.016,0.515,0.136,0.929,0.361,1.24s0.574,0.467,1.047,0.467
			c0.44,0,0.793-0.147,1.056-0.441c0.147-0.171,0.251-0.369,0.312-0.595h0.838c-0.022,0.187-0.096,0.394-0.221,0.622
			c-0.124,0.229-0.264,0.416-0.417,0.561c-0.256,0.253-0.574,0.423-0.952,0.512c-0.204,0.05-0.434,0.075-0.69,0.075
			c-0.627,0-1.158-0.229-1.594-0.688s-0.653-1.102-0.653-1.928c0-0.813,0.22-1.474,0.658-1.981s1.013-0.762,1.721-0.762
			C647.355,416.358,647.701,416.442,648.037,416.611z M648.342,418.601c-0.034-0.369-0.114-0.664-0.239-0.885
			c-0.231-0.41-0.617-0.615-1.158-0.615c-0.388,0-0.713,0.142-0.976,0.424s-0.402,0.641-0.418,1.076H648.342z"/>
	</g>
	<g>
		<path fill="#312F81" d="M649.643,312.008c0.191-0.457,0.646-0.941,1.362-1.451c0.621-0.445,1.022-0.764,1.206-0.956
			c0.28-0.3,0.421-0.628,0.421-0.983c0-0.291-0.08-0.531-0.241-0.725c-0.161-0.191-0.392-0.288-0.69-0.288
			c-0.41,0-0.689,0.153-0.838,0.458c-0.085,0.178-0.136,0.458-0.151,0.843h-1.31c0.021-0.583,0.127-1.056,0.316-1.415
			c0.36-0.684,0.999-1.025,1.918-1.025c0.727,0,1.304,0.2,1.733,0.603c0.429,0.401,0.644,0.935,0.644,1.597
			c0,0.508-0.151,0.959-0.455,1.353c-0.198,0.263-0.525,0.554-0.98,0.876l-0.54,0.383c-0.339,0.239-0.57,0.413-0.694,0.52
			c-0.125,0.107-0.229,0.232-0.314,0.374h2.994v1.188h-4.697C649.338,312.864,649.443,312.415,649.643,312.008z"/>
		<path fill="#312F81" d="M658.916,307.373c0.352,0.614,0.527,1.488,0.527,2.62s-0.176,2.004-0.527,2.616
			c-0.352,0.611-0.965,0.917-1.838,0.917c-0.874,0-1.486-0.306-1.838-0.917c-0.352-0.612-0.527-1.484-0.527-2.616
			s0.176-2.006,0.527-2.62c0.352-0.615,0.964-0.923,1.838-0.923C657.951,306.45,658.564,306.758,658.916,307.373z M656.283,311.803
			c0.13,0.418,0.395,0.627,0.795,0.627s0.663-0.209,0.788-0.627c0.124-0.418,0.187-1.021,0.187-1.81
			c0-0.826-0.062-1.438-0.187-1.835c-0.125-0.398-0.388-0.597-0.788-0.597s-0.665,0.198-0.795,0.597
			c-0.129,0.396-0.193,1.009-0.193,1.835C656.09,310.781,656.154,311.385,656.283,311.803z"/>
		<path fill="#312F81" d="M660.47,308.626v-0.917c0.425-0.02,0.722-0.048,0.892-0.086c0.271-0.06,0.491-0.18,0.66-0.359
			c0.117-0.123,0.205-0.287,0.265-0.492c0.034-0.123,0.052-0.215,0.052-0.273h1.126v6.858h-1.381v-4.73H660.47z"/>
		<path fill="#312F81" d="M670.295,307.643c-0.202,0.198-0.483,0.553-0.843,1.062c-0.36,0.509-0.662,1.035-0.905,1.577
			c-0.193,0.426-0.367,0.946-0.521,1.562c-0.155,0.614-0.232,1.12-0.232,1.514h-1.4c0.041-1.229,0.445-2.509,1.212-3.837
			c0.496-0.822,0.911-1.396,1.245-1.721h-3.417l0.019-1.211h4.844V307.643z"/>
		<path fill="#312F81" d="M671.672,308.398h1.434v1.415h-1.434V308.398z M671.672,311.941h1.434v1.415h-1.434V311.941z"/>
		<path fill="#312F81" d="M677.23,306.407h0.941v6.122h3.486v0.827h-4.428V306.407z"/>
		<path fill="#312F81" d="M685.22,310.291c0.195-0.025,0.326-0.107,0.393-0.246c0.038-0.076,0.057-0.186,0.057-0.328
			c0-0.291-0.104-0.502-0.31-0.633c-0.206-0.132-0.501-0.197-0.885-0.197c-0.443,0-0.759,0.12-0.944,0.361
			c-0.104,0.133-0.172,0.33-0.203,0.594h-0.795c0.017-0.627,0.219-1.062,0.607-1.307c0.389-0.246,0.841-0.368,1.354-0.368
			c0.596,0,1.079,0.114,1.451,0.341c0.368,0.227,0.553,0.58,0.553,1.06v2.919c0,0.088,0.018,0.159,0.054,0.213
			c0.036,0.053,0.113,0.08,0.229,0.08c0.038,0,0.081-0.002,0.128-0.007c0.048-0.005,0.098-0.013,0.151-0.021v0.629
			c-0.133,0.038-0.233,0.062-0.303,0.071s-0.164,0.014-0.284,0.014c-0.293,0-0.506-0.104-0.638-0.312
			c-0.07-0.11-0.119-0.267-0.147-0.468c-0.173,0.227-0.422,0.424-0.747,0.59c-0.325,0.168-0.683,0.251-1.074,0.251
			c-0.47,0-0.854-0.143-1.151-0.427c-0.298-0.285-0.447-0.643-0.447-1.07c0-0.47,0.146-0.834,0.44-1.092
			c0.293-0.258,0.678-0.417,1.154-0.477L685.22,310.291z M683.427,312.591c0.18,0.142,0.393,0.212,0.639,0.212
			c0.3,0,0.59-0.068,0.87-0.207c0.474-0.23,0.71-0.606,0.71-1.129v-0.686c-0.104,0.066-0.238,0.122-0.401,0.166
			c-0.164,0.045-0.324,0.076-0.481,0.096l-0.515,0.065c-0.309,0.041-0.54,0.105-0.696,0.194c-0.263,0.147-0.395,0.383-0.395,0.707
			C683.157,312.256,683.247,312.449,683.427,312.591z"/>
		<path fill="#312F81" d="M688.743,308.29v3.363c0,0.259,0.04,0.47,0.12,0.634c0.147,0.303,0.422,0.455,0.824,0.455
			c0.578,0,0.971-0.266,1.18-0.795c0.113-0.284,0.171-0.674,0.171-1.169v-2.488h0.852v5.066h-0.805l0.01-0.747
			c-0.108,0.191-0.243,0.354-0.404,0.486c-0.318,0.266-0.705,0.397-1.16,0.397c-0.709,0-1.191-0.241-1.448-0.724
			c-0.14-0.258-0.209-0.604-0.209-1.035v-3.444H688.743z"/>
		<path fill="#312F81" d="M693.28,308.29h0.81v0.72c0.239-0.297,0.493-0.51,0.762-0.639c0.268-0.13,0.565-0.194,0.894-0.194
			c0.719,0,1.205,0.251,1.457,0.752c0.139,0.274,0.208,0.667,0.208,1.178v3.25h-0.865v-3.192c0-0.31-0.046-0.559-0.138-0.748
			c-0.151-0.315-0.426-0.473-0.823-0.473c-0.201,0-0.367,0.02-0.496,0.061c-0.233,0.07-0.438,0.209-0.615,0.417
			c-0.142,0.167-0.234,0.34-0.276,0.518c-0.043,0.179-0.064,0.433-0.064,0.765v2.653h-0.852V308.29z"/>
		<path fill="#312F81" d="M702.015,308.56c0.358,0.278,0.573,0.755,0.646,1.434h-0.828c-0.051-0.312-0.166-0.571-0.346-0.778
			s-0.468-0.31-0.865-0.31c-0.543,0-0.931,0.265-1.164,0.794c-0.151,0.343-0.227,0.767-0.227,1.271c0,0.507,0.107,0.935,0.321,1.28
			c0.215,0.347,0.552,0.52,1.013,0.52c0.353,0,0.633-0.107,0.84-0.322c0.206-0.215,0.349-0.51,0.428-0.884h0.828
			c-0.095,0.672-0.331,1.163-0.71,1.474c-0.378,0.311-0.862,0.466-1.452,0.466c-0.662,0-1.19-0.241-1.585-0.726
			c-0.394-0.484-0.591-1.089-0.591-1.814c0-0.889,0.216-1.582,0.647-2.076c0.433-0.496,0.982-0.743,1.651-0.743
			C701.192,308.144,701.657,308.282,702.015,308.56z"/>
		<path fill="#312F81" d="M703.512,306.384h0.852v2.593c0.202-0.256,0.384-0.436,0.544-0.539c0.274-0.181,0.617-0.271,1.027-0.271
			c0.734,0,1.232,0.257,1.494,0.771c0.143,0.28,0.213,0.67,0.213,1.168v3.25h-0.875v-3.192c0-0.373-0.047-0.646-0.142-0.818
			c-0.155-0.278-0.445-0.417-0.871-0.417c-0.353,0-0.673,0.122-0.96,0.364c-0.287,0.243-0.431,0.701-0.431,1.377v2.687h-0.852
			V306.384z"/>
		<path fill="#312F81" d="M715.262,308.796c0.448,0.435,0.672,1.074,0.672,1.919c0,0.816-0.197,1.49-0.592,2.022
			s-1.007,0.799-1.837,0.799c-0.691,0-1.241-0.235-1.648-0.706c-0.407-0.472-0.61-1.104-0.61-1.898c0-0.851,0.214-1.527,0.644-2.031
			c0.429-0.505,1.005-0.757,1.729-0.757C714.267,308.144,714.814,308.361,715.262,308.796z M714.733,312.162
			c0.207-0.426,0.311-0.9,0.311-1.424c0-0.473-0.074-0.857-0.224-1.152c-0.237-0.467-0.646-0.699-1.226-0.699
			c-0.515,0-0.889,0.197-1.123,0.595c-0.233,0.397-0.351,0.876-0.351,1.437c0,0.539,0.117,0.987,0.351,1.346
			c0.234,0.359,0.605,0.539,1.113,0.539C714.144,312.803,714.526,312.59,714.733,312.162z"/>
		<path fill="#312F81" d="M717.831,308.29v3.363c0,0.259,0.04,0.47,0.12,0.634c0.147,0.303,0.422,0.455,0.824,0.455
			c0.578,0,0.971-0.266,1.18-0.795c0.113-0.284,0.171-0.674,0.171-1.169v-2.488h0.852v5.066h-0.805l0.01-0.747
			c-0.108,0.191-0.243,0.354-0.404,0.486c-0.318,0.266-0.705,0.397-1.16,0.397c-0.709,0-1.191-0.241-1.448-0.724
			c-0.14-0.258-0.209-0.604-0.209-1.035v-3.444H717.831z"/>
		<path fill="#312F81" d="M722.392,308.29h0.809v0.876c0.066-0.171,0.229-0.379,0.487-0.623s0.557-0.366,0.894-0.366
			c0.016,0,0.043,0.001,0.081,0.005c0.037,0.003,0.103,0.01,0.193,0.019v0.899c-0.05-0.01-0.097-0.016-0.14-0.02
			c-0.042-0.003-0.089-0.005-0.139-0.005c-0.43,0-0.759,0.138-0.989,0.414s-0.345,0.594-0.345,0.953v2.914h-0.852V308.29z"/>
		<path fill="#312F81" d="M676.652,318.032h3.005c0.819,0,1.401,0.243,1.748,0.729c0.203,0.287,0.305,0.618,0.305,0.993
			c0,0.438-0.125,0.798-0.374,1.079c-0.13,0.148-0.315,0.283-0.559,0.406c0.356,0.136,0.623,0.289,0.8,0.459
			c0.312,0.303,0.469,0.721,0.469,1.254c0,0.448-0.142,0.854-0.424,1.216c-0.422,0.542-1.094,0.813-2.014,0.813h-2.956V318.032z
			 M679.306,320.97c0.401,0,0.714-0.055,0.937-0.165c0.351-0.174,0.526-0.485,0.526-0.937c0-0.454-0.187-0.761-0.56-0.918
			c-0.21-0.088-0.522-0.133-0.937-0.133h-1.697v2.152H679.306z M679.624,324.178c0.582,0,0.998-0.168,1.246-0.502
			c0.156-0.211,0.234-0.467,0.234-0.767c0-0.504-0.229-0.848-0.684-1.031c-0.241-0.098-0.562-0.146-0.96-0.146h-1.886v2.446H679.624
			z"/>
		<path fill="#312F81" d="M683.065,323.458c0.209-0.432,0.618-0.824,1.228-1.178l0.908-0.525c0.406-0.236,0.691-0.438,0.855-0.605
			c0.259-0.263,0.389-0.562,0.389-0.9c0-0.396-0.119-0.709-0.355-0.941c-0.236-0.231-0.552-0.348-0.946-0.348
			c-0.583,0-0.986,0.221-1.211,0.664c-0.119,0.237-0.186,0.566-0.198,0.986h-0.865c0.009-0.59,0.118-1.07,0.326-1.442
			c0.369-0.656,1.02-0.984,1.953-0.984c0.776,0,1.343,0.21,1.701,0.629c0.357,0.42,0.537,0.887,0.537,1.4
			c0,0.543-0.191,1.006-0.573,1.391c-0.221,0.225-0.616,0.495-1.187,0.814l-0.648,0.359c-0.31,0.17-0.552,0.332-0.729,0.487
			c-0.315,0.274-0.514,0.578-0.596,0.913h3.699v0.804h-4.65C682.734,324.398,682.855,323.891,683.065,323.458z"/>
		<path fill="#312F81" d="M688.502,318.032h3.005c0.819,0,1.401,0.243,1.748,0.729c0.203,0.287,0.305,0.618,0.305,0.993
			c0,0.438-0.125,0.798-0.374,1.079c-0.13,0.148-0.315,0.283-0.559,0.406c0.356,0.136,0.623,0.289,0.8,0.459
			c0.312,0.303,0.469,0.721,0.469,1.254c0,0.448-0.142,0.854-0.424,1.216c-0.422,0.542-1.094,0.813-2.014,0.813h-2.956V318.032z
			 M691.155,320.97c0.401,0,0.714-0.055,0.937-0.165c0.351-0.174,0.526-0.485,0.526-0.937c0-0.454-0.187-0.761-0.56-0.918
			c-0.21-0.088-0.522-0.133-0.937-0.133h-1.697v2.152H691.155z M691.474,324.178c0.582,0,0.998-0.168,1.246-0.502
			c0.156-0.211,0.234-0.467,0.234-0.767c0-0.504-0.229-0.848-0.684-1.031c-0.241-0.098-0.562-0.146-0.96-0.146h-1.886v2.446H691.474
			z"/>
		<path fill="#312F81" d="M698.072,323.392c0.025,0.284,0.098,0.502,0.217,0.653c0.219,0.274,0.599,0.411,1.14,0.411
			c0.321,0,0.605-0.068,0.85-0.205c0.245-0.138,0.367-0.35,0.367-0.637c0-0.218-0.098-0.383-0.294-0.497
			c-0.125-0.069-0.371-0.149-0.74-0.241l-0.688-0.17c-0.438-0.107-0.763-0.227-0.971-0.359c-0.372-0.23-0.558-0.549-0.558-0.956
			c0-0.479,0.175-0.867,0.525-1.163c0.35-0.297,0.82-0.444,1.411-0.444c0.773,0,1.331,0.224,1.673,0.671
			c0.215,0.284,0.318,0.59,0.312,0.918h-0.805c-0.016-0.191-0.085-0.365-0.208-0.522c-0.2-0.223-0.547-0.334-1.041-0.334
			c-0.329,0-0.579,0.062-0.748,0.185c-0.17,0.122-0.255,0.284-0.255,0.485c0,0.22,0.111,0.396,0.335,0.527
			c0.128,0.079,0.317,0.148,0.568,0.208l0.573,0.137c0.623,0.148,1.041,0.292,1.253,0.431c0.331,0.218,0.497,0.56,0.497,1.026
			c0,0.451-0.173,0.841-0.52,1.169s-0.874,0.492-1.583,0.492c-0.763,0-1.304-0.172-1.621-0.514s-0.487-0.766-0.51-1.271H698.072z"/>
		<path fill="#312F81" d="M705.539,320.055c0.335,0.169,0.591,0.387,0.767,0.655c0.169,0.255,0.281,0.554,0.338,0.894
			c0.051,0.233,0.075,0.605,0.075,1.117h-3.685c0.016,0.515,0.136,0.929,0.361,1.24s0.574,0.467,1.047,0.467
			c0.44,0,0.793-0.147,1.056-0.441c0.147-0.171,0.251-0.369,0.312-0.595h0.838c-0.022,0.187-0.096,0.394-0.221,0.622
			c-0.124,0.229-0.264,0.416-0.417,0.561c-0.256,0.253-0.574,0.423-0.952,0.512c-0.204,0.05-0.434,0.075-0.69,0.075
			c-0.627,0-1.158-0.229-1.594-0.688s-0.653-1.102-0.653-1.928c0-0.813,0.22-1.474,0.658-1.981s1.013-0.762,1.721-0.762
			C704.857,319.802,705.203,319.886,705.539,320.055z M705.844,322.044c-0.034-0.369-0.114-0.664-0.239-0.885
			c-0.231-0.41-0.617-0.615-1.158-0.615c-0.388,0-0.713,0.142-0.976,0.424s-0.402,0.641-0.418,1.076H705.844z"/>
		<path fill="#312F81" d="M707.822,319.915h0.809v0.875c0.066-0.17,0.229-0.377,0.487-0.622c0.259-0.244,0.557-0.366,0.894-0.366
			c0.016,0,0.043,0.002,0.081,0.005c0.037,0.003,0.103,0.009,0.193,0.019v0.898c-0.05-0.009-0.097-0.016-0.14-0.019
			c-0.042-0.003-0.089-0.005-0.139-0.005c-0.43,0-0.759,0.139-0.989,0.414c-0.23,0.276-0.345,0.594-0.345,0.953v2.914h-0.852
			V319.915z"/>
		<path fill="#312F81" d="M711.442,319.915l1.353,4.125l1.41-4.125h0.932l-1.907,5.066h-0.907l-1.868-5.066H711.442z"/>
		<path fill="#312F81" d="M715.867,318.032h0.866v0.965h-0.866V318.032z M715.867,319.938h0.866v5.043h-0.866V319.938z"/>
		<path fill="#312F81" d="M721.366,320.185c0.358,0.277,0.573,0.756,0.646,1.434h-0.828c-0.051-0.312-0.166-0.571-0.346-0.778
			c-0.18-0.206-0.468-0.31-0.865-0.31c-0.543,0-0.931,0.265-1.164,0.794c-0.151,0.343-0.227,0.767-0.227,1.271
			c0,0.507,0.107,0.934,0.321,1.28c0.215,0.347,0.552,0.52,1.013,0.52c0.353,0,0.633-0.107,0.84-0.322
			c0.206-0.215,0.349-0.51,0.428-0.884h0.828c-0.095,0.672-0.331,1.163-0.71,1.474c-0.378,0.311-0.862,0.466-1.452,0.466
			c-0.662,0-1.19-0.242-1.585-0.726c-0.394-0.484-0.591-1.089-0.591-1.814c0-0.89,0.216-1.582,0.647-2.077
			c0.433-0.494,0.982-0.742,1.651-0.742C720.544,319.769,721.009,319.907,721.366,320.185z"/>
		<path fill="#312F81" d="M725.994,320.055c0.335,0.169,0.591,0.387,0.767,0.655c0.169,0.255,0.281,0.554,0.338,0.894
			c0.051,0.233,0.075,0.605,0.075,1.117h-3.685c0.016,0.515,0.136,0.929,0.361,1.24s0.574,0.467,1.047,0.467
			c0.44,0,0.793-0.147,1.056-0.441c0.147-0.171,0.251-0.369,0.312-0.595h0.838c-0.022,0.187-0.096,0.394-0.221,0.622
			c-0.124,0.229-0.264,0.416-0.417,0.561c-0.256,0.253-0.574,0.423-0.952,0.512c-0.204,0.05-0.434,0.075-0.69,0.075
			c-0.627,0-1.158-0.229-1.594-0.688s-0.653-1.102-0.653-1.928c0-0.813,0.22-1.474,0.658-1.981s1.013-0.762,1.721-0.762
			C725.312,319.802,725.658,319.886,725.994,320.055z M726.299,322.044c-0.034-0.369-0.114-0.664-0.239-0.885
			c-0.231-0.41-0.617-0.615-1.158-0.615c-0.388,0-0.713,0.142-0.976,0.424s-0.402,0.641-0.418,1.076H726.299z"/>
		<path fill="#312F81" d="M728.759,323.392c0.025,0.284,0.098,0.502,0.217,0.653c0.219,0.274,0.599,0.411,1.14,0.411
			c0.321,0,0.605-0.068,0.85-0.205c0.245-0.138,0.367-0.35,0.367-0.637c0-0.218-0.098-0.383-0.294-0.497
			c-0.125-0.069-0.371-0.149-0.74-0.241l-0.688-0.17c-0.438-0.107-0.763-0.227-0.971-0.359c-0.372-0.23-0.558-0.549-0.558-0.956
			c0-0.479,0.175-0.867,0.525-1.163c0.35-0.297,0.82-0.444,1.411-0.444c0.773,0,1.331,0.224,1.673,0.671
			c0.215,0.284,0.318,0.59,0.312,0.918h-0.805c-0.016-0.191-0.085-0.365-0.208-0.522c-0.2-0.223-0.547-0.334-1.041-0.334
			c-0.329,0-0.579,0.062-0.748,0.185c-0.17,0.122-0.255,0.284-0.255,0.485c0,0.22,0.111,0.396,0.335,0.527
			c0.128,0.079,0.317,0.148,0.568,0.208l0.573,0.137c0.623,0.148,1.041,0.292,1.253,0.431c0.331,0.218,0.497,0.56,0.497,1.026
			c0,0.451-0.173,0.841-0.52,1.169s-0.874,0.492-1.583,0.492c-0.763,0-1.304-0.172-1.621-0.514s-0.487-0.766-0.51-1.271H728.759z"/>
	</g>
</g>
<g>
</g>
<g>
</g>
<g>
</g>
<g>
</g>
<g>
</g>
<g>
</g>
</svg>
