<?xml version="1.0" encoding="utf-8"?>
<!-- Generator: Adobe Illustrator 16.0.0, SVG Export Plug-In . SVG Version: 6.00 Build 0)  -->
<!DOCTYPE svg PUBLIC "-//W3C//DTD SVG 1.1//EN" "http://www.w3.org/Graphics/SVG/1.1/DTD/svg11.dtd">
<svg version="1.1" id="Layer_1" xmlns="http://www.w3.org/2000/svg" xmlns:xlink="http://www.w3.org/1999/xlink" x="0px" y="0px"
	 width="841.89px" height="464.326px" viewBox="0 0 841.89 464.326" enable-background="new 0 0 841.89 464.326"
	 xml:space="preserve">
<path fill="none" d="M7.258,449.001c-0.024,1.439,0.856,2.709,2.102,3.257v-7.212C8.128,445.885,7.285,447.344,7.258,449.001z"/>
<linearGradient id="SVGID_1_" gradientUnits="userSpaceOnUse" x1="425.1318" y1="464.3262" x2="425.1318" y2="7.501">
	<stop  offset="0" style="stop-color:#FFFFFF"/>
	<stop  offset="0.3042" style="stop-color:#F2F1F8"/>
	<stop  offset="0.8791" style="stop-color:#D1CCE5"/>
	<stop  offset="1" style="stop-color:#C9C3E1"/>
</linearGradient>
<path fill="url(#SVGID_1_)" d="M830.575,15.989c0.807,2.828,1.301,5.934-1.625,7.937c-2.669,1.828-5.683,2.013-8.813-0.371
	c-3.235,3.603-6.313,7.243-9.629,10.653c-2.53,2.604-5.299,4.99-8.072,7.341c-7.528,6.382-14.197,13.334-18.616,22.424
	c-2.794,5.746-6.822,10.889-10.28,16.313c-3.294,5.168-6.718,10.263-9.805,15.553c-2.65,4.541-6.499,7.713-10.623,10.751
	c-13.357,9.835-26.572,19.867-39.992,29.615c-8.412,6.109-17.097,11.839-25.652,17.748c-6.595,4.552-12.822,9.538-18.513,15.208
	c-2.183,2.174-4.735,3.976-7.122,5.948c-2.336,1.93-4.673,3.858-6.958,5.744c1.534,3.389,1.474,6.783-1.088,8.684
	c-1.967,1.456-5.911,2.288-9.016-0.508c-5.228,4.711-10.484,9.441-15.73,14.181c-7.737,6.994-15.474,13.989-23.2,20.998
	c-7.034,6.383-14.064,12.771-21.08,19.179c-10.091,9.213-20.162,18.449-30.247,27.668c-5.868,5.363-11.801,10.657-17.6,16.092
	c-2.522,2.362-4.793,4.992-7.161,7.516c-0.704,0.745-0.789,1.436-0.192,2.447c1.587,2.693,1.128,6.183-0.832,7.876
	c-2.257,1.953-5.934,2.077-8.5,0.396c-0.437-0.285-1.263-0.356-1.742-0.147c-18.002,7.897-35.909,16.008-53.992,23.716
	c-12.101,5.16-24.438,9.768-36.679,14.6c-9.158,3.611-18.326,7.189-27.584,10.82c0.076,4.209-0.942,5.993-4.135,6.944
	c-3.683,1.095-5.888,0.149-8.258-3.643c-3.993,1.137-8.01,2.373-12.074,3.428c-20.213,5.245-40.433,10.459-60.661,15.646
	c-10.863,2.785-21.764,5.427-32.614,8.267c-3.531,0.924-6.943,2.297-10.429,3.401c-1.013,0.321-1.487,0.74-1.479,1.925
	c0.024,3.08-1.026,4.509-3.608,5.334c-3.394,1.085-5.83,0.566-7.469-1.884c-0.803-1.202-1.575-0.823-2.522-0.509
	c-21.206,7.074-42.396,14.189-63.625,21.187c-10.14,3.342-20.402,6.312-30.516,9.727c-6.581,2.223-13.001,4.922-19.465,7.48
	c-0.458,0.182-0.911,0.935-0.972,1.466c-0.362,3.241-1.329,4.66-3.918,5.456c-3.06,0.942-5.4,0.422-7.155-1.978
	c-0.866-1.185-1.66-0.696-2.565-0.467c-7.461,1.887-14.84,4.214-22.394,5.582c-13.068,2.369-26.197,4.562-39.39,6.028
	c-9.98,1.112-20.097,1.001-30.156,1.385c-5.962,0.226-11.927,0.367-17.891,0.521c-1.12,0.029-1.848,0.212-2.339,1.502
	c-0.901,2.369-4.428,3.66-7.238,2.987v10.169h831.544V7.5C837.501,10.298,834.097,13.094,830.575,15.989z"/>
<linearGradient id="SVGID_2_" gradientUnits="userSpaceOnUse" x1="12.4351" y1="464.3262" x2="12.435" y2="7.518">
	<stop  offset="0" style="stop-color:#FFFFFF"/>
	<stop  offset="1" style="stop-color:#26246A"/>
</linearGradient>
<path fill="url(#SVGID_2_)" d="M15.511,448.519c0.002-2.476-1.503-4.179-3.725-4.218c-0.886-0.015-1.719,0.266-2.426,0.745v7.212
	c0.382,0.168,0.794,0.273,1.229,0.288C12.829,452.621,15.508,450.429,15.511,448.519z"/>
<path fill="#514EA1" d="M16.598,451.17c0.491-1.29,1.219-1.473,2.339-1.502c5.964-0.154,11.929-0.296,17.891-0.521
	c10.059-0.384,20.176-0.272,30.156-1.385c13.193-1.466,26.322-3.659,39.39-6.028c7.554-1.368,14.933-3.695,22.394-5.582
	c0.905-0.229,1.699-0.718,2.565,0.467c1.755,2.399,4.095,2.92,7.155,1.978c2.589-0.796,3.556-2.215,3.918-5.456
	c0.061-0.531,0.514-1.284,0.972-1.466c6.463-2.559,12.884-5.258,19.465-7.48c10.114-3.415,20.375-6.385,30.516-9.727
	c21.229-6.997,42.419-14.112,63.625-21.187c0.948-0.314,1.719-0.693,2.522,0.509c1.639,2.45,4.075,2.969,7.469,1.884
	c2.582-0.825,3.632-2.254,3.608-5.334c-0.008-1.185,0.465-1.604,1.479-1.925c3.486-1.104,6.897-2.478,10.429-3.401
	c10.85-2.84,21.75-5.481,32.614-8.267c20.229-5.188,40.448-10.401,60.661-15.646c4.064-1.055,8.082-2.291,12.074-3.428
	c2.37,3.792,4.575,4.737,8.258,3.643c3.193-0.951,4.211-2.735,4.135-6.944c9.259-3.631,18.427-7.209,27.584-10.82
	c12.24-4.832,24.578-9.439,36.679-14.6c18.083-7.708,35.99-15.818,53.992-23.716c0.479-0.209,1.306-0.138,1.742,0.147
	c2.566,1.681,6.243,1.557,8.5-0.396c1.96-1.693,2.419-5.183,0.832-7.876c-0.597-1.012-0.512-1.702,0.192-2.447
	c2.368-2.523,4.639-5.153,7.161-7.516c5.799-5.435,11.731-10.729,17.6-16.092c10.085-9.219,20.156-18.455,30.247-27.668
	c7.016-6.407,14.046-12.796,21.08-19.179c7.727-7.009,15.463-14.004,23.2-20.998c5.246-4.739,10.503-9.47,15.73-14.181
	c3.104,2.796,7.049,1.964,9.016,0.508c2.562-1.9,2.622-5.295,1.088-8.684c2.285-1.886,4.622-3.814,6.958-5.744
	c2.387-1.972,4.939-3.773,7.122-5.948c5.69-5.67,11.918-10.655,18.513-15.208c8.556-5.909,17.24-11.639,25.652-17.748
	c13.42-9.749,26.635-19.78,39.992-29.615c4.124-3.038,7.973-6.21,10.623-10.751c3.087-5.291,6.511-10.385,9.805-15.553
	c3.458-5.425,7.486-10.568,10.28-16.313c4.419-9.09,11.088-16.042,18.616-22.424c2.773-2.351,5.542-4.737,8.072-7.341
	c3.315-3.41,6.394-7.05,9.629-10.653c3.131,2.383,6.145,2.199,8.813,0.371c2.926-2.003,2.432-5.108,1.625-7.937
	c3.521-2.895,6.926-5.691,10.329-8.489c-0.166-0.216-0.332-0.433-0.498-0.648c-0.432,0.175-0.831,0.4-1.214,0.648
	c-1.418,0.915-2.573,2.222-3.932,3.219c-1.886,1.385-3.698,2.873-5.489,4.275c-3.187-2.333-5.502-2.731-7.512-1.393
	c-2.486,1.656-3.582,5.07-2.815,8.414c0.104,0.456-0.188,1.174-0.54,1.536c-1.556,1.6-3.344,2.993-4.79,4.682
	c-4.037,4.711-8.222,9.2-13.142,13.072c-5.913,4.659-11.219,10.025-15.132,16.559c-1.716,2.867-3.026,5.98-4.813,8.798
	c-6.343,10.002-12.752,19.962-19.276,29.847c-1.447,2.194-3.195,4.368-5.269,5.942c-10.818,8.224-21.75,16.3-32.715,24.33
	c-9.161,6.709-18.413,13.293-27.637,19.915c-6.552,4.704-13.426,9.014-19.605,14.161c-7.236,6.025-14.123,12.48-21.497,18.355
	c-0.446,0.356-1.404,0.621-1.809,0.387c-2.239-1.3-4.501-1.77-6.596-0.023c-2.231,1.861-3.342,4.39-2.646,7.303
	c0.284,1.193-0.132,1.657-0.889,2.305c-3.489,2.99-7.007,5.952-10.386,9.064c-6.721,6.189-13.274,12.559-20.042,18.694
	c-12.701,11.518-25.533,22.887-38.251,34.382c-11.108,10.043-22.171,20.135-33.182,30.283c-4.415,4.071-9.361,7.64-12.69,12.786
	c-0.647,1-1.289,0.583-2.055,0.281c-2.793-1.101-4.938-0.418-6.595,2.086c-1.362,2.057-1.988,4.262-1.078,6.917
	c-0.987,0.471-1.814,0.896-2.664,1.269c-15.271,6.746-30.47,13.657-45.84,20.172c-13.191,5.593-26.554,10.786-39.882,16.055
	c-9.638,3.809-19.352,7.442-29.015,11.181c-1.184,0.458-1.893,0.385-2.788-0.774c-2.665-3.447-7.319-2.926-9.355,0.925
	c-0.43,0.812-0.573,1.784-1.038,2.57c-0.385,0.648-0.956,1.453-1.604,1.642c-8.34,2.444-16.661,4.978-25.08,7.125
	c-21.241,5.416-42.553,10.56-63.791,15.993c-8.654,2.214-17.187,4.9-25.777,7.371c-0.843,0.241-1.644,0.858-2.409-0.34
	c-1.427-2.231-3.555-3.389-6.189-2.769c-2.894,0.684-4.224,3.015-4.607,5.727c-0.209,1.484-0.773,2.065-2.122,2.514
	c-18.212,6.025-36.451,11.981-54.592,18.218c-18.016,6.193-36.6,10.698-54.163,18.232c-1.856,0.797-3.788,1.419-5.626,2.102
	c-2.105-3.264-4.471-4.722-6.947-4.011c-3.782,1.088-4.634,4.293-5.077,7.704c-18.127,6.093-37.033,8.485-55.798,11.252
	c-18.879,2.783-38.029,1.88-57.05,2.857c-0.099-0.535-0.137-0.778-0.188-1.018c-0.741-3.486-2.975-5.574-5.983-5.6
	c-0.657-0.006-1.281,0.117-1.865,0.344c-1.844,0.716-3.263,2.531-3.87,5.092c-0.708,2.987,0.531,5.467,3.227,6.457
	c0.208,0.077,0.424,0.139,0.643,0.19C12.169,454.83,15.697,453.539,16.598,451.17z M825.514,15.042
	c2.189-0.021,3.749,1.728,3.75,4.209c0,2.021-2.502,4.126-4.848,4.079c-1.938-0.04-3.353-1.519-3.331-3.484
	C821.112,17.167,823.049,15.068,825.514,15.042z M650.111,180.699c2.254-0.088,3.964,1.733,3.967,4.227
	c0.004,1.964-2.374,3.966-4.778,4.027c-1.927,0.05-3.47-1.413-3.501-3.322C645.751,182.979,647.662,180.796,650.111,180.699z
	 M524.837,296.45c2.322-0.025,3.884,1.731,3.823,4.3c-0.046,1.813-2.775,4.049-4.868,3.987c-1.832-0.055-3.375-1.669-3.368-3.527
	C520.433,298.513,522.32,296.476,524.837,296.45z M394.675,351.509c2.179,0.029,3.712,1.802,3.693,4.269
	c-0.015,1.983-2.406,4.001-4.762,4.021c-1.841,0.016-3.536-1.604-3.53-3.377C390.082,353.801,392.258,351.476,394.675,351.509z
	 M265.117,386.175c2.224,0.032,3.721,1.729,3.713,4.209c-0.005,1.931-2.417,3.969-4.738,4.001c-1.929,0.028-3.6-1.633-3.543-3.521
	C260.628,388.293,262.724,386.141,265.117,386.175z M136.918,428.97c2.31,0.016,3.907,1.823,3.83,4.335
	c-0.056,1.771-2.859,4.008-4.939,3.941c-1.81-0.059-3.354-1.697-3.345-3.551C132.475,430.983,134.388,428.954,136.918,428.97z
	 M9.36,452.258c-1.246-0.548-2.126-1.817-2.102-3.257c0.027-1.657,0.87-3.116,2.102-3.955c0.707-0.479,1.541-0.76,2.426-0.745
	c2.221,0.039,3.727,1.742,3.725,4.218c-0.003,1.91-2.682,4.103-4.921,4.027C10.154,452.531,9.742,452.426,9.36,452.258z"/>
<ellipse fill-rule="evenodd" clip-rule="evenodd" fill="#514EA1" cx="11.208" cy="448.953" rx="1.848" ry="1.506"/>
<ellipse fill-rule="evenodd" clip-rule="evenodd" fill="#514EA1" cx="136.356" cy="433.559" rx="1.642" ry="1.573"/>
<ellipse fill-rule="evenodd" clip-rule="evenodd" fill="#514EA1" cx="265.2" cy="390.52" rx="1.848" ry="1.642"/>
<ellipse fill-rule="evenodd" clip-rule="evenodd" fill="#514EA1" cx="394.522" cy="355.554" rx="1.779" ry="1.848"/>
<ellipse fill-rule="evenodd" clip-rule="evenodd" fill="#514EA1" cx="524.875" cy="301.204" rx="2.182" ry="2.189"/>
<ellipse fill-rule="evenodd" clip-rule="evenodd" fill="#514EA1" cx="649.917" cy="184.834" rx="1.87" ry="1.916"/>
<ellipse fill-rule="evenodd" clip-rule="evenodd" fill="#514EA1" cx="825.199" cy="19.248" rx="2.076" ry="1.871"/>
<text transform="matrix(1 0 0 1 8.3086 421.9932)"><tspan x="0" y="0" fill="#312F81" font-family="'Helvetica-Bold'" font-size="9.8531">2012:</tspan><tspan x="25.201" y="0" fill="#312F81" font-family="'Helvetica'" font-size="9.8531"> START!</tspan><tspan x="0" y="11.824" fill="#312F81" font-family="'Helvetica'" font-size="9.8531">Sales on day 1</tspan></text>
<text transform="matrix(1 0 0 1 132.293 448.4248)"><tspan x="0" y="0" fill="#312F81" font-family="'Helvetica-Bold'" font-size="9.8531">2013:</tspan><tspan x="25.201" y="0" fill="#312F81" font-family="'Helvetica'" font-size="9.8531"> 1st investment</tspan></text>
<text transform="matrix(1 0 0 1 263.3555 409.9707)"><tspan x="0" y="0" fill="#312F81" font-family="'Helvetica-Bold'" font-size="9.8531">2014:</tspan><tspan x="25.201" y="0" fill="#312F81" font-family="'Helvetica'" font-size="9.8531"> Launch our first product</tspan><tspan x="0" y="11.824" fill="#312F81" font-family="'Helvetica'" font-size="9.8531">MASKOOLIN</tspan></text>
<text transform="matrix(1 0 0 1 406.0283 368.9658)"><tspan x="0" y="0" fill="#312F81" font-family="'Helvetica-Bold'" font-size="9.8531">2015:</tspan><tspan x="25.2" y="0" fill="#312F81" font-family="'Helvetica'" font-size="9.8531"> 2nd investment</tspan></text>
<text transform="matrix(1 0 0 1 534.666 310.9414)"><tspan x="0" y="0" fill="#312F81" font-family="'Helvetica-Bold'" font-size="9.8531">2016:</tspan><tspan x="25.2" y="0" fill="#312F81" font-family="'Helvetica'" font-size="9.8531"> Double the employee</tspan></text>
<text transform="matrix(1 0 0 1 655.0625 200.915)"><tspan x="0" y="0" fill="#312F81" font-family="'Helvetica-Bold'" font-size="9.8531">2017:</tspan><tspan x="25.2" y="0" fill="#312F81" font-family="'Helvetica'" font-size="9.8531"> Launch our </tspan><tspan x="0" y="11.824" fill="#312F81" font-family="'Helvetica'" font-size="9.8531">B2B services</tspan></text>
</svg>
